<?xml version='1.0' encoding='utf-8'?>
<svg xmlns="http://www.w3.org/2000/svg" version="1.1" id="Camada_1" x="0px" y="0px" viewBox="0 0 3000 2000" style="enable-background:new 0 0 3000 2000;"> <style type="text/css"> .st0{fill:#FCEE21;} .st1{fill:#333333;} .st2{fill:#FFFFFF;} .st3{stroke:#000000;stroke-miterlimit:10;} .st4{fill:#FFFFFF;stroke:#000000;stroke-miterlimit:10;} .st5{fill:#FF0000;stroke:#000000;stroke-width:0.75;stroke-miterlimit:10;} .st6{fill:#FF0000;stroke:#000000;stroke-width:0.5;stroke-miterlimit:10;} .st7{fill:none;stroke:#DDBA98;stroke-width:48;stroke-linecap:round;stroke-miterlimit:10;} .st8{fill:none;stroke:#000000;stroke-width:85;stroke-miterlimit:10;} .st9{fill:#DDBA98;} .st10{fill:none;stroke:#000000;stroke-width:5;stroke-miterlimit:10;} .st11{fill:none;stroke:#E90013;stroke-width:9;stroke-miterlimit:10;} .st12{fill:none;stroke:#000000;stroke-width:0.75;stroke-miterlimit:10;} .st13{fill:#C69C6D;} .st14{fill:url(#SVGID_1_);} .st15{opacity:0.11;} .st16{fill:#D6AC83;} .st17{fill:#A67C52;} .st18{fill:none;stroke:#FFFFFF;stroke-width:2;stroke-miterlimit:10;} .st19{fill:#CCCCCC;} .st20{fill:#808080;} .st21{fill:url(#SVGID_2_);stroke:#FFFFFF;stroke-width:2;stroke-miterlimit:10;} .st22{fill:url(#SVGID_3_);stroke:#FFFFFF;stroke-width:2;stroke-miterlimit:10;} </style> <g> <g> <g> <path class="st0" d="M1495.5,179.8c-34.6-8.1-72.2-2.6-103.1,15c-30.9,17.6-54.8,47.1-65.5,81c2.2-1.6,4.4-3.1,6.6-4.7 c16.2,43.3,0.5,96.5-36.7,124c7.3,1.8,14.6,3.6,21.8,5.4c-14.9,33.5-27.5,68.8-29.7,105.4c-0.7,11.1-0.4,22.3,1.5,33.3 c9.5,53.2,59,93,111.9,103.7s108.1-3.2,157.5-25.1c18.2-8.1,36.4-17.7,49-33c16.7-20.3,21.5-48.4,18.7-74.5 c-5-46.5-31.5-88.1-41-133.9c-7.7-37.2-4.1-76.3-13.5-113.2c-9.4-36.9-37.7-83.6-75.8-82.7"/> <g> <path class="st0" d="M1495.9,178.3c-56.4-12.8-115.9,9.3-149.8,56.2c-9,12.4-15.9,26.2-20.6,40.9c-0.4,1.2,1.1,2.5,2.2,1.7 c2.2-1.6,4.4-3.1,6.6-4.7c-0.7-0.3-1.5-0.6-2.2-0.9c15.8,43.1,0.8,94.7-36,122.3c-1,0.7-1,2.4,0.4,2.7 c7.3,1.8,14.6,3.6,21.8,5.4c-0.3-0.7-0.6-1.5-0.9-2.2c-14.6,32.9-27,67.3-29.7,103.4c-2.4,31.5,4.7,61.3,24.2,86.4 c17.2,22.1,41.2,38.6,67.3,48.3c31.3,11.5,65.7,12.4,98.4,7.1c34.6-5.6,69.4-17.6,100.3-34.2c13.9-7.5,27-17.1,36.1-30.2 c8.5-12.3,13.2-26.9,15-41.7c4.1-33.8-7.4-66.7-19.4-97.8c-6.4-16.5-13-32.9-17.8-49.9c-5.2-18.2-7.4-36.8-8.8-55.5 c-2.4-33.2-3.4-66.7-17.2-97.6c-10.1-22.8-26.7-47.4-51.3-56.1c-5.5-2-11.4-2.9-17.2-2.8c-1.9,0-1.9,3,0,3 c26.8-0.3,46.7,22.1,59,43.7c15.7,27.6,20.2,58,22.3,89.2c1.2,17.3,2,34.6,4.7,51.7c2.6,16.6,7.4,32.6,13.2,48.3 c11.2,30.9,25.8,61.4,29.5,94.4c3.5,31.1-3.9,64-28.6,84.8c-12.5,10.6-27.5,17.7-42.4,24.1c-16,6.9-32.4,12.9-49.1,17.4 c-33.4,9.1-68.9,12.7-103.1,5.8c-27.5-5.6-53.7-18.7-74.2-37.9c-21-19.6-35.3-45.6-37.9-74.4c-3.1-35,6.4-70.4,18.8-102.7 c3.3-8.5,6.8-16.8,10.5-25.1c0.4-0.8,0.1-2-0.9-2.2c-7.3-1.8-14.6-3.6-21.8-5.4c0.1,0.9,0.2,1.8,0.4,2.7 c37.7-28.4,53.6-81.2,37.3-125.7c-0.3-0.8-1.4-1.5-2.2-0.9c-2.2,1.6-4.4,3.1-6.6,4.7c0.7,0.6,1.5,1.1,2.2,1.7 c10.3-32.1,32.1-60.1,60.8-77.8c31.4-19.3,70-25.3,105.9-17.2C1497,181.7,1497.8,178.8,1495.9,178.3L1495.9,178.3z"/> </g> </g> <g> <path class="st0" d="M1504.2,160.5c34.6-8.1,72.2-2.6,103.1,15c30.9,17.6,54.8,47.1,65.5,81c-2.2-1.6-4.4-3.1-6.6-4.7 c-16.2,43.3-0.5,96.5,36.7,124c-7.3,1.8-14.6,3.6-21.8,5.4c14.9,33.5,27.5,68.8,29.7,105.4c0.7,11.1,0.4,22.3-1.5,33.3 c-9.5,53.2-59,93-111.9,103.7c-53,10.7-108.1-3.2-157.5-25.1c-18.2-8.1-36.4-17.7-49-33c-16.7-20.3-21.5-48.4-18.7-74.5 c5-46.5,31.5-88.1,41-133.9c7.7-37.2,4.1-76.3,13.5-113.2s37.7-83.6,75.8-82.7"/> <g> <path class="st0" d="M1504.6,161.9c35.9-8.1,74.5-2.1,105.9,17.2c28.7,17.7,50.5,45.7,60.8,77.8c0.7-0.6,1.5-1.1,2.2-1.7 c-2.2-1.6-4.4-3.1-6.6-4.7c-0.9-0.6-1.9,0.1-2.2,0.9c-16.3,44.4-0.4,97.3,37.3,125.7c0.1-0.9,0.2-1.8,0.4-2.7 c-7.3,1.8-14.6,3.6-21.8,5.4c-1,0.3-1.3,1.4-0.9,2.2c14.4,32.4,26.6,66.4,29.3,101.9c2.4,31.3-4.7,60.9-24.4,85.7 c-17.5,22-41.9,38.2-68.3,47.3c-31.3,10.7-65.5,10.9-97.9,5.1c-33.1-5.9-66.4-17.5-95.9-33.6c-14.4-7.8-27.7-17.9-36.4-32 c-8.2-13.2-12.2-28.7-13.1-44.1c-2-32.7,9.9-64,21.5-93.9c6-15.4,12-30.8,16.5-46.7c4.6-16.3,6.9-33,8.2-49.9 c2.6-32.7,2.7-66.1,15.2-97c9.5-23.4,25.6-49.6,50.3-59.1c5.6-2.2,11.5-3.2,17.6-3.1c1.9,0,1.9-3,0-3 c-26-0.3-45.9,19.7-58.7,40.4c-16.7,26.8-22.7,57-25.1,88.1c-1.5,19.5-2.1,39-5.1,58.4c-2.7,17.4-8,34.2-14.1,50.8 c-11.8,32-26.8,63.8-29.3,98.4c-2.2,31.1,6.9,62.9,31.9,82.9c13,10.4,28.3,17.6,43.6,24.1c16.2,6.9,32.9,12.9,50,17.4 c33.8,8.9,69.7,12.1,104.2,4.6c27.7-6,54-19.7,74.5-39.3c20.5-19.6,34.6-45.3,37.6-73.7c3.8-36.4-6.3-73.5-19.4-107.1 c-3.2-8.1-6.6-16.1-10.1-24.1c-0.3,0.7-0.6,1.5-0.9,2.2c7.3-1.8,14.6-3.6,21.8-5.4c1.4-0.3,1.3-2,0.4-2.7 c-36.7-27.6-51.7-79.2-36-122.3c-0.7,0.3-1.5,0.6-2.2,0.9c2.2,1.6,4.4,3.1,6.6,4.7c1.1,0.8,2.6-0.5,2.2-1.7 c-17.3-53.5-64.5-92.9-120.4-99.7c-16.7-2-33.6-1.1-50,2.6C1501.9,159.4,1502.7,162.3,1504.6,161.9L1504.6,161.9z"/> </g> </g> <path d="M1598.5,567.9h-198.7c-7.7,0-14-6.3-14-14v-21.2c0-7.7,6.3-14,14-14h198.7c7.7,0,14,6.3,14,14v21.2 C1612.5,561.6,1606.2,567.9,1598.5,567.9z"/> <g> <path class="st1" d="M1468.2,1858.2l-27.4,3.4c-32.9-61.2-74.7-158.6-96.3-295.8c-0.8-5-1.6-10.1-2.3-15.2 c-3.6-25-6.3-49.9-8.3-74.6c-0.3-4.1-0.7-8.1-0.9-12.2c-1.7-24.5-2.7-48.7-3.1-72.5c-1.7-104.6,8.2-202.2,20.8-283.6l85,7 c-17.4,136.5-27.2,284.8-18.6,432.3C1424.8,1680.9,1446.3,1783.4,1468.2,1858.2z"/> </g> <g> <path class="st1" d="M1679.6,1451.6c-0.1,8.1-0.4,16.2-0.7,24.4c-0.8,20.9-2.1,42-4,63.2c-0.5,6.1-1.1,12.1-1.8,18.2 c-14.7,139.8-51.7,240.8-81.7,304.9l-27.6-2.7c18.5-77.6,35.1-182.9,36.8-318.4c1.8-147.5-14.4-293.1-37.2-425.1l81.9-10.5 c16.4,80.3,31.1,178.2,34,284.6C1679.9,1410.5,1680,1430.9,1679.6,1451.6z"/> </g> <path class="st2" d="M1705.1,1068.2h-410.3V696.3c0-40.8,18.5-77.8,48.3-104.6c0,0,43.1-38.5,104.2-42.9c1.3-0.1,2.6-0.2,2.6-0.2 c5-0.3,8.8-0.3,9.9-0.3c26.7,0,53.4,0,80.2,0c91.2,0,165.1,66.2,165.1,147.9V1068.2z"/> <path class="st1" d="M1674.7,1153.2h-349.3c-17.1,0-31-13.9-31-31v-96.5h411.3v96.5C1705.7,1139.3,1691.8,1153.2,1674.7,1153.2z"/> <g> <g> <path class="st3" d="M1470.4,1842.8v18.2c0,0.2,0,0.4,0,0.7c0,0.5-0.1,1-0.2,1.4c-1,4.8-5.2,8.4-10.2,8.4h-247.8 c-1.3,0-2.3-1.2-2.1-2.5c0.4-2.8,1.4-5.5,2.9-8.1c0,0,0,0,0-0.1c0,0,0,0,0.1-0.1c0.2-0.2,0.3-0.5,0.5-0.8c0.3-0.5,0.6-1,1-1.5 c10.2-14.6,36.3-26.8,71.1-34c21.7-4.5,46.9-7.1,73.7-7.1c40.6,0,77.4,5.9,104.3,15.6 C1467.7,1834.5,1470.4,1838.4,1470.4,1842.8z"/> <circle class="st2" cx="1428.9" cy="1840.3" r="13.7"/> <path class="st4" d="M1470.4,1860.8v0.2c0,0.2,0,0.4,0,0.7c0,0.5-0.1,1-0.2,1.4c-1,4.8-5.2,8.4-10.3,8.4h-247.8 c-1.3,0-2.3-1.2-2.1-2.5c0.4-2.8,1.4-5.5,2.9-8.1c0,0,0,0,0,0c0,0,0,0,0,0H1470.4z"/> <g> <path class="st5" d="M1470.4,1858.6v4.6h-0.2l-257.2-2.2c0,0,0,0,0,0c0,0,0,0,0,0c0.2-0.3,0.3-0.5,0.5-0.8c0.3-0.5,0.6-1,1-1.5 H1470.4z"/> </g> </g> <polygon class="st2" points="1334.1,1834.4 1330.8,1835.2 1324.8,1817.4 1330.4,1815.9 "/> <polygon class="st2" points="1340,1833 1336.7,1833.5 1332.8,1815.1 1338.7,1814.3 "/> <polygon class="st2" points="1345.7,1833.4 1342.3,1833.3 1341.2,1814.6 1347.1,1814.6 "/> <polygon class="st2" points="1351.7,1833.5 1348.3,1833.1 1349.3,1814.3 1355.2,1815 "/> <path class="st4" d="M1285.6,1824.6v34h-71.1C1224.7,1844,1250.8,1831.8,1285.6,1824.6z"/> </g> <g> <g> <path class="st3" d="M1559.8,1841.1v18.2c0,0.2,0,0.4,0,0.7c0,0.5,0.1,1,0.2,1.4c1,4.8,5.2,8.4,10.2,8.4h247.8 c1.3,0,2.3-1.2,2.1-2.5c-0.4-2.8-1.4-5.5-2.9-8.1c0,0,0,0,0-0.1c0,0,0,0-0.1-0.1c-0.2-0.2-0.3-0.5-0.5-0.8c-0.3-0.5-0.6-1-1-1.5 c-10.2-14.6-36.3-26.8-71.1-34c-21.7-4.5-46.9-7.1-73.7-7.1c-40.6,0-77.4,5.9-104.3,15.6 C1562.5,1832.7,1559.8,1836.7,1559.8,1841.1z"/> <circle class="st2" cx="1601.3" cy="1838.5" r="13.7"/> <path class="st4" d="M1559.8,1859.1v0.2c0,0.2,0,0.4,0,0.7c0,0.5,0.1,1,0.2,1.4c1,4.8,5.2,8.4,10.3,8.4h247.8 c1.3,0,2.3-1.2,2.1-2.5c-0.4-2.8-1.4-5.5-2.9-8.1c0,0,0,0,0,0c0,0,0,0,0,0H1559.8z"/> <g> <path class="st6" d="M1559.8,1856.8v4.6h0.2l257.2-2.2c0,0,0,0,0,0c0,0,0,0,0,0c-0.2-0.3-0.3-0.5-0.5-0.8c-0.3-0.5-0.6-1-1-1.5 H1559.8z"/> </g> </g> <polygon class="st2" points="1696.1,1832.6 1699.4,1833.5 1705.4,1815.7 1699.8,1814.1 "/> <polygon class="st2" points="1690.2,1831.3 1693.5,1831.7 1697.4,1813.3 1691.5,1812.5 "/> <polygon class="st2" points="1684.5,1831.6 1687.9,1831.6 1689,1812.8 1683.1,1812.9 "/> <polygon class="st2" points="1678.5,1831.7 1681.9,1831.3 1680.9,1812.5 1675,1813.3 "/> <path class="st4" d="M1744.6,1822.8v34h71.1C1805.5,1842.2,1779.4,1830,1744.6,1822.8z"/> </g> <path class="st7" d="M1355.7,598.3c-17.4,8.1-157.8,76.3-188,225c-26.1,128,40.2,263.2,167.5,337.8"/> <path class="st8" d="M1360.7,598.3c-40.4,18.7-75.9,45.1-105.9,75.8c-29.3,30-53.5,64.2-68.6,102c-16.4,41.3-22.9,86.1-18.9,129.8 c4,42.8,18.1,85,39.8,123.1c20.9,36.7,49.5,69.7,83.3,97.5c4.2,3.4,8.5,6.8,12.8,10.1"/> <path class="st7" d="M1636.3,598.3c17.4,8.1,157.8,76.3,188,225c26.1,128-40.2,263.2-167.5,337.8"/> <path class="st8" d="M1630.4,601.3c40.4,18.7,75.9,45.1,105.9,75.8c29.3,30,53.5,64.2,68.6,102c16.4,41.3,22.9,86.1,18.9,129.8 c-4,42.8-18.1,85-39.8,123.1c-20.9,36.7-49.5,69.7-83.3,97.5c-4.2,3.4-8.5,6.8-12.8,10.1"/> <path d="M1408.9,538.8l-141,27.7c-4.3,0.9-7.2,5.1-6.3,9.4l4.6,23.6c0.9,4.3,5.1,7.2,9.4,6.3l141-27.7c4.3-0.9,7.2-5.1,6.3-9.4 l-4.6-23.6C1417.4,540.8,1413.2,538,1408.9,538.8z"/> <path d="M1585.6,525l139.5,27.4c4.3,0.9,7.2,5.1,6.3,9.4l-4.6,23.2c-0.9,4.3-5.1,7.2-9.4,6.3L1578,563.9c-4.3-0.9-7.2-5.1-6.3-9.4 l4.6-23.2C1577.1,526.9,1581.3,524.1,1585.6,525z"/> <path class="st2" d="M1450.8,564.4"/> <path class="st9" d="M1377,1478.4c0,21.4-16.9,38.7-37.8,38.7c-1.8,0-3.6-0.1-5.3-0.4c-0.3-3.6-0.7-7.3-0.9-10.9 c-1.7-21.9-2.7-43.5-3.1-64.9c3-0.8,6.1-1.2,9.3-1.2C1360.1,1439.7,1377,1457,1377,1478.4z"/> <line class="st10" x1="1341.8" y1="1046.1" x2="1658.2" y2="1047.7"/> <ellipse class="st9" cx="1496.5" cy="582" rx="63.3" ry="45.7"/> <ellipse class="st11" cx="1497.4" cy="582.9" rx="63.3" ry="45.7"/> <path class="st9" d="M1679.6,1494.9c-0.1,7.3-0.4,14.5-0.7,21.8c-1.6,0.2-3.2,0.3-4.9,0.3c-21.4,0-38.7-17.3-38.7-38.7 c0-21.4,17.3-38.7,38.7-38.7c1.8,0,3.6,0.1,5.3,0.4C1679.9,1458.1,1680,1476.4,1679.6,1494.9z"/> <path class="st12" d="M1512,1138.2h-13.5c-8.2,0-14.8-6.6-14.8-14.8v-56.2c0-1.7,1.3-3,3-3h25.4c1.7,0,3,1.3,3,3v68 C1515,1136.9,1513.6,1138.2,1512,1138.2z"/> <path d="M1587.2,1102.3l67.9,1.3c29.3,0.6,53.5-20.2,54.2-46.4l11-451.4c0.6-26.2-22.6-48-51.8-48.5l-67.9-1.3 c-29.3-0.6-53.5,20.2-54.2,46.4l-11,451.4C1534.8,1080,1558,1101.7,1587.2,1102.3z"/> <path d="M1412.5,1103.8l-67.9,1.3c-29.3,0.6-53.5-20.2-54.2-46.4l-11-451.4c-0.6-26.2,22.6-48,51.8-48.5l67.9-1.3 c29.3-0.6,53.5,20.2,54.2,46.4l11,451.4C1465,1081.5,1441.8,1103.3,1412.5,1103.8z"/> <path class="st13" d="M1506.4,601.3h-14.1c-22.7,0-41.1-18.4-41.1-41.1c0-0.1,0-3.8,0-9.9c0,0,0-0.4,0-0.4c0-8.8,0-25.9,0-37.6 c0-2.7,0.3-17.3,12-29.1c7.4-7.4,17.7-12,29.1-12h14.1c22.7,0,41.1,18.4,41.1,41.1v47.9C1547.5,582.9,1529.1,601.3,1506.4,601.3z"/> <linearGradient id="SVGID_1_" gradientUnits="userSpaceOnUse" x1="1491.8125" y1="1039.2285" x2="1509.4071" y2="1056.4437"> <stop offset="7.435898e-02" style="stop-color:#3E3E3C"/> <stop offset="0.1225" style="stop-color:#4B4B49"/> <stop offset="0.2114" style="stop-color:#6C6C6B"/> <stop offset="0.3313" style="stop-color:#A3A3A2"/> <stop offset="0.4762" style="stop-color:#EEEEEE"/> <stop offset="0.5077" style="stop-color:#FFFFFF"/> <stop offset="0.5293" style="stop-color:#F4F4F4"/> <stop offset="0.5667" style="stop-color:#E6E6E6"/> <stop offset="0.6262" style="stop-color:#B3B3B3"/> <stop offset="0.6976" style="stop-color:#7D7D7D"/> <stop offset="0.7674" style="stop-color:#505050"/> <stop offset="0.8341" style="stop-color:#2D2D2D"/> <stop offset="0.8967" style="stop-color:#141414"/> <stop offset="0.9537" style="stop-color:#050505"/> <stop offset="1" style="stop-color:#000000"/> </linearGradient> <rect x="1486.8" y="1039" class="st14" width="25.7" height="15.7"/> <rect x="1450.8" y="501.1" class="st15" width="96.7" height="45.7"/> <g> <g> <ellipse class="st13" cx="1630" cy="366.3" rx="44" ry="46.6"/> <ellipse class="st13" cx="1370" cy="365.5" rx="44" ry="46.6"/> </g> <path class="st16" d="M1502.8,524.8h-5.8c-69,0-124.9-55.9-124.9-124.9V281.9c0-69,55.9-124.9,124.9-124.9h5.8 c69,0,124.9,55.9,124.9,124.9V400C1627.6,468.9,1571.7,524.8,1502.8,524.8z"/> <path class="st17" d="M1507.5,412.9h-13.1c-4.8,0-8.6-3.9-8.6-8.6v-56.1c0-4.8,3.9-8.6,8.6-8.6h13.1c4.8,0,8.6,3.9,8.6,8.6v56.1 C1516.1,409.1,1512.2,412.9,1507.5,412.9z"/> <path class="st18" d="M1489.2,321.5c1.1-0.9,5.4-4.5,12-4.5c6.6,0,10.9,3.6,12,4.5"/> <path class="st17" d="M1553.4,443.5H1449c-1.4,0-2.5-1.1-2.5-2.5v-3.8c0-1.4,1.1-2.5,2.5-2.5h104.4c1.4,0,2.5,1.1,2.5,2.5v3.8 C1556,442.3,1554.8,443.5,1553.4,443.5z"/> <line class="st18" x1="1600.2" y1="320.1" x2="1630.1" y2="320.1"/> <line class="st18" x1="1401.6" y1="316.6" x2="1373.5" y2="316.6"/> </g> <path class="st0" d="M1636.6,256.8c1.4-6.3,2.2-12.7,2.2-19.3c0-60.2-62.2-109-138.9-109c-76.7,0-138.9,48.8-138.9,109 c0,6.6,0.8,13.1,2.2,19.3H1636.6z"/> <path class="st16" d="M1505,202.9l-46.2,56.6c-0.2,0.3-0.2,0.6,0.2,0.6l62.7,3.8c0.3,0,0.5-0.3,0.5-0.6l-16.5-60.4 C1505.5,202.7,1505.1,202.7,1505,202.9z"/> <ellipse class="st19" cx="1377.9" cy="736.7" rx="9.7" ry="8.7"/> <polygon class="st20" points="1361.2,586.4 1336.6,658.3 1405.1,666.9 1336.6,735.4 1415.6,917 1350.6,735.4 1420.9,660 1343.6,653.2 "/> <ellipse transform="matrix(0.9813 -0.1924 0.1924 0.9813 -83.1153 267.669)" class="st19" cx="1336.6" cy="561.8" rx="14.1" ry="2.6"/> <polygon class="st20" points="1633.4,576.7 1658,657 1589.4,666.6 1658,743.1 1578.9,945.8 1643.9,743.1 1573.6,658.9 1650.9,651.3 "/> <ellipse transform="matrix(0.1924 -0.9813 0.9813 0.1924 801.4875 2069.2988)" class="st19" cx="1658" cy="547.7" rx="2.6" ry="14.1"/> <ellipse class="st19" cx="1615.1" cy="728.9" rx="9.7" ry="8.7"/> </g> <linearGradient id="SVGID_2_" gradientUnits="userSpaceOnUse" x1="1415.7408" y1="289.7408" x2="1477.2592" y2="351.2592"> <stop offset="0" style="stop-color:#FFFFFF"/> <stop offset="7.380247e-03" style="stop-color:#F6F6F6"/> <stop offset="4.767627e-02" style="stop-color:#C8C8C8"/> <stop offset="9.308982e-02" style="stop-color:#9D9D9D"/> <stop offset="0.1419" style="stop-color:#777777"/> <stop offset="0.195" style="stop-color:#575757"/> <stop offset="0.2537" style="stop-color:#3B3B3B"/> <stop offset="0.32" style="stop-color:#252525"/> <stop offset="0.3974" style="stop-color:#141414"/> <stop offset="0.4931" style="stop-color:#090909"/> <stop offset="0.6274" style="stop-color:#020202"/> <stop offset="1" style="stop-color:#000000"/> </linearGradient> <circle class="st21" cx="1446.5" cy="320.5" r="43.5"/> <linearGradient id="SVGID_3_" gradientUnits="userSpaceOnUse" x1="1524.7408" y1="289.7408" x2="1586.2592" y2="351.2592"> <stop offset="0" style="stop-color:#FFFFFF"/> <stop offset="7.380247e-03" style="stop-color:#F6F6F6"/> <stop offset="4.767627e-02" style="stop-color:#C8C8C8"/> <stop offset="9.308982e-02" style="stop-color:#9D9D9D"/> <stop offset="0.1419" style="stop-color:#777777"/> <stop offset="0.195" style="stop-color:#575757"/> <stop offset="0.2537" style="stop-color:#3B3B3B"/> <stop offset="0.32" style="stop-color:#252525"/> <stop offset="0.3974" style="stop-color:#141414"/> <stop offset="0.4931" style="stop-color:#090909"/> <stop offset="0.6274" style="stop-color:#020202"/> <stop offset="1" style="stop-color:#000000"/> </linearGradient> <circle class="st22" cx="1555.5" cy="320.5" r="43.5"/> </g> </svg>