<svg width="103" height="39" xmlns="http://www.w3.org/2000/svg" xml:space="preserve" version="1.1">

 <g>
  <title>Layer 1</title>
  <g id="Layer_1"/>
  <g id="svg_1">
   <g id="svg_2">
    <path id="svg_3" fill="#666766" d="m17.6,36.5c0,-1.2 0.9,-2.4 2.2,-2.4c0.5,0 0.9,0.2 1.1,0.5l0.2,-0.5l0.5,0l-0.4,1.5l-0.4,0c-0.1,-0.9 -0.4,-1.1 -0.9,-1.1c-1,0 -1.4,1.4 -1.4,2.1c0,0.8 0.4,1.1 0.9,1.1c0.6,0 1,-0.5 1.3,-1.2l0.4,0.1c-0.3,0.8 -0.8,1.5 -1.8,1.5c-1.2,0.1 -1.7,-0.6 -1.7,-1.6z" class="st0"/>
    <path id="svg_4" fill="#666766" d="m24.3,36.4c0,0.9 -0.7,1.7 -1.6,1.7c-0.7,0 -1.1,-0.5 -1.1,-1.1c0,-0.9 0.7,-1.7 1.6,-1.7c0.7,0 1.1,0.5 1.1,1.1zm-1.1,-0.8c-0.6,0 -0.9,1.1 -0.9,1.7c0,0.4 0.2,0.5 0.4,0.5c0.6,0 0.9,-1.1 0.9,-1.7c0,-0.3 -0.1,-0.5 -0.4,-0.5z" class="st0"/>
    <path id="svg_5" fill="#666766" d="m28.4,37.6c0,-0.6 0.4,-1.2 0.4,-1.6c0,-0.1 -0.1,-0.2 -0.2,-0.2c-0.3,0 -0.8,0.4 -1.2,2.3l-0.7,0l0.4,-1.6c0.1,-0.2 0.1,-0.3 0.1,-0.4c0,-0.1 0,-0.3 -0.2,-0.3c-0.3,0 -0.8,0.4 -1.3,2.3l-0.7,0l0.5,-1.9c0.1,-0.3 0.1,-0.4 0,-0.4c-0.1,0 -0.3,0.3 -0.5,0.6l-0.3,-0.1c0.3,-0.6 0.6,-0.9 0.9,-0.9c0.3,0 0.4,0.2 0.4,0.6c0,0.2 0,0.4 -0.1,0.7l0,0c0.4,-0.8 0.8,-1.2 1.2,-1.2c0.3,0 0.5,0.2 0.5,0.6c0,0.2 0,0.4 -0.1,0.6l0,0c0.4,-0.8 0.8,-1.2 1.2,-1.2c0.3,0 0.5,0.3 0.5,0.6c0,0.5 -0.4,1.3 -0.4,1.6c0,0.1 0,0.1 0.1,0.1c0.1,0 0.2,-0.2 0.4,-0.6l0.3,0.1c-0.2,0.7 -0.6,1 -0.9,1c0,-0.1 -0.3,-0.4 -0.3,-0.7z" class="st0"/>
    <path id="svg_6" fill="#666766" d="m33.9,37.6c0,-0.6 0.4,-1.2 0.4,-1.6c0,-0.1 -0.1,-0.2 -0.2,-0.2c-0.3,0 -0.8,0.4 -1.2,2.3l-0.7,0l0.4,-1.6c0.1,-0.2 0.1,-0.3 0.1,-0.4c0,-0.1 0,-0.3 -0.2,-0.3c-0.3,0 -0.8,0.4 -1.3,2.3l-0.7,0l0.5,-1.9c0.1,-0.3 0.1,-0.4 0,-0.4c-0.1,0 -0.3,0.3 -0.5,0.6l-0.3,-0.1c0.3,-0.6 0.6,-0.9 0.9,-0.9c0.3,0 0.4,0.2 0.4,0.6c0,0.2 0,0.4 -0.1,0.7l0,0c0.4,-0.8 0.8,-1.2 1.2,-1.2c0.3,0 0.5,0.2 0.5,0.6c0,0.2 0,0.4 -0.1,0.6l0,0c0.4,-0.8 0.8,-1.2 1.2,-1.2c0.3,0 0.5,0.3 0.5,0.6c0,0.5 -0.4,1.3 -0.4,1.6c0,0.1 0,0.1 0.1,0.1c0.1,0 0.2,-0.2 0.4,-0.6l0.3,0.1c-0.2,0.7 -0.6,1 -0.9,1c-0.1,-0.1 -0.3,-0.4 -0.3,-0.7z" class="st0"/>
    <path id="svg_7" fill="#666766" d="m37.8,37.6c0,-0.1 0,-0.4 0.1,-0.7l0,0c-0.4,0.9 -0.8,1.2 -1.2,1.2c-0.3,0 -0.5,-0.3 -0.5,-0.6c0,-0.5 0.4,-1.3 0.4,-1.6c0,-0.1 0,-0.1 -0.1,-0.1c-0.1,0 -0.2,0.1 -0.4,0.6l-0.3,-0.1c0.2,-0.6 0.6,-0.9 1,-0.9c0.3,0 0.5,0.2 0.5,0.5c0,0.6 -0.4,1.2 -0.4,1.6c0,0.2 0.1,0.2 0.2,0.2c0.3,0 0.8,-0.4 1.2,-2.3l0.7,0l-0.5,1.8c0,0.2 -0.1,0.3 -0.1,0.3c0,0.1 0.1,0.2 0.1,0.2c0.1,0 0.3,-0.2 0.4,-0.6l0.3,0.1c-0.2,0.7 -0.6,1 -0.9,1c-0.3,0 -0.5,-0.2 -0.5,-0.6z" class="st0"/>
    <path id="svg_8" fill="#666766" d="m42.3,37.7c0.1,0 0.2,-0.2 0.4,-0.6l0.3,0.1c-0.2,0.7 -0.6,1 -0.9,1c-0.3,0 -0.5,-0.2 -0.5,-0.6c0,-0.6 0.4,-1.2 0.4,-1.6c0,-0.1 -0.1,-0.2 -0.2,-0.2c-0.3,0 -0.8,0.4 -1.3,2.3l-0.7,0l0.5,-1.9c0.1,-0.3 0.1,-0.4 0,-0.4c-0.1,0 -0.3,0.3 -0.5,0.6l-0.3,-0.1c0.3,-0.6 0.6,-0.9 0.9,-0.9c0.3,0 0.4,0.2 0.4,0.6c0,0.2 0,0.4 -0.1,0.7l0,0c0.4,-0.8 0.8,-1.2 1.2,-1.2c0.3,0 0.5,0.3 0.5,0.6c0,0.5 -0.4,1.3 -0.4,1.6c0.2,-0.1 0.2,0 0.3,0z" class="st0"/>
    <path id="svg_9" fill="#666766" d="m44.5,37.5c0,0.1 0,0.1 0.1,0.1c0.1,0 0.2,-0.2 0.4,-0.6l0.3,0.1c-0.2,0.7 -0.6,1 -0.9,1c-0.3,0 -0.5,-0.2 -0.5,-0.6c0,-0.6 0.5,-1.4 0.5,-1.7c0,-0.1 0,-0.1 -0.1,-0.1c-0.2,0 -0.3,0.3 -0.5,0.6l-0.3,-0.1c0.3,-0.6 0.6,-0.9 1,-0.9c0.3,0 0.5,0.2 0.5,0.6c-0.1,0.5 -0.5,1.3 -0.5,1.6zm0.2,-2.6c-0.2,0 -0.4,-0.1 -0.4,-0.4c0,-0.2 0.2,-0.5 0.5,-0.5c0.2,0 0.4,0.1 0.4,0.4c0,0.2 -0.1,0.5 -0.5,0.5z" class="st0"/>
    <path id="svg_10" fill="#666766" d="m47.1,35.8l-0.4,1.3c0,0.1 -0.1,0.3 -0.1,0.4c0,0.2 0.1,0.2 0.2,0.2c0.2,0 0.4,-0.3 0.6,-0.6l0.3,0.1c-0.3,0.8 -0.7,1 -1.1,1c-0.4,0 -0.7,-0.2 -0.7,-0.6c0,-0.2 0.1,-0.4 0.1,-0.6l0.3,-1.2l-0.5,0l0.1,-0.4l0.5,0l0.2,-0.7l0.7,-0.1l-0.2,0.8l0.9,0l-0.1,0.4l-0.8,0z" class="st0"/>
    <path id="svg_11" fill="#666766" d="m49.7,35.8c0,0.5 -0.3,1.1 -0.3,1.4c0,0.1 0.1,0.2 0.2,0.2c0.3,0 0.7,-0.4 1.2,-2.1l0.7,0l-0.5,2.3c-0.3,1.1 -0.9,1.5 -1.6,1.5c-0.4,0 -0.9,-0.1 -0.9,-0.6c0,-0.2 0.1,-0.4 0.4,-0.4c0.2,0 0.4,0.2 0.3,0.4c0,0.1 -0.1,0.2 -0.1,0.3c0.1,0 0.2,0 0.3,0c0.5,0 0.8,-0.4 1,-1.2l0.1,-0.5l0,0c-0.5,0.6 -0.9,0.9 -1.2,0.9c-0.4,0 -0.6,-0.3 -0.6,-0.6c0,-0.5 0.4,-1.1 0.4,-1.4c0,-0.1 0,-0.1 -0.1,-0.1c-0.1,0 -0.3,0.2 -0.4,0.6l-0.3,-0.1c0.3,-0.6 0.6,-0.9 1,-0.9c0.2,-0.2 0.4,0 0.4,0.3z" class="st0"/>
    <path id="svg_12" fill="#666766" d="m52.9,37.6l0.6,0l0.7,-3l-0.6,0l0.1,-0.4l1.9,0c1,0 1.3,0.4 1.3,0.9c0,0.5 -0.4,1 -1.3,1.1l0,0c0.5,0.1 0.7,0.3 0.7,0.7c0,0.2 -0.1,0.4 -0.1,0.6c0,0.2 0.1,0.2 0.2,0.2c0.1,0 0.2,0 0.3,-0.2l0.2,0.2c-0.2,0.2 -0.5,0.4 -0.8,0.4c-0.4,0 -0.7,-0.2 -0.7,-0.6c0,-0.3 0.1,-0.6 0.1,-0.9c0,-0.2 -0.1,-0.3 -0.5,-0.3l-0.5,0l-0.3,1.3l0.6,0l-0.1,0.4l-1.9,0l0.1,-0.4zm2.3,-1.6c0.3,0 0.6,-0.1 0.7,-0.2c0.1,-0.1 0.2,-0.4 0.2,-0.6c0,-0.3 -0.2,-0.5 -0.6,-0.5l-0.5,0l-0.3,1.3l0.5,0z" class="st0"/>
    <path id="svg_13" fill="#666766" d="m58.2,37c0,0 0,0.1 0,0.1c0,0.5 0.3,0.6 0.6,0.6c0.3,0 0.6,-0.2 0.8,-0.5l0.2,0.2c-0.3,0.4 -0.7,0.8 -1.3,0.8c-0.6,0 -1,-0.4 -1,-1.1c0,-0.9 0.8,-1.8 1.7,-1.8c0.5,0 0.8,0.3 0.8,0.6c0,0.6 -0.6,1 -1.8,1.1zm0,-0.3c0.8,-0.1 1.1,-0.4 1.1,-0.8c0,-0.2 -0.1,-0.3 -0.3,-0.3c-0.3,0 -0.6,0.6 -0.8,1.1z" class="st0"/>
    <path id="svg_14" fill="#666766" d="m61.5,38.2c-0.6,0 -1.1,-0.2 -1.1,-0.7c0,-0.2 0.2,-0.4 0.4,-0.4c0.2,0 0.3,0.2 0.3,0.3c0,0.1 -0.1,0.3 -0.1,0.3c0.1,0.1 0.3,0.2 0.5,0.2c0.3,0 0.5,-0.1 0.5,-0.4c0,-0.2 -0.2,-0.3 -0.5,-0.5c-0.3,-0.2 -0.7,-0.3 -0.7,-0.7c0,-0.6 0.6,-0.9 1.1,-0.9c0.6,0 1,0.3 1,0.6c0,0.2 -0.2,0.4 -0.4,0.4c-0.2,0 -0.3,-0.2 -0.3,-0.3c0,-0.1 0.1,-0.2 0.1,-0.3c-0.1,-0.1 -0.2,-0.1 -0.4,-0.1c-0.3,0 -0.5,0.1 -0.5,0.4c0,0.2 0.2,0.3 0.6,0.5c0.3,0.1 0.7,0.3 0.7,0.7c-0.1,0.5 -0.6,0.9 -1.2,0.9z" class="st0"/>
    <path id="svg_15" fill="#666766" d="m64.6,35.8l-0.4,1.3c0,0.1 -0.1,0.3 -0.1,0.4c0,0.2 0.1,0.2 0.2,0.2c0.2,0 0.4,-0.3 0.6,-0.6l0.3,0.1c-0.3,0.8 -0.7,1 -1.1,1c-0.4,0 -0.7,-0.2 -0.7,-0.6c0,-0.2 0.1,-0.4 0.1,-0.6l0.3,-1.2l-0.5,0l0.1,-0.4l0.5,0l0.2,-0.7l0.7,-0.1l-0.2,0.8l0.8,0l-0.1,0.4l-0.7,0z" class="st0"/>
    <path id="svg_16" fill="#666766" d="m68.2,37.2c0,0.2 -0.1,0.3 -0.1,0.3c0,0.1 0,0.2 0.1,0.2c0.1,0 0.3,-0.2 0.4,-0.6l0.3,0.1c-0.2,0.7 -0.6,1 -0.9,1c-0.3,0 -0.5,-0.2 -0.5,-0.5c0,0 0,-0.1 0,-0.1l0,0c-0.2,0.4 -0.6,0.7 -0.9,0.7c-0.5,0 -0.8,-0.4 -0.8,-0.9c0,-0.6 0.2,-1.1 0.6,-1.5c0.3,-0.3 0.6,-0.4 0.9,-0.4c0.3,0 0.5,0.2 0.6,0.5l0.1,-0.5l0.7,0l-0.5,1.7zm-0.4,-1c0,-0.3 -0.1,-0.5 -0.3,-0.5c-0.5,0 -0.9,1 -0.9,1.5c0,0.3 0.1,0.5 0.3,0.5c0.5,0 0.9,-1.1 0.9,-1.5z" class="st0"/>
    <path id="svg_17" fill="#666766" d="m71.4,37.6c0,-0.1 0,-0.4 0.1,-0.7l0,0c-0.4,0.9 -0.8,1.2 -1.2,1.2c-0.3,0 -0.5,-0.3 -0.5,-0.6c0,-0.5 0.4,-1.3 0.4,-1.6c0,-0.1 0,-0.1 -0.1,-0.1c-0.1,0 -0.2,0.1 -0.4,0.6l-0.3,-0.1c0.2,-0.6 0.6,-0.9 1,-0.9c0.3,0 0.5,0.2 0.5,0.5c0,0.6 -0.4,1.2 -0.4,1.6c0,0.2 0.1,0.2 0.2,0.2c0.3,0 0.8,-0.4 1.2,-2.3l0.7,0l-0.5,1.8c0,0.2 -0.1,0.3 -0.1,0.3c0,0.1 0.1,0.2 0.1,0.2c0.1,0 0.3,-0.2 0.4,-0.6l0.3,0.1c-0.2,0.7 -0.6,1 -0.9,1c-0.3,0 -0.5,-0.2 -0.5,-0.6z" class="st0"/>
    <path id="svg_18" fill="#666766" d="m74,36.2c0.1,-0.3 0.1,-0.4 0,-0.4c-0.1,0 -0.3,0.3 -0.5,0.6l-0.3,-0.1c0.3,-0.6 0.6,-0.9 0.9,-0.9c0.3,0 0.4,0.2 0.4,0.6c0,0.2 0,0.4 -0.1,0.6l0,0c0.3,-0.8 0.6,-1.2 1,-1.2c0.2,0 0.4,0.2 0.4,0.4c0,0.3 -0.2,0.5 -0.4,0.5c-0.2,0 -0.4,-0.1 -0.4,-0.4c-0.2,0.1 -0.6,0.6 -1,2.2l-0.7,0l0.7,-1.9z" class="st0"/>
    <path id="svg_19" fill="#666766" d="m78.5,37.2c0,0.2 -0.1,0.3 -0.1,0.3c0,0.1 0,0.2 0.1,0.2c0.1,0 0.3,-0.2 0.4,-0.6l0.3,0.1c-0.2,0.7 -0.6,1 -0.9,1c-0.3,0 -0.5,-0.2 -0.5,-0.5c0,0 0,-0.1 0,-0.1l0,0c-0.2,0.4 -0.6,0.7 -0.9,0.7c-0.5,0 -0.8,-0.4 -0.8,-0.9c0,-0.6 0.2,-1.1 0.6,-1.5c0.3,-0.3 0.6,-0.4 0.9,-0.4c0.3,0 0.5,0.2 0.6,0.5l0.1,-0.5l0.7,0l-0.5,1.7zm-0.4,-1c0,-0.3 -0.1,-0.5 -0.3,-0.5c-0.5,0 -0.9,1 -0.9,1.5c0,0.3 0.1,0.5 0.3,0.5c0.5,0 0.9,-1.1 0.9,-1.5z" class="st0"/>
    <path id="svg_20" fill="#666766" d="m82.4,37.7c0.1,0 0.2,-0.2 0.4,-0.6l0.3,0.1c-0.2,0.7 -0.6,1 -0.9,1c-0.3,0 -0.5,-0.2 -0.5,-0.6c0,-0.6 0.4,-1.2 0.4,-1.6c0,-0.1 -0.1,-0.2 -0.2,-0.2c-0.3,0 -0.8,0.4 -1.3,2.3l-0.7,0l0.5,-1.9c0.1,-0.3 0.1,-0.4 0,-0.4c-0.1,0 -0.3,0.3 -0.5,0.6l-0.3,-0.1c0.3,-0.6 0.6,-0.9 0.9,-0.9c0.3,0 0.4,0.2 0.4,0.6c0,0.2 0,0.4 -0.1,0.7l0,0c0.4,-0.8 0.8,-1.2 1.2,-1.2c0.3,0 0.5,0.3 0.5,0.6c0,0.5 -0.4,1.3 -0.4,1.6c0.2,-0.1 0.2,0 0.3,0z" class="st0"/>
    <path id="svg_21" fill="#666766" d="m84.8,35.8l-0.4,1.3c0,0.1 -0.1,0.3 -0.1,0.4c0,0.2 0.1,0.2 0.2,0.2c0.2,0 0.4,-0.3 0.6,-0.6l0.3,0.1c-0.3,0.8 -0.7,1 -1.1,1c-0.4,0 -0.7,-0.2 -0.7,-0.6c0,-0.2 0.1,-0.4 0.1,-0.6l0.3,-1.2l-0.5,0l0.1,-0.4l0.5,0l0.2,-0.7l0.7,-0.1l-0.2,0.8l0.8,0l-0.1,0.4l-0.7,0z" class="st0"/>
   </g>
   <path id="svg_22" fill="#666766" clip-rule="evenodd" fill-rule="evenodd" d="m83.6,23.6c0,0.1 0,0.1 0,0c-0.1,0 0,0.1 -0.1,0.1c0,0 0,0 -0.1,0c-0.1,0.1 -0.3,0.2 -0.4,0.3c-0.2,0 -0.3,0 -0.4,0c-0.1,0.6 -0.2,1.3 -0.3,1.7c0.9,0.2 1.5,0.3 2.4,0.4c0.1,-0.6 0.2,-1.1 0.2,-1.7c-0.2,-0.1 -0.4,-0.1 -0.6,-0.1c-0.1,0 -0.2,-0.1 -0.2,-0.1c-0.1,-0.2 0,-0.5 0.1,-0.6c0.1,-0.1 0.2,-0.1 0.3,-0.1c0.1,0 0.2,0.1 0.4,0.1c0.1,0 0.3,0.1 0.5,0.1c0.2,0 0.4,0 0.6,0c0.1,0 0.3,0.1 0.4,0.1c0.4,0 1,0.1 1.2,0.3c0.1,0.4 -0.3,0.6 -0.6,0.6c-0.2,0 -0.4,-0.1 -0.6,-0.1c-0.2,1.7 -0.5,3 -0.8,4.6c0.4,0.1 0.8,0.1 1.1,0.3c0,0.1 0.1,0.1 0.1,0.1c0,0.2 0,0.2 -0.1,0.3c-0.1,0.1 -0.3,0.2 -0.5,0.3c-0.3,-0.1 -0.7,-0.2 -1.2,-0.2c-0.6,-0.1 -1.1,-0.3 -1.6,-0.4c-0.4,-0.1 -0.1,-0.6 0,-0.8c0.2,0 0.3,0.1 0.6,0.1c0.1,-0.6 0.3,-1.2 0.4,-1.9c-0.8,-0.1 -1.7,-0.2 -2.4,-0.4c-0.2,0.6 -0.3,1.3 -0.4,2c0.2,0.1 0.4,0.1 0.6,0.2c0.1,0 0.1,0.1 0.2,0.1c0,0.1 0,0.2 0.1,0.3c0,0.1 -0.1,0.1 -0.1,0.3c-0.1,0 -0.2,0.2 -0.4,0.2c-0.2,0 -0.6,-0.1 -0.9,-0.2c-0.4,-0.1 -0.8,-0.2 -1.1,-0.2c-0.3,-0.1 -0.6,-0.1 -0.7,-0.3c0,-0.1 0,-0.2 0,-0.4c0,0 0.1,0 0.1,0c0,-0.2 0.2,-0.1 0.2,-0.2c0.2,0 0.4,0.1 0.7,0.1c0.2,-0.5 0.2,-1 0.3,-1.5c0.2,-1 0.4,-2 0.5,-3c-0.4,-0.1 -1,-0.2 -0.9,-0.8c0.1,-0.1 0.2,-0.2 0.3,-0.2c0.1,0 0.1,-0.1 0.2,-0.1c0.2,0 0.3,0.1 0.5,0.2c0.2,0 0.6,0.1 0.8,0.1c0.1,0 0.2,-0.1 0.3,0c0.1,0 0.2,0.1 0.4,0.2c0.3,0.1 0.6,0 0.8,0.1c0.1,0 0.1,0.1 0.2,0.1c-0.1,-0.2 -0.1,-0.1 -0.1,0z" class="st1"/>
   <path id="svg_23" fill="#666766" clip-rule="evenodd" fill-rule="evenodd" d="m93.2,26c-0.6,-0.1 -1.3,-0.3 -1.9,-0.3c-0.1,0.5 -0.2,1.1 -0.3,1.5c0.4,0 0.8,0.1 1.2,0.1c0.1,-0.3 0,-0.5 0.2,-0.7c0.2,-0.2 0.6,-0.1 0.8,0c0,0.1 0.1,0.1 0.1,0.2c0.1,0.5 -0.1,1.3 -0.2,2c0,0.1 -0.1,0 -0.1,0c0,0.1 -0.1,0.2 -0.1,0.3c0,0 -0.1,0 -0.1,0c0,0 0,0 -0.1,0c-0.1,0 -0.2,-0.1 -0.3,-0.1c-0.1,0 -0.2,-0.1 -0.2,-0.1c-0.1,-0.1 -0.1,-0.2 -0.2,-0.3c0,-0.2 0,-0.3 0.1,-0.5c-0.4,-0.1 -0.9,-0.2 -1.2,-0.4c-0.2,0.6 -0.3,1.2 -0.4,1.9c0.9,0.2 1.5,0.3 2.3,0.4c0.1,-0.1 0.2,-0.4 0.4,-0.7c0.1,-0.1 0.1,-0.3 0.2,-0.4c0.1,-0.2 0.3,-0.2 0.5,-0.2c0.1,0 0.1,0 0.2,0.1c0,0 0.1,0 0.1,0c0.1,0 0.1,0.1 0.1,0.1c0,0.1 0.1,0.3 0.1,0.4c0,0.1 0,0.1 0,0.2c0,0.2 0,0.3 0,0.5c0,0.3 -0.1,0.5 -0.1,0.7c0,0 -0.1,0.1 -0.1,0.1c0,0.2 -0.2,0.3 -0.2,0.5c-0.1,0.1 -0.3,0.1 -0.6,0.1c-0.1,0 -0.3,-0.1 -0.5,-0.1c-0.7,-0.1 -1.5,-0.3 -2.3,-0.5c-0.6,-0.1 -1.2,-0.2 -1.8,-0.3c-0.3,0 -0.5,0 -0.7,-0.2c-0.1,-0.2 0,-0.4 0.1,-0.6c0.1,-0.2 0.1,-0.2 0.4,-0.2c0.1,0 0.3,-0.1 0.4,0c0.1,-0.5 0.2,-1 0.3,-1.5c0.2,-0.9 0.2,-1.8 0.3,-2.8c-0.2,-0.1 -0.5,0 -0.6,-0.2c-0.1,-0.1 -0.1,-0.6 0.1,-0.8c0.2,-0.1 0.5,-0.2 0.8,-0.1c0.4,0.1 0.8,0.2 1.3,0.4c0.4,0.1 0.9,0.1 1.3,0.2c0.6,0.2 1.3,0.2 1.8,0.3c0.1,0 0.1,0.1 0.2,0c0,0 0,0.1 0.1,0.1c0,0 0.1,0.1 0.1,0c0,0.1 0.1,0.1 0.1,0.1c0,0.1 0.1,0.2 0.1,0.3c0,0 0.1,0.1 0.1,0.1c0,0.5 -0.2,0.8 -0.3,1.3c-0.1,0.2 -0.3,0.2 -0.5,0.3c-0.2,0 -0.5,-0.1 -0.6,-0.3c-0.1,-0.2 -0.2,-0.6 -0.4,-0.9z" class="st1"/>
   <path id="svg_24" fill="#666766" clip-rule="evenodd" fill-rule="evenodd" d="m59.3,20.9c0,0.1 0.1,0.2 0.1,0.2c0,0.3 -0.1,0.5 -0.3,0.7c-0.3,0 -0.5,0.2 -0.8,0.4c-0.4,0.4 -0.9,0.9 -1.3,1.3c0.2,0.2 0.4,0.5 0.6,0.8c0.2,0.2 0.3,0.4 0.5,0.6c0.3,0.4 0.6,0.9 0.9,1.3c0.3,0 0.4,0 0.7,0c0,0 0,0.1 0.1,0.1c-0.1,0.1 0,0.2 0.1,0.2c0,0.2 -0.1,0.3 -0.1,0.4c-0.1,0.1 -0.2,0.2 -0.2,0.2c-0.6,0 -1.6,0 -2.3,0c-0.2,0 -0.5,0 -0.7,0c-0.1,-0.1 -0.2,-0.3 -0.3,-0.3c-0.1,-0.4 0.3,-0.7 0.8,-0.6c-0.4,-0.6 -0.7,-1.2 -1.2,-1.7c-0.3,0.3 -0.6,0.6 -0.9,0.9c0,0.3 0,0.6 0,0.9c0.3,0.1 0.6,0 0.9,0.1c0.1,0.4 -0.1,0.6 -0.3,0.8c-0.5,0.2 -1.1,-0.1 -1.7,-0.1c-0.4,0 -0.8,0.1 -1.1,0c-0.3,-0.3 0,-0.7 0.2,-0.8c0.2,0 0.4,0 0.6,-0.1c0.1,-1.6 0.1,-2.9 0,-4.4c-0.2,0 -0.6,0 -0.8,0c-0.4,-0.2 -0.2,-0.9 0.3,-0.9c0.2,0 0.4,0 0.6,0c0.1,0 0.2,0 0.3,0c0.1,0 0.2,0.1 0.3,0.1c0.4,0 0.9,0 1.3,0c0.2,0 0.4,0.1 0.5,0.2c0,0.1 0,0.2 0,0.2c-0.1,0.1 -0.1,0.1 -0.1,0.2c-0.1,0.3 -0.5,0.2 -0.8,0.3c0,0.6 -0.1,1.3 -0.1,1.9c0.8,-0.6 1.5,-1.3 2.2,-2c-0.1,-0.1 -0.3,0 -0.5,0c-0.1,0 -0.2,-0.2 -0.2,-0.2c-0.1,-0.3 0.1,-0.7 0.4,-0.7c0.1,0 0.4,0 0.6,0c0.2,0 0.5,0 0.9,0c0.4,0 0.6,0 0.8,0z" class="st1"/>
   <path id="svg_25" fill="#666766" clip-rule="evenodd" fill-rule="evenodd" d="m63.6,22.1c0,0.6 -0.1,1.1 -0.1,1.6c-0.1,0.9 -0.2,1.9 -0.3,2.9c0.4,0.1 0.9,0 1.1,0.2c0,0.1 0,0.2 0.1,0.2c0,0 -0.1,0.1 0,0.1c0,0.1 -0.1,0.1 -0.2,0.2c-0.1,0.1 -0.2,0.2 -0.3,0.2c-0.3,0 -0.7,0 -1,-0.1c-0.6,0 -1.3,-0.1 -1.8,-0.2c0,0 -0.1,-0.1 -0.1,-0.1c0,-0.2 0,-0.4 0.1,-0.6c0.2,-0.2 0.5,-0.1 0.7,-0.1c0.2,-1.4 0.3,-3.1 0.2,-4.5c-0.2,-0.1 -0.4,0 -0.5,-0.1c-0.1,0 -0.2,-0.2 -0.3,-0.2c0,-0.3 0.1,-0.7 0.5,-0.7c0.2,0 0.4,0.1 0.6,0.1c0.3,0 0.6,0.1 0.8,-0.1c0.2,0 0.3,0.1 0.5,0.1c0.4,0.1 0.9,-0.1 1.1,0.2c0,0.1 0,0.2 0.1,0.2c0,0.1 0,0.1 -0.1,0.2c-0.1,0.1 0,0.1 -0.1,0.1c-0.1,0.1 -0.2,0.2 -0.2,0.2c-0.4,0.2 -0.6,0.2 -0.8,0.2z" class="st1"/>
   <path id="svg_26" fill="#666766" clip-rule="evenodd" fill-rule="evenodd" d="m43.3,26.1c0.2,0 0.3,-0.1 0.6,0c0,-1.5 0.2,-2.9 0.1,-4.4c-0.6,0.1 -1,-0.2 -0.8,-0.7c0.1,-0.1 0.5,-0.2 0.6,-0.1c0.5,0 1.1,0 1.6,0c0.3,0 0.6,0 0.8,0.1c0.2,-0.2 0.6,0 0.5,0.3c0,0 0,0.1 -0.1,0.1c0,0.1 -0.1,0.2 -0.2,0.3c-0.2,0.1 -0.4,0.1 -0.6,0.1c-0.1,1.5 -0.2,3 -0.1,4.4c0.6,0 1.2,0 1.8,-0.1c0.1,-0.3 0.2,-0.8 0.2,-1.1c0.2,-0.1 0.3,-0.3 0.5,-0.3c0.2,0 0.3,0.2 0.5,0.1c0.1,0.2 0.2,0.6 0.2,1c0,0.4 0,0.7 0,1c0,0.1 0,0.2 -0.1,0.3c-0.1,0 -0.3,0.1 -0.3,0.2c-0.1,0 -0.2,0 -0.4,0c-0.1,0 -0.1,-0.1 -0.2,-0.1c-0.3,-0.1 -0.8,0 -1.1,0.1c-0.8,0.1 -1.6,0 -2.5,0c-0.2,0 -0.3,0 -0.5,0c-0.3,0 -0.6,-0.1 -0.7,-0.2c0,-0.4 0,-0.8 0.2,-1z" class="st1"/>
   <path id="svg_27" fill="#666766" clip-rule="evenodd" fill-rule="evenodd" d="m42.3,21c0.1,0.1 0,0.3 0,0.4c-0.2,0.3 -0.6,0.3 -0.9,0.3c0,0.3 0.1,0.7 0.1,1c0,0.7 0.1,1.5 0,2.2c-0.1,0.9 -0.3,1.4 -0.9,1.8c-0.1,0.1 -0.2,0.2 -0.4,0.2c-0.4,0.2 -0.9,0.4 -1.4,0.4c-0.6,0 -1,-0.1 -1.4,-0.3c-0.6,-0.3 -1,-0.8 -1.1,-1.6c-0.4,-1 -0.3,-2.4 -0.3,-3.6c-0.4,0 -0.9,0 -0.9,-0.4c0,-0.2 0.2,-0.3 0.3,-0.5c1,0 1.8,0 2.8,0c0,0.1 0.2,0.1 0.3,0.2c0.1,0.5 -0.4,0.6 -0.9,0.7c0,0.9 -0.1,1.7 0,2.5c0.1,0.5 0.2,1.1 0.5,1.4c0.2,0.2 0.4,0.3 0.6,0.5c0.1,0.1 0.2,0.1 0.4,0.1c0.2,0 0.5,-0.1 0.7,-0.2c0.1,0 0.2,0 0.2,0c0.3,-0.2 0.4,-0.7 0.4,-1.1c0,-0.2 0,-0.5 0,-0.7c0,-0.9 -0.1,-1.7 -0.1,-2.6c-0.4,0 -0.8,-0.1 -0.9,-0.4c-0.1,-0.3 0.2,-0.5 0.5,-0.5c0.2,0 0.4,0.1 0.7,0.1c0.5,0 1,-0.1 1.5,0c0,0.1 0,0.1 0.2,0.1z" class="st1"/>
   <path id="svg_28" fill="#666766" clip-rule="evenodd" fill-rule="evenodd" d="m99,26.2c0,0.1 0,0.2 0,0.2c-0.1,0.2 0,0.6 0.1,0.8c0.5,1.4 0.9,2.8 1.5,4.1c0.1,-0.3 0.1,-0.6 0.2,-0.9c0,-0.2 0,-0.3 0.1,-0.5c0,-0.1 0.1,-0.2 0.1,-0.4c0.1,-0.5 0.2,-1 0.3,-1.5c0,-0.3 0,-0.5 0,-0.8c-0.1,0 -0.3,0 -0.4,0c-0.2,-0.1 -0.3,-0.3 -0.4,-0.4c0,-0.2 0.1,-0.4 0.1,-0.4c0.1,0 0.2,-0.1 0.4,-0.1c0.1,0 0.2,0.1 0.4,0.1c0.4,0.1 0.9,0.2 1.3,0.3c0.3,0.1 0.5,0.3 0.5,0.5c0,0.1 -0.2,0.3 -0.3,0.3c-0.1,0 -0.3,-0.1 -0.4,-0.1c-0.1,0.8 -0.2,1.5 -0.3,2.3c-0.2,0.9 -0.3,1.8 -0.6,2.6c-0.1,0.1 -0.2,0.1 -0.2,0.2c-0.1,0 -0.2,0 -0.3,0.1c-0.2,0 -0.5,-0.1 -0.7,-0.1c-0.2,0 -0.3,0 -0.4,-0.1c-0.2,-0.1 -0.3,-0.1 -0.5,-0.2c-0.2,-0.4 -0.3,-0.9 -0.4,-1.4c-0.3,-0.9 -0.6,-1.8 -0.9,-2.7c-0.1,-0.2 -0.2,-0.5 -0.3,-0.7c-0.4,1.2 -0.4,2.2 -0.7,3.4c0.1,0.1 0.3,0.1 0.5,0.2c0.1,0.1 0.1,0.2 0.2,0.3c-0.1,0 0,0.1 0,0.2c-0.1,0 0,0.1 0,0.2c0,0 -0.1,0 -0.1,0c0,0.1 -0.1,0.1 -0.1,0.2c-0.2,0.1 -0.4,0 -0.7,-0.1c-0.5,-0.2 -1.1,-0.2 -1.5,-0.5c0,-0.1 -0.1,-0.2 0,-0.4c0,-0.2 0.2,-0.4 0.4,-0.4c0.1,0 0.3,0.1 0.5,0.1c0.2,-0.6 0.3,-1.2 0.4,-1.9c0.1,-0.8 0.4,-1.6 0.5,-2.4c-0.2,-0.1 -0.5,-0.1 -0.6,-0.1c0,-0.1 -0.1,-0.2 -0.2,-0.2c0,-0.3 0.2,-0.7 0.4,-0.7c0.1,0 0.3,0 0.4,0c0.6,0.1 1.5,0.3 2,0.4c-0.5,0.4 -0.4,0.5 -0.3,0.5z" class="st1"/>
   <path id="svg_29" fill="#666766" clip-rule="evenodd" fill-rule="evenodd" d="m70.8,22.7c-0.3,-0.1 -0.7,-0.1 -1,-0.2c-0.1,1.4 -0.4,2.8 -0.6,4.3c0,0 0,0 0,0c0.2,0 0.5,0.1 0.7,0.1c0,0.1 0.1,0 0.2,0.1c0,0.1 0,0.2 0.1,0.2c0,0 -0.1,0 -0.1,0.1c0.1,0 0.1,0.3 0,0.3c-0.1,0.1 -0.2,0.3 -0.3,0.4c-0.2,0 -0.5,-0.1 -0.7,0c0,0 -0.1,0 -0.1,0c-0.4,-0.1 -0.9,-0.1 -1.4,-0.1c-0.3,0 -0.6,-0.1 -0.9,-0.1c-0.1,0 -0.2,0 -0.2,-0.1c-0.1,-0.1 -0.1,-0.5 0,-0.7c0.1,-0.1 0.1,-0.1 0.2,-0.2c0.3,0 0.6,-0.1 0.8,0c0.4,-1.4 0.3,-3.1 0.5,-4.4c-0.2,-0.1 -0.7,-0.1 -0.9,-0.1c-0.1,0.2 -0.2,0.3 -0.2,0.5c-0.1,0.2 -0.1,0.8 -0.3,0.8c0,0.2 -0.1,0.2 -0.2,0.2c-0.4,0 -0.7,-0.1 -0.8,-0.4c0.1,-0.4 0.1,-0.9 0.2,-1.4c0,-0.2 0.1,-0.5 0.2,-0.6c0,-0.1 0.1,-0.1 0.2,-0.1c0.2,0 0.4,-0.1 0.5,-0.1c0.4,0 0.8,0 1.2,0c0.5,0 1,0.1 1.5,0.1c0.8,0 1.5,0.3 2.2,0.3c0.1,0 0.1,0 0.2,0c0,0 0,0 0,0c0,0.1 0.1,0 0.2,0.1c0,0.1 0,0.2 0,0.3c0,0.1 0.1,0.1 0.1,0.2c0,0 0,0.2 -0.1,0.3c0,0.1 -0.1,0.2 -0.1,0.3c0,0.2 0,0.4 0,0.6c0,0 0,0 0,0c0,0.2 0.1,0.4 0.1,0.5c-0.1,0 -0.1,0 -0.1,0c0,0.1 0,0.1 0,0.2c0,0 0,0 -0.1,0c0,0.1 0,0.1 0,0.1c0,0 -0.1,0 -0.1,0c0,0 0,0 0,0.1c0,-0.1 -0.1,0 -0.2,0c-0.1,-0.1 -0.2,-0.1 -0.3,-0.2c0,0 -0.1,-0.1 -0.1,-0.2c-0.3,-0.3 -0.1,-0.9 -0.3,-1.2z" class="st1"/>
   <path id="svg_30" fill="#666766" clip-rule="evenodd" fill-rule="evenodd" d="m77.8,23.1c0.1,-0.2 0.1,-0.5 0.3,-0.7c0.3,0 0.6,0 0.7,0.3c0,0.1 0,0.3 0,0.4c-0.2,0.6 -0.2,1.4 -0.3,1.9c-0.1,0 -0.1,0 -0.1,-0.1c-0.1,0.1 -0.2,0.1 -0.4,0.2c0,0 -0.1,0 -0.1,-0.1c-0.3,0 -0.3,-0.3 -0.4,-0.4c0.1,-0.3 -0.2,-0.6 -0.4,-0.8c-0.1,-0.1 -0.1,-0.2 -0.2,-0.2c-0.2,-0.2 -0.5,-0.2 -0.7,-0.3c0,0 0,0.1 0,0.1c0,-0.1 -0.1,0 -0.1,0.1c-0.2,0.1 -0.4,0.1 -0.6,0.2c-0.2,0.1 -0.4,0.4 -0.6,0.6c-0.2,0.3 -0.4,0.6 -0.5,1c0,0.1 0,0.2 0,0.3c0,0.2 0,0.3 0,0.5c0,0.1 0,0.2 0,0.4c0.1,0.4 0.2,0.8 0.5,1c0,0.1 0,0.2 0,0.3c0.4,0.2 1.1,0.2 1.4,0c0.1,-0.1 0.3,-0.3 0.4,-0.4c0.2,-0.2 0.3,-0.4 0.4,-0.6c0.1,0 0.1,-0.1 0.1,-0.1c0.1,0 0.1,0 0.2,0c0.1,-0.1 0.1,-0.1 0.2,-0.1c0.1,0 0.2,0.1 0.3,0.1c0.1,0 0.1,0.1 0.2,0.2c0,0.1 0,0.2 0,0.3c0,0.1 -0.1,0.2 -0.1,0.3c-0.1,0.3 -0.3,0.5 -0.5,0.7c-0.2,0.3 -0.5,0.6 -0.8,0.7c-0.2,0.1 -0.4,0.1 -0.6,0.2c-0.4,0.1 -0.7,0.1 -1.2,0c-0.2,0 -0.3,-0.1 -0.5,-0.2c-0.7,-0.2 -1.3,-0.6 -1.6,-1.2c-0.2,-0.1 -0.2,-0.5 -0.4,-0.7c-0.1,-0.3 -0.2,-0.6 -0.1,-0.9c0,0 0,0 0,0.1c0,-0.2 0,-0.5 0.1,-0.7c0,0 0,0 0,0c0,-0.1 0.1,-0.2 0.1,-0.4c0,0 0,0 0,0c0,0 0,-0.1 0,-0.1c0.1,-0.3 0.2,-0.6 0.4,-0.9c0,0 0.1,-0.1 0.1,-0.1c0.1,-0.1 0.1,-0.3 0.2,-0.4c0,0 0,0 0,0c0.2,-0.4 0.6,-0.5 0.9,-0.8c0,0 0.1,-0.1 0.1,0c0.5,-0.4 1.2,-0.6 2,-0.3c0.1,0 0.3,0.2 0.5,0.2c0.4,-0.2 0.8,0.1 1.1,0.4z" class="st1"/>
   <path id="svg_31" fill="#666766" clip-rule="evenodd" fill-rule="evenodd" d="m25.1,22.3c0,-0.2 0.1,-0.2 0.2,-0.4c0.1,0 0.1,0 0.2,0c0,-0.1 0.1,-0.1 0.1,-0.2c0.2,-0.1 0.6,0 0.8,0.2c0.1,0.4 0.2,0.9 0.2,1.4c0,0.2 0,0.4 -0.1,0.5c-0.2,0 -0.6,0.2 -0.8,0.1c-0.1,0 -0.1,-0.1 -0.2,-0.1c-0.2,-0.3 -0.4,-0.5 -0.8,-0.7c-0.2,-0.1 -0.4,-0.3 -0.6,-0.3c-0.4,0 -0.7,0.2 -0.8,0.4c-0.1,0.1 -0.2,0.4 -0.1,0.6c0.3,0.6 1,0.7 1.7,0.8c0,0 0.1,0 0.1,0c0.1,0 0.1,0 0.2,0.1c0.3,0 0.4,0.1 0.7,0.1c0.2,0.1 0.5,0.2 0.7,0.4c0.2,0.1 0.3,0.3 0.4,0.4c0.1,0.2 0.2,0.4 0.3,0.6c0.1,0.6 -0.1,1.1 -0.3,1.5c-0.1,0.1 -0.2,0.2 -0.2,0.3c-0.2,0.2 -0.4,0.4 -0.8,0.5c-0.3,0.1 -0.6,0.2 -0.9,0.3c0,0 -0.1,0 -0.2,0c-0.8,0 -1.4,-0.3 -1.9,-0.7c0,0.1 0.1,0.2 0.2,0.2c0,0.1 0.1,0.1 0.1,0.2c-0.1,0 -0.1,0.1 -0.1,0.2c-0.2,0.1 -0.4,0.1 -0.7,0.1c-0.1,0 -0.2,-0.1 -0.3,-0.2c-0.1,-0.3 -0.1,-1 -0.2,-1.4c0,-0.1 -0.1,-0.2 -0.1,-0.3c0,-0.1 0.1,-0.2 0.2,-0.3c0.2,0 0.4,-0.1 0.6,0c0.2,0.1 0.4,0.1 0.6,0.3c0.3,0.4 0.9,1.2 1.6,1.1c0.3,0 0.4,-0.1 0.7,-0.2c0.1,-0.3 0.3,-0.6 0.3,-0.9c0,-0.1 0,-0.3 -0.1,-0.4c-0.4,-0.4 -0.8,-0.5 -1.1,-0.5c-0.3,-0.1 -0.7,0 -0.9,-0.1c-0.3,-0.1 -0.6,-0.2 -0.9,-0.3c-0.3,-0.1 -0.6,-0.2 -0.8,-0.4c-0.2,-0.2 -0.6,-0.7 -0.6,-1.1c0,-0.2 0.1,-0.3 0.1,-0.6c0.1,-0.1 0.1,-0.2 0.2,-0.3c0.1,-0.3 0.3,-0.5 0.5,-0.7c0.1,-0.1 0.3,-0.3 0.4,-0.4c0.1,0 0.1,-0.1 0.2,-0.1c0.1,0 0.3,0 0.5,0c0.2,0 0.5,-0.1 0.7,0c0.3,0 0.7,0.1 1,0.3z" class="st1"/>
   <path id="svg_32" fill="#666766" clip-rule="evenodd" fill-rule="evenodd" d="m33.8,26.4c0,0 0,0.1 0,0c-0.1,0.1 0,0.1 -0.1,0.1c-0.1,0.2 -0.4,0.4 -0.7,0.6c-0.2,0.1 -0.3,0.2 -0.4,0.2c-0.1,0 -0.2,0 -0.2,0.1c-0.1,0 -0.2,0.1 -0.3,0c0,0 0,0 0,0c0,0 0,0 0,0c0,0 0,0 -0.1,0.1c-0.1,0 -0.1,0 -0.2,0c0,0 0,0 0,0c0,0 0,0.1 -0.1,0.1c0,0 0,0 0,0c0,0.1 -0.1,0 -0.1,0.1c0,0 0,0 0,0c-0.1,0 0,0 0,0c-0.3,0.1 -0.8,0 -1.2,-0.1c-0.4,0 -0.6,-0.2 -0.8,-0.3c0,0 0,0 0,-0.1c0,0 0,0 0,0c-0.1,-0.1 -0.2,-0.2 -0.3,-0.2c-0.2,0 -0.3,0 -0.4,-0.1c-0.5,-0.6 -1,-1.6 -1,-2.7c0,-0.3 0.1,-0.6 0.2,-1c0.1,-0.1 0.1,-0.2 0.2,-0.4c0,0 0.1,-0.1 0.1,-0.1c0.1,-0.2 0.2,-0.4 0.3,-0.6c0.2,-0.2 0.4,-0.5 0.7,-0.7c0,0 0.2,-0.1 0.3,-0.1c0.5,-0.3 1.1,-0.4 1.6,-0.4c0.4,0 0.8,0.1 1.1,0.2c0.2,0.2 0.5,0.2 0.6,0.4c0.8,0.5 1.5,1.4 1.5,2.6c0,0.4 -0.1,0.9 -0.2,1.2c0,0.1 -0.1,0.2 -0.1,0.3c0,0.1 0,0.1 -0.1,0.2c0,0 -0.1,0.1 -0.1,0.1c-0.1,0.3 -0.1,0.5 -0.2,0.5c0,0 0,0.1 0,0zm-1.4,0c0.1,-0.2 0.2,-0.5 0.2,-0.7c0,0 0,0 0,0c0,0 0,0 0,0c0.2,-1 0.1,-2.2 -0.4,-3.1c-0.2,-0.2 -0.4,-0.3 -0.5,-0.7c-0.3,0 -0.7,-0.1 -1,0.1c-0.1,0 -0.1,0.1 -0.2,0.2c-0.2,0.2 -0.2,0.3 -0.3,0.5c0,0.1 -0.1,0.2 -0.2,0.3c-0.2,0.4 -0.3,1 -0.3,1.5c0,0.5 0.2,0.8 0.4,1.1c0.2,0.4 0.5,0.6 0.8,0.9c0,0.1 0.1,0.1 0.1,0.2c0,0 0,0.1 0,0.2c0.5,0 1,-0.2 1.4,-0.4c0,0 0,0 0,-0.1z" class="st1"/>
   <g id="svg_33">
    <path id="svg_34" fill="#666766" d="m27.5,16l-0.5,0l-0.4,-2.8l-0.6,0.1l-0.1,-0.5l1.8,-0.2l0.1,0.5l-0.6,0.1l0.3,2.8z" class="st0"/>
    <path id="svg_35" fill="#666766" d="m29.1,14.3l0.2,1.4l-0.5,0.1l-0.4,-3.2l0.5,-0.1l0.2,1.3l0.7,-0.1l-0.2,-1.3l0.5,-0.1l0.4,3.2l-0.5,0.1l-0.2,-1.4l-0.7,0.1z" class="st0"/>
    <path id="svg_36" fill="#666766" d="m32.6,12.5l-1,0.1l0.1,0.9l0.7,-0.1l0.1,0.5l-0.8,0.1l0.1,1l1,-0.1l0.1,0.5l-1.5,0.2l-0.4,-3.2l1.5,-0.2l0.1,0.3z" class="st0"/>
    <path id="svg_37" fill="#666766" d="m35.6,11.8l0.2,2.4c0,0.3 0,0.5 -0.1,0.6c-0.1,0.1 -0.2,0.2 -0.5,0.2l-0.3,0l0,-0.5l0.1,0c0.2,0 0.3,-0.1 0.3,-0.4l-0.2,-2.4l0.5,0.1z" class="st0"/>
    <path id="svg_38" fill="#666766" d="m36.4,11.7l0.7,-0.1c0.6,0 1,0.2 1,0.8c0,0.4 -0.1,0.6 -0.5,0.8c0.2,0 0.3,0.1 0.4,0.2c0.2,0.1 0.3,0.3 0.3,0.6c0,0.6 -0.3,0.9 -0.9,1l-0.8,0.1l-0.2,-3.4zm0.8,1.3c0.3,0 0.5,-0.2 0.5,-0.5c0,-0.3 -0.2,-0.4 -0.5,-0.4l-0.2,0l0,0.9l0.2,0zm0.2,1.4c0.3,0 0.5,-0.2 0.5,-0.5c0,-0.3 -0.3,-0.5 -0.6,-0.5l-0.2,0l0.1,1l0.2,0z" class="st0"/>
    <path id="svg_39" fill="#666766" d="m39.8,11.5l0.2,2.5c0,0.3 0,0.5 -0.1,0.6c-0.1,0.1 -0.2,0.2 -0.5,0.2l-0.3,0l0,-0.5l0.1,0c0.2,0 0.3,-0.1 0.3,-0.4l-0.2,-2.4l0.5,0z" class="st0"/>
    <path id="svg_40" fill="#666766" d="m43.5,12.2c-0.1,-0.3 -0.2,-0.5 -0.5,-0.5c-0.2,0 -0.3,0.2 -0.3,0.3c0,0.2 0.1,0.3 0.4,0.5l0.2,0.2c0.3,0.2 0.4,0.3 0.5,0.4c0.1,0.2 0.2,0.4 0.2,0.6c0,0.5 -0.3,0.8 -0.9,0.9c-0.6,0 -0.9,-0.3 -1,-0.9l0.5,-0.2c0.1,0.4 0.3,0.6 0.5,0.6c0.2,0 0.4,-0.2 0.4,-0.4c0,-0.1 -0.1,-0.2 -0.1,-0.3c-0.1,-0.1 -0.2,-0.2 -0.4,-0.3c-0.2,-0.1 -0.3,-0.2 -0.3,-0.2c-0.1,-0.1 -0.2,-0.2 -0.3,-0.3c-0.1,-0.1 -0.2,-0.3 -0.2,-0.5c0,-0.5 0.3,-0.8 0.8,-0.8c0.5,0 0.8,0.2 1,0.8l-0.5,0.1z" class="st0"/>
    <path id="svg_41" fill="#666766" d="m44.8,11.5c0.1,-0.2 0.4,-0.3 0.7,-0.3c0.3,0 0.6,0.1 0.7,0.3c0.1,0.2 0.2,0.4 0.2,0.8l0,1.2c0,0.4 0,0.6 -0.2,0.8c-0.1,0.2 -0.4,0.3 -0.7,0.3c-0.3,0 -0.5,-0.1 -0.7,-0.3c-0.1,-0.2 -0.2,-0.4 -0.2,-0.8l0,-1.2c0.1,-0.4 0.1,-0.6 0.2,-0.8zm1.1,0.3c-0.1,-0.1 -0.2,-0.2 -0.3,-0.2c-0.1,0 -0.3,0.1 -0.3,0.2c0,0.1 -0.1,0.2 0,0.4l0,1.2c0,0.3 0,0.3 0.1,0.4c0.1,0.1 0.2,0.2 0.3,0.2c0.1,0 0.3,-0.1 0.3,-0.2c0,-0.1 0.1,-0.2 0,-0.4l0,-1.2c0,-0.3 -0.1,-0.3 -0.1,-0.4z" class="st0"/>
    <path id="svg_42" fill="#666766" d="m49,11.1l0,2.2c0,0.4 0,0.6 -0.2,0.8c-0.1,0.2 -0.4,0.3 -0.7,0.3c-0.3,0 -0.5,-0.1 -0.7,-0.3c-0.1,-0.2 -0.2,-0.4 -0.2,-0.8l0,-2.2l0.5,0l0,2.3c0,0.4 0.1,0.5 0.4,0.5c0.3,0 0.4,-0.2 0.3,-0.5l0,-2.3l0.6,0z" class="st0"/>
    <path id="svg_43" fill="#666766" d="m50.4,13.9l1,0l0,0.5l-1.5,0l0,-3.3l0.5,0l0,2.8z" class="st0"/>
    <path id="svg_44" fill="#666766" d="m53.9,14.3l-0.5,0l0,-3.3l1.5,0l0,0.5l-1,0l0,0.9l0.7,0l0,0.5l-0.7,0l0,1.4z" class="st0"/>
    <path id="svg_45" fill="#666766" d="m55.8,11.4c0.1,-0.2 0.4,-0.3 0.7,-0.3c0.3,0 0.5,0.1 0.7,0.3c0.1,0.2 0.2,0.4 0.2,0.8l0,1.2c0,0.4 -0.1,0.6 -0.2,0.8c-0.1,0.2 -0.4,0.3 -0.7,0.3c-0.3,0 -0.5,-0.1 -0.7,-0.3c-0.1,-0.2 -0.2,-0.4 -0.2,-0.8l0,-1.2c0,-0.4 0.1,-0.6 0.2,-0.8zm1,0.4c-0.1,-0.1 -0.2,-0.2 -0.3,-0.2c-0.1,0 -0.3,0.1 -0.3,0.2c-0.1,0.1 -0.1,0.2 -0.1,0.4l0,1.2c0,0.3 0,0.3 0.1,0.4c0.1,0.1 0.2,0.2 0.3,0.2c0.1,0 0.3,-0.1 0.3,-0.2c0.1,-0.1 0.1,-0.2 0.1,-0.4l0,-1.2c0,-0.3 0,-0.3 -0.1,-0.4z" class="st0"/>
    <path id="svg_46" fill="#666766" d="m60.1,11.3l-0.1,2.2c0,0.4 -0.1,0.6 -0.2,0.8c-0.1,0.2 -0.4,0.3 -0.7,0.3c-0.3,0 -0.5,-0.1 -0.7,-0.3c-0.1,-0.2 -0.2,-0.4 -0.2,-0.8l0.1,-2.2l0.5,0l-0.1,2.3c0,0.4 0.1,0.5 0.3,0.6c0.3,0 0.4,-0.1 0.4,-0.5l0.1,-2.3l0.6,-0.1z" class="st0"/>
    <path id="svg_47" fill="#666766" d="m62.8,14.7l-0.4,0l-0.7,-2.2l-0.1,2.2l-0.5,0l0.2,-3.3l0.5,0l0.7,2.1l0.1,-2l0.5,0l-0.3,3.2z" class="st0"/>
    <path id="svg_48" fill="#666766" d="m64,11.5l0.8,0.1c0.6,0 0.9,0.4 0.9,1.1l-0.1,1.2c0,0.7 -0.4,1 -1,0.9l-0.8,-0.1l0.2,-3.2zm0.5,2.8c0.4,0 0.5,-0.1 0.5,-0.7l0.1,-0.9c0,-0.5 -0.1,-0.7 -0.4,-0.7l-0.2,0l-0.2,2.3l0.2,0z" class="st0"/>
    <path id="svg_49" fill="#666766" d="m66.8,14.3l-0.2,0.7l-0.5,0l0.9,-3.2l0.7,0.1l0.4,3.3l-0.5,0l-0.1,-0.7l-0.7,-0.2zm0.5,-1.9l-0.4,1.4l0.5,0l-0.1,-1.4z" class="st0"/>
    <path id="svg_50" fill="#666766" d="m69.6,15.2l-0.5,0l0.3,-2.8l-0.6,-0.1l0,-0.5l1.8,0.2l0,0.5l-0.6,-0.1l-0.4,2.8z" class="st0"/>
    <path id="svg_51" fill="#666766" d="m71.4,15.4l-0.5,-0.1l0.4,-3.2l0.5,0.1l-0.4,3.2z" class="st0"/>
    <path id="svg_52" fill="#666766" d="m72.7,12.6c0.2,-0.2 0.4,-0.3 0.7,-0.2c0.3,0 0.5,0.2 0.7,0.4c0.1,0.2 0.1,0.4 0.1,0.8l-0.1,1.2c0,0.4 -0.1,0.6 -0.3,0.7c-0.2,0.2 -0.4,0.3 -0.7,0.2c-0.3,0 -0.5,-0.2 -0.7,-0.4c-0.1,-0.2 -0.1,-0.4 -0.1,-0.8l0.1,-1.2c0.1,-0.4 0.2,-0.6 0.3,-0.7zm1,0.4c0,-0.1 -0.2,-0.2 -0.3,-0.2c-0.1,0 -0.3,0 -0.3,0.1c-0.1,0.1 -0.1,0.2 -0.1,0.5l-0.1,1.2c0,0.3 0,0.3 0,0.4c0,0.1 0.2,0.2 0.3,0.2c0.1,0 0.3,0 0.3,-0.1c0.1,-0.1 0.1,-0.2 0.1,-0.4l0.1,-1.2c0.1,-0.3 0.1,-0.4 0,-0.5z" class="st0"/>
    <path id="svg_53" fill="#666766" d="m76.6,16.1l-0.5,-0.1l-0.6,-2.3l-0.3,2.1l-0.5,-0.1l0.4,-3.2l0.5,0.1l0.5,2.1l0.3,-2l0.5,0.1l-0.3,3.3z" class="st0"/>
   </g>
   <path id="svg_54" fill="#666766" d="m12.2,28c-0.2,-0.5 -0.7,-0.5 -1,-0.6c0,0 -0.1,0 -0.1,0c-0.3,0 -0.6,0 -0.9,0c0,0 0,0 -0.1,-0.1c0.1,0 0.2,-0.1 0.3,-0.1c0.6,-0.1 0.9,-0.8 0.9,-0.8l0.1,-0.2c0,0 0,0 0,-0.1l0.1,-0.3c0,0 0,-0.3 -0.4,-1c-0.2,-0.3 -0.7,-0.4 -1.2,-0.4c-0.4,0 -0.8,0 -1.3,0.2l-1.3,0.4c-0.3,0 -0.8,0.1 -1.2,0.3c0,0 -0.4,0 -0.6,0.2c-0.2,0.1 0,0.7 0,0.7s0.1,0.1 0.2,0.2c0.1,0 0,0 0,0c0.1,0 0.4,0 0.5,-0.1l1,4.2c0,0 0,0 0,0l-0.6,0.1l-0.1,0c0,0 -0.1,0.1 0,0.5c0.1,0.4 0.2,0.4 0.2,0.4l0.1,0c0,0 0.2,-0.1 0.2,-0.1c0,0.1 0.5,-0.1 0.5,-0.1s1.1,-0.1 1.6,-0.2c0.4,-0.1 1.4,-0.4 2.1,-0.7c0.7,-0.2 0.7,-0.6 1.1,-0.8c0.3,-0.2 0.1,-1.1 -0.1,-1.6zm-2.6,1.9l-0.3,0.1c-0.2,0 -0.3,-0.1 -0.3,-0.2l-0.3,-1.5l0.6,-0.1c0.6,-0.1 1,0 1.2,0.3c0,0.1 0.1,0.3 0.2,0.5c0,0.2 0,0.3 0,0.5c-0.1,0.1 -0.2,0.2 -0.3,0.4c0,0 -0.1,0.1 -0.2,0.1c-0.3,-0.2 -0.4,-0.1 -0.6,-0.1zm-0.6,-2.7l-0.6,0.1l-0.4,-1.3l0,-0.3c0,0 0,0 0.1,0l0.5,-0.1c0.4,-0.1 0.6,-0.1 0.8,0c0.1,0.1 0.3,0.3 0.3,0.6c0.1,0.4 0,0.7 -0.4,0.9c0,0 -0.1,0 -0.1,0.1c-0.1,0 -0.1,0 -0.2,0.1c0.1,-0.1 0,-0.1 0,-0.1z" class="st0"/>
   <path id="svg_55" fill="#666766" d="m17.8,28c0,-0.1 -0.1,-0.5 0,-0.7c0.1,-0.2 -0.2,-0.6 -0.2,-0.9c0,-0.3 -0.2,-0.7 -0.2,-0.7l-0.1,-0.3l-0.1,-0.6c0,0 0,-0.2 -0.1,-0.4l-0.1,-0.3c0,-0.1 0.1,-0.1 0.2,-0.2l0.3,-0.1c0,0 0,0 0,0c0,0 0,0 0,0l0.2,0l0,0c0,0 0,0 0,-0.1c0,-0.1 0,-0.6 0,-0.6s-0.1,-0.1 -0.2,-0.1l0,0l0,0c-0.1,0 -0.2,-0.1 -0.3,0c-0.3,0.1 -0.4,0.2 -0.8,0.2l0,0c-0.4,0.1 -1.9,0.3 -1.9,0.3s-0.2,-0.1 -0.3,0s0,0.5 0,0.8c0,0.1 0.1,0.2 0.2,0.3l0,0l0.1,0c0.1,0 0.1,0 0.2,0c0.3,0 0.6,-0.1 0.6,-0.1l0.1,0.1l0.3,1.7c0,0 0,0 0,0c0.1,0.3 0.4,1.8 0.4,2.1c0,0 0,0.1 0,0.1c0,0.1 -0.1,0.3 -0.2,0.4c-0.1,0.1 -0.2,0.1 -0.4,0.2c-0.3,0.1 -0.6,0 -0.8,-0.1c0.3,-0.2 0.4,-0.6 0.4,-1c0,-0.2 -0.1,-0.4 -0.2,-0.5c-0.1,-0.1 -0.2,-0.2 -0.3,-0.2c0,0 0,0 0,0c-0.1,0 -0.3,0 -0.4,0c-0.3,0.1 -0.5,0.2 -0.7,0.5c0,0 0,0.1 0,0.1c-0.1,0.2 -0.1,0.4 -0.1,0.7c0.1,0.7 0.7,1.2 1.6,1.3c0,0 0,0 0,0c0.3,0.2 0.8,0 1.3,-0.1c0.3,-0.1 0.5,-0.2 0.7,-0.3c0,0 0,0 0,0c0.4,-0.2 0.5,-0.3 0.5,-0.5c0.2,-0.2 0.3,-0.5 0.3,-0.8c0,-0.1 0,-0.1 0,-0.2z" class="st0"/>
   <path id="svg_56" fill="#666766" d="m4.5,31c0,-0.1 -0.2,-0.6 -0.1,-0.8c0,-0.2 0,-0.6 -0.1,-0.9c0,-0.3 -0.2,-0.7 -0.2,-0.7l-0.1,-0.4l-0.2,-0.6c0,0 0,0 -0.1,-0.2l0,-0.4c0,-0.1 0.1,-0.1 0.2,-0.2l0.3,-0.1c0,0 0,0 0,0c0,0 0,0 0,0l0.2,0l0,0c0,0 0.1,-0.3 0.1,-0.4c0,-0.1 -0.1,-0.4 -0.1,-0.4s-0.1,-0.1 -0.2,-0.1l0,0l0,0c-0.1,0 -0.2,-0.1 -0.3,0c-0.3,0.1 -0.3,0 -0.7,0.1l-0.2,0.2c-0.4,0.1 -1.9,0.4 -1.9,0.4s-0.2,-0.1 -0.3,0c-0.2,0.1 0,0.5 0,0.8c0,0.1 0.1,0.2 0.2,0.2l0,0l0.1,0c0.1,0 0.1,0 0.2,0c0.3,0 0.6,-0.1 0.6,-0.1l0.1,0.1l0.4,1.3l0,0.4c0.1,0.3 0.4,1.8 0.4,2c0,0 0,0.1 0,0.1c0,0.1 -0.1,0.3 -0.2,0.4c-0.1,0.1 -0.2,0.2 -0.4,0.2c-0.3,0.1 -0.6,0 -0.8,-0.1c0.3,-0.2 0.4,-0.6 0.3,-1c-0.1,-0.2 -0.1,-0.4 -0.3,-0.5c-0.1,-0.1 -0.2,-0.2 -0.3,-0.2c0,0 0,0 0,0c-0.1,0 -0.3,0 -0.4,0c-0.3,0.1 -0.3,0.1 -0.4,0.4c0,0 -0.2,0.2 -0.2,0.2c-0.1,0.4 -0.1,0.7 -0.1,0.9c0.2,0.7 0.8,1.1 1.6,1.2c0,0 0,0 0,0c0.3,0.1 0.8,0 1.3,-0.2c0.3,-0.1 0.5,-0.2 0.7,-0.3c0,0 0,0 0,0c0.4,-0.2 0.5,-0.3 0.5,-0.5c0.3,-0.3 0.4,-0.5 0.4,-0.8c0.1,-0.1 0,0 0,0z" class="st0"/>
  </g>
 </g>
</svg>