<svg width="90" height="23" xmlns="http://www.w3.org/2000/svg" xml:space="preserve" version="1.1">

 <g>
  <title>Layer 1</title>
  <g id="svg_1">
   <g id="svg_2">
    <path id="svg_3" fill="#666766" d="m18.2,0c0.79,0 1.53,0.19 2.22,0.58c0.7,0.38 1.3,0.95 1.83,1.69c0.52,0.75 0.94,1.67 1.25,2.76c0.31,1.1 0.46,2.37 0.46,3.82c0,1.45 -0.15,2.72 -0.46,3.82c-0.31,1.1 -0.72,2.02 -1.25,2.76c-0.52,0.74 -1.13,1.29 -1.83,1.64c-0.7,0.35 -1.44,0.53 -2.22,0.53c-0.79,0 -1.53,-0.18 -2.22,-0.53c-0.7,-0.35 -1.3,-0.9 -1.83,-1.64c-0.52,-0.75 -0.94,-1.67 -1.25,-2.76c-0.31,-1.1 -0.46,-2.37 -0.46,-3.82c0,-1.45 0.15,-2.72 0.46,-3.82c0.31,-1.1 0.72,-2.02 1.25,-2.76c0.52,-0.74 1.13,-1.31 1.83,-1.69c0.69,-0.38 1.44,-0.58 2.22,-0.58zm0,3.14c-0.41,0 -0.79,0.11 -1.15,0.33c-0.36,0.22 -0.68,0.53 -0.96,0.94c-0.28,0.41 -0.91,1.13 -0.91,4.44c0,3.31 0.64,4.04 0.91,4.44c0.28,0.41 0.6,0.72 0.96,0.94c0.36,0.22 0.75,0.33 1.15,0.33c0.41,0 0.79,-0.11 1.15,-0.33c0.36,-0.22 0.68,-0.53 0.96,-0.94c0.28,-0.41 0.91,-1.1 0.91,-4.44s-0.64,-4.04 -0.91,-4.44c-0.28,-0.41 -0.6,-0.72 -0.96,-0.94c-0.36,-0.22 -0.74,-0.33 -1.15,-0.33z" class="st0"/>
    <path id="svg_4" fill="#666766" d="m26.14,1.19c0,-0.15 -0.03,-0.28 -0.08,-0.38c-0.06,-0.1 -0.91,-0.17 -1.14,-0.21l0,-0.39l5.16,0l0,0.39c-0.21,0.02 -0.35,0.07 -0.42,0.15c-0.07,0.08 -0.1,0.17 -0.1,0.28c0,0.04 0.08,0.24 0.24,0.59c0.16,0.35 0.37,0.79 0.63,1.32c0.26,0.53 0.55,1.11 0.88,1.76c0.33,0.65 0.66,1.29 0.99,1.94c0.33,0.65 0.65,1.26 0.96,1.84c0.31,0.58 0.57,1.08 0.79,1.5l0,-8.78c0,-0.37 -0.13,-0.57 -0.39,-0.59l0,-0.39l4.09,0l0,0.39c-0.23,0.04 -1.09,0.11 -1.14,0.21c-0.06,0.1 -0.08,0.23 -0.08,0.38l0,15.33c0,0.15 0.03,0.28 0.08,0.38c0.06,0.1 0.91,0.17 1.14,0.21l0,0.39l-4.22,0l0,-0.39c0.17,0 0.29,-0.03 0.34,-0.1c0.06,-0.07 0.08,-0.15 0.08,-0.26c0,-0.07 -0.02,-0.15 -0.06,-0.25c-0.04,-0.1 -0.12,-0.27 -0.24,-0.51c-0.12,-0.24 -0.3,-0.59 -0.54,-1.04c-0.24,-0.45 -0.56,-1.05 -0.95,-1.81c-0.39,-0.76 -0.88,-1.7 -1.46,-2.83c-0.58,-1.13 -1.27,-2.51 -2.09,-4.13l0,10.33c0,0.15 0.03,0.28 0.08,0.38c0.06,0.1 0.2,0.17 0.43,0.21l0,0.39l-4.22,0l0,-0.39c0.23,-0.04 1.09,-0.12 1.14,-0.21c0.06,-0.1 0.08,-0.22 0.08,-0.38l0,-15.33l0.02,0z" class="st0"/>
    <path id="svg_5" fill="#666766" d="m50.83,9.13l0,0.4c-0.2,0.02 -0.3,0.21 -0.3,0.56l-0.01,7.11l-0.24,0c0,0 -0.06,-1.46 -0.37,-1.21c-1.48,1.22 -3.07,1.61 -5.01,1.61c-0.78,0 -1.52,-0.17 -2.24,-0.51c-0.72,-0.34 -1.36,-0.87 -1.91,-1.59c-0.55,-0.72 -1,-1.64 -1.34,-2.75c-0.34,-1.11 -0.51,-2.41 -0.51,-3.9s0.17,-2.79 0.51,-3.9c0.34,-1.11 0.78,-2.03 1.34,-2.76c0.55,-0.74 1.19,-1.28 1.91,-1.65c0.72,-0.36 1.47,-0.54 2.24,-0.54c0.31,0 0.58,0.01 0.81,0.03c0.23,0.02 0.46,0.07 0.68,0.13c0.22,0.07 0.45,0.15 0.68,0.25c0.23,0.1 0.51,0.22 0.83,0.38c0.31,0.15 0.59,0.33 0.85,0.54c0.26,0.21 0.42,0.31 0.5,0.31c0.1,0 0.18,-0.09 0.26,-0.26l0.22,0.13l-1.2,3.47l-0.21,-0.23c0.02,-0.13 0.04,-0.25 0.04,-0.36c0,-0.15 -0.1,-0.32 -0.31,-0.51c-0.21,-0.19 -0.47,-0.36 -0.79,-0.51c-0.32,-0.15 -0.68,-0.29 -1.08,-0.4c-0.4,-0.11 -0.79,-0.16 -1.17,-0.16c-0.44,0 -0.86,0.1 -1.26,0.31c-0.4,0.21 -0.76,0.53 -1.07,0.97c-0.31,0.44 -1.02,1.54 -1.02,4.82c0,3.29 0.83,4.34 1.17,4.76c0.34,0.42 0.72,0.72 1.14,0.92c0.42,0.2 0.83,0.3 1.24,0.3c0.52,0 0.98,-0.05 1.39,-0.16c0.41,-0.11 0.81,-0.26 1.19,-0.46l0,-3.04l0,0.66l0,-1.78c0,-0.35 -0.1,-0.54 -0.3,-0.56l0,-0.4l3.34,-0.02z" class="st0"/>
    <path id="svg_6" fill="#666766" d="m52.78,17.11c0.23,-0.04 0.38,-0.12 0.43,-0.21c0.06,-0.1 0.08,-0.22 0.08,-0.38l0,-15.33c0,-0.15 -0.03,-0.28 -0.08,-0.38c-0.06,-0.1 -0.2,-0.17 -0.43,-0.21l0,-0.39l3.8,0l0,0.39c-0.23,0.04 -0.38,0.11 -0.43,0.21c-0.06,0.1 -0.08,0.23 -0.08,0.38l0,15.33c0,0.15 0.03,0.28 0.08,0.38c0.06,0.1 0.2,0.17 0.43,0.21l0,0.39l-3.8,0l0,-0.39z" class="st0"/>
    <path id="svg_7" fill="#666766" d="m64.19,0c0.79,0 1.53,0.19 2.22,0.58c0.7,0.38 1.3,0.95 1.83,1.69c0.52,0.75 0.94,1.67 1.25,2.76c0.31,1.1 0.46,2.37 0.46,3.82c0,1.45 -0.15,2.72 -0.46,3.82c-0.31,1.1 -0.72,2.02 -1.25,2.76c-0.52,0.74 -1.13,1.29 -1.83,1.64c-0.7,0.35 -1.44,0.53 -2.22,0.53c-0.79,0 -1.53,-0.18 -2.22,-0.53c-0.7,-0.35 -1.3,-0.9 -1.83,-1.64c-0.52,-0.75 -0.94,-1.67 -1.25,-2.76c-0.31,-1.1 -0.46,-2.37 -0.46,-3.82c0,-1.45 0.15,-2.72 0.46,-3.82c0.31,-1.1 0.72,-2.02 1.25,-2.76c0.52,-0.74 1.13,-1.31 1.83,-1.69c0.69,-0.38 1.43,-0.58 2.22,-0.58zm0,3.14c-0.41,0 -0.79,0.11 -1.15,0.33c-0.36,0.22 -0.68,0.53 -0.96,0.94c-0.28,0.41 -0.91,1.18 -0.91,4.44c0,3.27 0.64,4.04 0.91,4.44c0.28,0.41 0.6,0.72 0.96,0.94c0.36,0.22 0.75,0.33 1.15,0.33c0.41,0 0.79,-0.11 1.15,-0.33c0.36,-0.22 0.68,-0.53 0.96,-0.94c0.28,-0.41 0.91,-1.23 0.91,-4.44c0,-3.22 -0.64,-4.04 -0.91,-4.44c-0.28,-0.41 -0.6,-0.72 -0.96,-0.94c-0.36,-0.22 -0.74,-0.33 -1.15,-0.33z" class="st0"/>
    <path id="svg_8" fill="#666766" d="m74.72,16.81c0,-0.04 -0.05,-0.27 -0.15,-0.67c-0.1,-0.41 -0.22,-0.94 -0.38,-1.59c-0.15,-0.66 -0.34,-1.4 -0.54,-2.24c-0.21,-0.83 -0.42,-1.7 -0.64,-2.6c-0.22,-0.9 -0.43,-1.79 -0.66,-2.66c-0.22,-0.88 -0.42,-1.69 -0.61,-2.44c-0.18,-0.74 -0.34,-1.39 -0.47,-1.94c-0.13,-0.55 -0.22,-0.93 -0.27,-1.15c-0.09,-0.37 -0.15,-0.61 -0.2,-0.72c-0.05,-0.11 -0.83,-0.18 -0.93,-0.2l0,-0.39l4.5,0l0,0.39c-0.15,0.02 -0.25,0.07 -0.3,0.13c-0.05,0.06 -0.07,0.15 -0.07,0.26c0,0.07 0.03,0.2 0.08,0.41c0.06,0.21 0.17,0.65 0.35,1.33c0.18,0.68 0.44,1.67 0.78,2.96c0.34,1.29 0.8,3.06 1.38,5.3c0.55,-2.17 0.99,-3.9 1.32,-5.18c0.33,-1.28 0.58,-2.26 0.76,-2.94c0.18,-0.68 0.29,-1.15 0.34,-1.4c0.05,-0.25 0.07,-0.42 0.07,-0.51c0,-0.11 -0.02,-0.19 -0.06,-0.25c-0.04,-0.05 -0.11,-0.09 -0.22,-0.11l0,-0.39l3.89,0l0,0.39c-0.07,0.04 -0.84,0.09 -0.89,0.13c-0.04,0.04 -0.08,0.14 -0.1,0.3c-0.02,0.13 -0.1,0.45 -0.22,0.95c-0.12,0.51 -0.27,1.13 -0.45,1.88c-0.18,0.75 -0.38,1.57 -0.59,2.48c-0.22,0.91 -0.44,1.84 -0.66,2.78c-0.23,0.94 -0.45,1.86 -0.66,2.76c-0.22,0.9 -0.41,1.7 -0.57,2.4c-0.17,0.7 -0.3,1.28 -0.4,1.74c-0.1,0.46 -0.15,0.71 -0.15,0.76c0,0.2 -0.14,0.72 -0.14,0.72l-2.97,0c-0.03,0 -0.17,-0.62 -0.17,-0.69z" class="st0"/>
    <path id="svg_9" fill="#666766" d="m83.76,17.11c0.23,-0.04 0.38,-0.12 0.43,-0.21c0.06,-0.1 0.08,-0.22 0.08,-0.38l0,-15.33c0,-0.15 -0.03,-0.28 -0.08,-0.38c-0.06,-0.1 -0.2,-0.17 -0.43,-0.21l0,-0.39l3.8,0l0,0.39c-0.23,0.04 -0.38,0.11 -0.43,0.21c-0.06,0.1 -0.08,0.23 -0.08,0.38l0,15.33c0,0.15 0.03,0.28 0.08,0.38c0.06,0.1 0.2,0.17 0.43,0.21l0,0.39l-3.8,0l0,-0.39z" class="st0"/>
   </g>
   <path id="svg_10" fill="#666766" d="m10.26,9.84c-0.4,-0.64 -0.91,-1.11 -1.54,-1.41l0,-0.07c0.52,-0.2 0.94,-0.6 1.27,-1.2c0.33,-0.6 0.5,-1.4 0.5,-2.38c0,-0.81 -0.09,-1.51 -0.26,-2.09c-0.17,-0.58 -0.41,-1.05 -0.72,-1.41c-0.31,-0.36 -0.67,-0.63 -1.09,-0.81c-0.42,-0.18 -0.88,-0.27 -1.39,-0.27l-7.03,0l0,0.39c0.23,0.04 0.38,0.11 0.43,0.21c0.06,0.1 0.08,0.23 0.08,0.38l0,6.4c0,0.15 -0.03,0.28 -0.08,0.38c-0.06,0.1 -0.2,0.17 -0.43,0.21l0,0.02l0,0.37l0,0.02c0.23,0.04 0.38,0.11 0.43,0.21c0.06,0.1 0.08,0.23 0.08,0.38l0,7.33c0,0.15 -0.03,0.28 -0.08,0.38c-0.06,0.1 -0.2,0.17 -0.43,0.21l0,0.39l7.13,0c0.65,0 1.22,-0.13 1.69,-0.39c0.47,-0.26 0.86,-0.61 1.16,-1.05c0.3,-0.44 0.52,-0.96 0.66,-1.55c0.14,-0.59 0.21,-1.22 0.21,-1.87c0.01,-1.21 -0.19,-2.15 -0.59,-2.78zm-6.97,-7.03l2.51,0c0.39,0 0.72,0.02 0.98,0.05c0.26,0.03 0.46,0.1 0.61,0.21c0.15,0.11 0.25,0.26 0.31,0.46c0.06,0.2 0.09,0.9 0.09,1.23c0,0.33 -0.03,1.03 -0.09,1.23c-0.06,0.2 -0.17,0.35 -0.31,0.46c-0.15,0.11 -0.35,0.18 -0.61,0.21c-0.26,0.03 -0.58,0.05 -0.98,0.05l-2.51,0l0,-3.9zm4.54,11.63c-0.27,0.3 -0.74,0.44 -1.4,0.44l-3.14,0l0,-4.82l3.14,0c0.66,0 1.13,0.15 1.4,0.44c0.27,0.3 0.41,1.24 0.41,1.97c-0.01,0.73 -0.14,1.68 -0.41,1.97z" class="st0"/>
   <g id="svg_11">
    <path id="svg_12" fill="#666766" d="m22.76,22.59c0,0.03 0.01,0.05 0.02,0.07c0.02,0.02 0.06,0.03 0.12,0.04l0,0.07l-1.08,0l0,-0.07c0.07,-0.01 0.11,-0.02 0.12,-0.04c0.02,-0.02 0.02,-0.04 0.02,-0.07l0,-2.64c0,-0.03 -0.01,-0.05 -0.02,-0.07c-0.02,-0.02 -0.06,-0.03 -0.12,-0.04l0,-0.07l1.88,0c0.16,0 0.31,0.03 0.43,0.08c0.13,0.05 0.23,0.12 0.31,0.21c0.08,0.09 0.15,0.19 0.19,0.3c0.04,0.11 0.06,0.23 0.06,0.36c0,0.12 -0.02,0.24 -0.06,0.36c-0.04,0.11 -0.1,0.21 -0.19,0.3c-0.08,0.08 -0.19,0.15 -0.31,0.2c-0.13,0.05 -0.27,0.08 -0.43,0.08l-0.94,0l0,0.93zm0.79,-1.52c0.15,0 0.25,-0.03 0.32,-0.08c0.07,-0.05 0.1,-0.14 0.1,-0.26c0,-0.11 -0.03,-0.19 -0.1,-0.24c-0.07,-0.05 -0.18,-0.07 -0.32,-0.07l-0.8,0l0,0.65l0.8,0z" class="st0"/>
    <path id="svg_13" fill="#666766" d="m26.47,22.63c0,0.02 0.01,0.03 0.02,0.04s0.04,0.01 0.08,0.01l0,0.07l-0.93,0l0,-0.07c0.04,-0.01 0.07,-0.02 0.08,-0.04c0.02,-0.02 0.03,-0.05 0.05,-0.09c0.01,-0.02 0.02,-0.07 0.05,-0.15c0.03,-0.08 0.06,-0.19 0.11,-0.31c0.05,-0.13 0.1,-0.27 0.15,-0.42c0.06,-0.15 0.11,-0.31 0.17,-0.47c0.06,-0.16 0.11,-0.32 0.17,-0.47c0.05,-0.15 0.1,-0.29 0.14,-0.41c0.04,-0.12 0.08,-0.22 0.1,-0.29c0.03,-0.08 0.04,-0.11 0.04,-0.12c0,-0.02 -0.01,-0.03 -0.03,-0.04c-0.02,-0.01 -0.05,-0.01 -0.07,-0.02l0,-0.07l1.37,0l0,0.07c-0.03,0 -0.05,0.01 -0.07,0.02c-0.02,0.01 -0.03,0.03 -0.03,0.06c0,0.01 0.02,0.06 0.05,0.15c0.03,0.09 0.08,0.21 0.13,0.35c0.05,0.14 0.11,0.31 0.18,0.49c0.07,0.18 0.14,0.37 0.21,0.56c0.07,0.19 0.14,0.38 0.21,0.56c0.07,0.18 0.13,0.34 0.19,0.49c0.03,0.07 0.05,0.11 0.07,0.14c0.02,0.02 0.04,0.03 0.08,0.03l0,0.07l-1.03,0l0,-0.07c0.07,0 0.1,-0.03 0.1,-0.07c0,0 -0.01,-0.03 -0.03,-0.08c-0.02,-0.05 -0.04,-0.1 -0.06,-0.16c-0.02,-0.06 -0.04,-0.11 -0.06,-0.17c-0.02,-0.05 -0.03,-0.09 -0.03,-0.11l-1.24,0c-0.03,0.1 -0.06,0.18 -0.08,0.25c-0.02,0.06 -0.04,0.11 -0.05,0.15c-0.01,0.04 -0.02,0.06 -0.03,0.08c-0.01,0.02 -0.01,0.03 -0.01,0.04zm1.27,-0.97l-0.51,-1.34l-0.47,1.34l0.98,0z" class="st0"/>
    <path id="svg_14" fill="#666766" d="m30.59,21.61c-0.01,0.02 -0.01,0.06 -0.01,0.12c0,0.04 0.03,0.08 0.1,0.13c0.06,0.05 0.15,0.09 0.25,0.13c0.1,0.04 0.22,0.08 0.35,0.1c0.13,0.03 0.27,0.04 0.4,0.04c0.26,0 0.45,-0.03 0.58,-0.1c0.12,-0.07 0.18,-0.16 0.18,-0.29c0,-0.07 -0.05,-0.12 -0.16,-0.14c-0.11,-0.03 -0.24,-0.05 -0.4,-0.07c-0.16,-0.02 -0.33,-0.04 -0.52,-0.06c-0.19,-0.02 -0.36,-0.06 -0.52,-0.11c-0.16,-0.05 -0.29,-0.13 -0.4,-0.24c-0.11,-0.1 -0.16,-0.25 -0.16,-0.43c0,-0.14 0.03,-0.27 0.09,-0.39c0.06,-0.12 0.15,-0.22 0.26,-0.3c0.11,-0.08 0.24,-0.15 0.4,-0.2c0.16,-0.05 0.33,-0.07 0.52,-0.07c0.18,0 0.34,0.01 0.5,0.04c0.15,0.02 0.29,0.05 0.41,0.08c0.12,0.03 0.22,0.06 0.3,0.08c0.08,0.02 0.14,0.04 0.17,0.04c0.03,0 0.06,-0.01 0.08,-0.03c0.02,-0.02 0.04,-0.04 0.06,-0.06l0.06,0.02l-0.36,0.79l-0.06,-0.03l0,-0.06c0,-0.03 -0.03,-0.07 -0.1,-0.1c-0.07,-0.04 -0.15,-0.07 -0.26,-0.1c-0.1,-0.03 -0.22,-0.05 -0.35,-0.07c-0.13,-0.02 -0.25,-0.03 -0.38,-0.03c-0.23,0 -0.39,0.03 -0.48,0.08c-0.09,0.06 -0.14,0.12 -0.14,0.18c0,0.06 0.03,0.11 0.09,0.14c0.06,0.03 0.14,0.06 0.25,0.07c0.1,0.01 0.22,0.03 0.35,0.04c0.13,0.01 0.26,0.02 0.4,0.04c0.14,0.02 0.27,0.05 0.4,0.08c0.13,0.03 0.24,0.08 0.35,0.15c0.1,0.07 0.18,0.15 0.25,0.26c0.06,0.11 0.09,0.24 0.09,0.4c0,0.12 -0.02,0.25 -0.07,0.37c-0.05,0.12 -0.13,0.23 -0.24,0.32c-0.11,0.1 -0.27,0.17 -0.46,0.23s-0.43,0.08 -0.71,0.08c-0.22,0 -0.41,-0.01 -0.57,-0.03c-0.16,-0.02 -0.29,-0.05 -0.41,-0.08c-0.11,-0.03 -0.2,-0.06 -0.26,-0.09c-0.06,-0.03 -0.11,-0.04 -0.14,-0.04c-0.02,0 -0.04,0.01 -0.06,0.02c-0.02,0.02 -0.03,0.03 -0.05,0.05l-0.06,-0.02l0.39,-1.01l0.05,0.07z" class="st0"/>
    <path id="svg_15" fill="#666766" d="m35.43,22.69c0.07,-0.01 0.11,-0.02 0.12,-0.04c0.02,-0.02 0.02,-0.04 0.02,-0.07l0,-2.11l-0.9,0c-0.03,0 -0.05,0.01 -0.06,0.03c-0.01,0.02 -0.02,0.06 -0.03,0.13l-0.06,0l0,-1.01l0.06,0c0.01,0.06 0.02,0.11 0.03,0.13c0.01,0.02 0.03,0.03 0.06,0.03l2.59,0c0.03,0 0.05,-0.01 0.06,-0.03c0.01,-0.02 0.02,-0.06 0.03,-0.13l0.06,0l0,1.01l-0.06,0c-0.01,-0.06 -0.02,-0.11 -0.03,-0.13c-0.01,-0.02 -0.03,-0.03 -0.06,-0.03l-0.9,0l0,2.11c0,0.03 0.01,0.05 0.02,0.07c0.02,0.02 0.06,0.03 0.12,0.04l0,0.07l-1.08,0l0,-0.07l0.01,0z" class="st0"/>
    <path id="svg_16" fill="#666766" d="m39.14,22.63c0,0.02 0.01,0.03 0.02,0.04c0.01,0.01 0.04,0.01 0.08,0.01l0,0.07l-0.93,0l0,-0.07c0.04,-0.01 0.07,-0.02 0.08,-0.04c0.02,-0.02 0.03,-0.05 0.05,-0.09c0.01,-0.02 0.02,-0.07 0.05,-0.15c0.03,-0.08 0.06,-0.19 0.11,-0.31c0.05,-0.13 0.1,-0.27 0.15,-0.42c0.06,-0.15 0.11,-0.31 0.17,-0.47c0.06,-0.16 0.11,-0.32 0.17,-0.47c0.05,-0.15 0.1,-0.29 0.14,-0.41c0.04,-0.12 0.08,-0.22 0.1,-0.29c0.03,-0.08 0.04,-0.11 0.04,-0.12c0,-0.02 -0.01,-0.03 -0.03,-0.04c-0.02,-0.01 -0.05,-0.01 -0.07,-0.02l0,-0.07l1.37,0l0,0.07c-0.03,0 -0.05,0.01 -0.07,0.02c-0.02,0.01 -0.03,0.03 -0.03,0.06c0,0.01 0.02,0.06 0.05,0.15c0.03,0.09 0.08,0.21 0.13,0.35c0.05,0.14 0.11,0.31 0.18,0.49c0.07,0.18 0.14,0.37 0.21,0.56c0.07,0.19 0.14,0.38 0.21,0.56c0.07,0.18 0.13,0.34 0.19,0.49c0.03,0.07 0.05,0.11 0.07,0.14c0.02,0.02 0.04,0.03 0.08,0.03l0,0.07l-1.03,0l0,-0.07c0.07,0 0.1,-0.03 0.1,-0.07c0,0 -0.01,-0.03 -0.03,-0.08c-0.02,-0.05 -0.04,-0.1 -0.06,-0.16c-0.02,-0.06 -0.04,-0.11 -0.06,-0.17c-0.02,-0.05 -0.03,-0.09 -0.03,-0.11l-1.24,0c-0.03,0.1 -0.06,0.18 -0.08,0.25c-0.02,0.06 -0.04,0.11 -0.05,0.15c-0.01,0.04 -0.02,0.06 -0.03,0.08c0,0.02 -0.01,0.03 -0.01,0.04zm1.28,-0.97l-0.51,-1.34l-0.47,1.34l0.98,0z" class="st0"/>
    <path id="svg_17" fill="#666766" d="m46.23,21.61c-0.01,0.02 -0.01,0.06 -0.01,0.12c0,0.04 0.03,0.08 0.1,0.13c0.06,0.05 0.15,0.09 0.25,0.13c0.1,0.04 0.22,0.08 0.35,0.1c0.13,0.03 0.27,0.04 0.4,0.04c0.26,0 0.45,-0.03 0.58,-0.1c0.12,-0.07 0.18,-0.16 0.18,-0.29c0,-0.07 -0.05,-0.12 -0.16,-0.14c-0.11,-0.03 -0.24,-0.05 -0.4,-0.07c-0.16,-0.02 -0.33,-0.04 -0.52,-0.06c-0.19,-0.02 -0.36,-0.06 -0.52,-0.11c-0.16,-0.05 -0.29,-0.13 -0.4,-0.24c-0.11,-0.1 -0.16,-0.25 -0.16,-0.43c0,-0.14 0.03,-0.27 0.09,-0.39c0.06,-0.12 0.15,-0.22 0.26,-0.3c0.11,-0.08 0.24,-0.15 0.4,-0.2c0.16,-0.03 0.34,-0.05 0.53,-0.05c0.18,0 0.34,0.01 0.5,0.04c0.15,0.02 0.29,0.05 0.41,0.08c0.12,0.03 0.22,0.06 0.3,0.08c0.08,0.02 0.14,0.04 0.17,0.04s0.06,-0.01 0.08,-0.03c0.02,-0.02 0.04,-0.04 0.06,-0.06l0.06,0.02l-0.36,0.79l-0.06,-0.03l0,-0.06c0,-0.03 -0.03,-0.07 -0.1,-0.1c-0.07,-0.04 -0.15,-0.07 -0.26,-0.1c-0.1,-0.03 -0.22,-0.05 -0.35,-0.07c-0.13,-0.02 -0.25,-0.03 -0.38,-0.03c-0.23,0 -0.39,0.03 -0.48,0.08c-0.09,0.06 -0.14,0.12 -0.14,0.18c0,0.06 0.03,0.11 0.09,0.14c0.06,0.03 0.14,0.06 0.25,0.07c0.1,0.01 0.22,0.03 0.35,0.04c0.13,0.01 0.26,0.02 0.4,0.04c0.14,0.02 0.27,0.05 0.4,0.08c0.13,0.03 0.24,0.08 0.35,0.15c0.1,0.07 0.18,0.15 0.25,0.26c0.06,0.11 0.09,0.24 0.09,0.4c0,0.12 -0.02,0.25 -0.07,0.37c-0.05,0.12 -0.13,0.23 -0.24,0.32c-0.11,0.1 -0.27,0.17 -0.46,0.23c-0.19,0.06 -0.43,0.08 -0.71,0.08c-0.22,0 -0.41,-0.01 -0.57,-0.03c-0.16,-0.02 -0.29,-0.05 -0.41,-0.08c-0.11,-0.03 -0.2,-0.06 -0.26,-0.09c-0.06,-0.03 -0.11,-0.04 -0.14,-0.04c-0.02,0 -0.04,0.01 -0.06,0.02c-0.02,0.02 -0.03,0.03 -0.05,0.05l-0.06,-0.02l0.39,-1.01l0.04,0.05z" class="st0"/>
    <path id="svg_18" fill="#666766" d="m50.85,22.63c0,0.02 0.01,0.03 0.02,0.04c0.01,0.01 0.04,0.01 0.08,0.01l0,0.07l-0.93,0l0,-0.07c0.04,-0.01 0.07,-0.02 0.08,-0.04c0.02,-0.02 0.03,-0.05 0.05,-0.09c0.01,-0.02 0.02,-0.07 0.05,-0.15c0.03,-0.08 0.06,-0.19 0.11,-0.31c0.05,-0.13 0.1,-0.27 0.15,-0.42c0.06,-0.15 0.11,-0.31 0.17,-0.47c0.06,-0.16 0.11,-0.32 0.17,-0.47c0.05,-0.15 0.1,-0.29 0.14,-0.41c0.04,-0.12 0.08,-0.22 0.1,-0.29c0.03,-0.08 0.04,-0.11 0.04,-0.12c0,-0.02 -0.01,-0.03 -0.03,-0.04c-0.02,-0.01 -0.05,-0.01 -0.07,-0.02l0,-0.07l1.37,0l0,0.07c-0.03,0 -0.05,0.01 -0.07,0.02c-0.02,0.01 -0.03,0.03 -0.03,0.06c0,0.01 0.02,0.06 0.05,0.15c0.03,0.09 0.08,0.21 0.13,0.35c0.05,0.14 0.11,0.31 0.18,0.49c0.07,0.18 0.14,0.37 0.21,0.56c0.07,0.19 0.14,0.38 0.21,0.56c0.07,0.18 0.13,0.34 0.19,0.49c0.03,0.07 0.05,0.11 0.07,0.14c0.02,0.02 0.04,0.03 0.08,0.03l0,0.07l-1.03,0l0,-0.07c0.07,0 0.1,-0.03 0.1,-0.07c0,0 -0.01,-0.03 -0.03,-0.08c-0.02,-0.05 -0.04,-0.1 -0.06,-0.16c-0.02,-0.06 -0.04,-0.11 -0.06,-0.17c-0.02,-0.05 -0.03,-0.09 -0.03,-0.11l-1.24,0c-0.03,0.1 -0.06,0.18 -0.08,0.25c-0.02,0.06 -0.04,0.11 -0.05,0.15c-0.01,0.04 -0.02,0.06 -0.03,0.08c-0.01,0.02 -0.01,0.03 -0.01,0.04zm1.27,-0.97l-0.51,-1.34l-0.47,1.34l0.98,0z" class="st0"/>
    <path id="svg_19" fill="#666766" d="m56.81,19.95c0,-0.03 -0.01,-0.05 -0.02,-0.07c-0.02,-0.02 -0.06,-0.03 -0.12,-0.04l0,-0.07l1.08,0l0,0.07c-0.07,0.01 -0.11,0.02 -0.12,0.04c-0.02,0.02 -0.02,0.04 -0.02,0.07l0,1.51c0,0.25 -0.04,0.46 -0.11,0.63c-0.08,0.17 -0.18,0.31 -0.31,0.41c-0.13,0.1 -0.28,0.17 -0.46,0.21c-0.18,0.04 -0.36,0.06 -0.56,0.06c-0.2,0 -0.39,-0.02 -0.56,-0.06c-0.18,-0.04 -0.33,-0.11 -0.46,-0.21c-0.13,-0.1 -0.23,-0.24 -0.31,-0.41c-0.08,-0.17 -0.11,-0.38 -0.11,-0.63l0,-1.51c0,-0.03 -0.01,-0.05 -0.02,-0.07c-0.02,-0.02 -0.06,-0.03 -0.12,-0.04l0,-0.07l1.08,0l0,0.07c-0.07,0.01 -0.11,0.02 -0.12,0.04c-0.02,0.02 -0.02,0.04 -0.02,0.07l0,1.51c0,0.22 0.06,0.37 0.17,0.47c0.12,0.09 0.28,0.14 0.49,0.14c0.21,0 0.37,-0.05 0.49,-0.14c0.12,-0.09 0.17,-0.25 0.17,-0.47l0,-1.51l-0.04,0z" class="st0"/>
    <path id="svg_20" fill="#666766" d="m61.75,20.84c0,-0.01 0.01,-0.02 0.01,-0.04c0,-0.01 0,-0.03 0,-0.05c0,-0.03 -0.02,-0.06 -0.07,-0.09c-0.05,-0.03 -0.11,-0.06 -0.19,-0.08c-0.08,-0.02 -0.17,-0.05 -0.27,-0.06c-0.1,-0.02 -0.21,-0.03 -0.32,-0.03c-0.1,0 -0.21,0.01 -0.33,0.04c-0.12,0.03 -0.22,0.07 -0.32,0.13c-0.1,0.06 -0.17,0.14 -0.24,0.24c-0.06,0.1 -0.09,0.22 -0.09,0.36c0,0.14 0.03,0.26 0.09,0.36c0.06,0.1 0.14,0.18 0.24,0.24c0.1,0.06 0.2,0.1 0.32,0.13c0.12,0.03 0.23,0.04 0.33,0.04c0.05,0 0.12,-0.01 0.21,-0.03c0.1,-0.02 0.2,-0.04 0.29,-0.07c0.1,-0.03 0.18,-0.06 0.26,-0.1c0.08,-0.04 0.11,-0.08 0.11,-0.12c0,-0.02 0,-0.03 -0.01,-0.05c-0.01,-0.01 -0.01,-0.02 -0.02,-0.04l0.06,-0.04l0.54,0.89l-0.06,0.04c-0.01,-0.02 -0.02,-0.03 -0.03,-0.04c-0.01,-0.01 -0.03,-0.01 -0.04,-0.01c-0.02,0 -0.07,0.02 -0.15,0.05c-0.07,0.03 -0.17,0.07 -0.29,0.1c-0.12,0.04 -0.25,0.07 -0.41,0.1c-0.16,0.03 -0.33,0.04 -0.53,0.04c-0.21,0 -0.42,-0.03 -0.62,-0.09c-0.21,-0.06 -0.39,-0.15 -0.56,-0.28c-0.16,-0.13 -0.3,-0.28 -0.4,-0.47c-0.1,-0.19 -0.15,-0.41 -0.15,-0.66c0,-0.25 0.05,-0.47 0.15,-0.66c0.1,-0.19 0.23,-0.35 0.4,-0.47c0.16,-0.13 0.35,-0.22 0.56,-0.29c0.21,-0.06 0.41,-0.1 0.62,-0.1c0.21,0 0.39,0.01 0.54,0.04c0.15,0.02 0.28,0.05 0.39,0.08c0.1,0.03 0.18,0.06 0.24,0.08c0.06,0.02 0.1,0.03 0.13,0.03c0.03,0 0.06,-0.01 0.08,-0.05l0.06,0.02l-0.47,0.93l-0.06,-0.02z" class="st0"/>
    <path id="svg_21" fill="#666766" d="m66.03,21.67c-0.01,-0.04 -0.02,-0.07 -0.04,-0.09c-0.02,-0.02 -0.06,-0.04 -0.11,-0.04l-0.98,0l0,0.53l1.68,0c0.03,0 0.05,-0.01 0.06,-0.03c0.01,-0.02 0.02,-0.07 0.03,-0.14l0.06,0l0,0.97l-0.06,0c-0.01,-0.05 -0.02,-0.08 -0.03,-0.09c-0.01,-0.01 -0.03,-0.02 -0.06,-0.02l-2.61,0l0,-0.07c0.07,-0.01 0.11,-0.02 0.12,-0.04c0.02,-0.02 0.02,-0.04 0.02,-0.07l0,-2.63c0,-0.03 -0.01,-0.05 -0.02,-0.07c-0.02,-0.02 -0.06,-0.03 -0.12,-0.04l0,-0.07l2.61,0c0.03,0 0.05,-0.01 0.06,-0.03c0.01,-0.02 0.02,-0.06 0.03,-0.13l0.06,0l0,0.98l-0.06,0c-0.01,-0.06 -0.02,-0.11 -0.03,-0.13c-0.01,-0.02 -0.03,-0.03 -0.06,-0.03l-1.68,0l0,0.47l0.97,0c0.05,0 0.09,-0.01 0.11,-0.04c0.02,-0.02 0.04,-0.06 0.04,-0.09l0.06,0l0,0.88l-0.05,0l0,0.02z" class="st0"/>
    <path id="svg_22" fill="#666766" d="m68.74,21.61c-0.01,0.02 -0.01,0.06 -0.01,0.12c0,0.04 0.03,0.08 0.1,0.13c0.06,0.05 0.15,0.09 0.25,0.13c0.1,0.04 0.22,0.08 0.35,0.1c0.13,0.03 0.27,0.04 0.4,0.04c0.26,0 0.45,-0.03 0.58,-0.1c0.12,-0.07 0.18,-0.16 0.18,-0.29c0,-0.07 -0.05,-0.12 -0.16,-0.14c-0.11,-0.03 -0.24,-0.05 -0.4,-0.07c-0.16,-0.02 -0.33,-0.04 -0.52,-0.06c-0.19,-0.02 -0.36,-0.06 -0.52,-0.11c-0.16,-0.05 -0.29,-0.13 -0.4,-0.24c-0.11,-0.1 -0.16,-0.25 -0.16,-0.43c0,-0.14 0.03,-0.27 0.09,-0.39c0.06,-0.12 0.15,-0.22 0.26,-0.3c0.11,-0.08 0.24,-0.15 0.4,-0.2c0.16,-0.05 0.33,-0.07 0.52,-0.07c0.18,0 0.34,0.01 0.5,0.04c0.15,0.02 0.29,0.05 0.41,0.08c0.12,0.03 0.22,0.06 0.3,0.08c0.08,0.02 0.14,0.04 0.17,0.04c0.03,0 0.06,-0.01 0.08,-0.03c0.02,-0.02 0.04,-0.04 0.06,-0.06l0.06,0.02l-0.36,0.79l-0.06,-0.03l0,-0.06c0,-0.03 -0.03,-0.07 -0.1,-0.1c-0.07,-0.04 -0.15,-0.07 -0.26,-0.1c-0.1,-0.03 -0.22,-0.05 -0.35,-0.07c-0.13,-0.02 -0.25,-0.03 -0.38,-0.03c-0.23,0 -0.39,0.03 -0.48,0.08c-0.09,0.06 -0.14,0.12 -0.14,0.18c0,0.06 0.03,0.11 0.09,0.14c0.06,0.03 0.14,0.06 0.25,0.07c0.1,0.01 0.22,0.03 0.35,0.04c0.13,0.01 0.26,0.02 0.4,0.04c0.14,0.02 0.27,0.05 0.4,0.08c0.13,0.03 0.24,0.08 0.35,0.15c0.1,0.07 0.18,0.15 0.25,0.26c0.06,0.11 0.09,0.24 0.09,0.4c0,0.12 -0.02,0.25 -0.07,0.37c-0.05,0.12 -0.13,0.23 -0.24,0.32c-0.11,0.1 -0.27,0.17 -0.46,0.23c-0.19,0.06 -0.43,0.08 -0.71,0.08c-0.22,0 -0.41,-0.01 -0.57,-0.03c-0.16,-0.02 -0.29,-0.05 -0.41,-0.08c-0.11,-0.03 -0.2,-0.06 -0.26,-0.09c-0.06,-0.03 -0.11,-0.04 -0.14,-0.04c-0.02,0 -0.04,0.01 -0.06,0.02c-0.02,0.02 -0.03,0.03 -0.05,0.05l-0.06,-0.02l0.39,-1.01l0.05,0.07z" class="st0"/>
   </g>
   <g id="svg_23">
    <g id="svg_24">
     <path id="svg_25" fill="#666766" d="m89.18,0.07c0.14,0 0.27,0.03 0.4,0.1c0.13,0.07 0.23,0.17 0.3,0.3c0.07,0.13 0.11,0.27 0.11,0.41c0,0.14 -0.04,0.28 -0.11,0.41c-0.07,0.13 -0.17,0.23 -0.3,0.3c-0.13,0.07 -0.26,0.11 -0.41,0.11c-0.14,0 -0.28,-0.04 -0.41,-0.11c-0.13,-0.07 -0.23,-0.17 -0.3,-0.3c-0.07,-0.13 -0.11,-0.26 -0.11,-0.41c0,-0.14 0.04,-0.28 0.11,-0.41c0.07,-0.13 0.17,-0.23 0.3,-0.3c0.15,-0.07 0.28,-0.1 0.42,-0.1zm0,0.16c-0.11,0 -0.22,0.03 -0.32,0.08c-0.1,0.06 -0.18,0.14 -0.24,0.24c-0.06,0.11 -0.09,0.22 -0.09,0.33c0,0.11 0.03,0.22 0.09,0.33s0.14,0.18 0.24,0.24c0.1,0.06 0.21,0.09 0.33,0.09c0.11,0 0.22,-0.03 0.33,-0.09c0.1,-0.06 0.18,-0.14 0.24,-0.24c0.06,-0.1 0.09,-0.21 0.09,-0.33c0,-0.12 -0.03,-0.23 -0.09,-0.33c-0.06,-0.11 -0.14,-0.19 -0.24,-0.24c-0.12,-0.06 -0.22,-0.08 -0.34,-0.08zm-0.37,1.09l0,-0.87l0.18,0c0.17,0 0.26,0 0.28,0c0.06,0 0.1,0.02 0.14,0.03c0.03,0.02 0.06,0.05 0.08,0.08c0.02,0.04 0.03,0.08 0.03,0.12c0,0.06 -0.02,0.12 -0.06,0.16c-0.04,0.04 -0.1,0.07 -0.17,0.08c0.03,0.01 0.05,0.02 0.06,0.03c0.01,0.01 0.03,0.03 0.06,0.07c0.01,0.01 0.03,0.04 0.06,0.11l0.1,0.17l-0.22,0l-0.07,-0.14c-0.05,-0.09 -0.09,-0.15 -0.12,-0.18c-0.03,-0.02 -0.07,-0.04 -0.12,-0.04l-0.05,0l0,0.36l-0.18,0l0,0.02zm0.18,-0.49l0.07,0c0.1,0 0.16,0 0.19,-0.01c0.02,-0.01 0.04,-0.02 0.06,-0.04c0.01,-0.02 0.02,-0.04 0.02,-0.07c0,-0.02 -0.01,-0.05 -0.02,-0.06c-0.01,-0.02 -0.03,-0.03 -0.06,-0.04c-0.03,-0.01 -0.09,-0.01 -0.19,-0.01l-0.07,0l0,0.23z" class="st0"/>
    </g>
    <g id="svg_26">
     <path id="svg_27" fill="#666766" d="m88.61,17.45c-0.01,0 -0.02,0 -0.03,0.01c-0.01,0.01 -0.01,0.03 -0.02,0.06l-0.03,0l0,-1c0,-0.07 0.01,-0.14 0.02,-0.2c0.01,-0.06 0.04,-0.11 0.06,-0.15c0.03,-0.04 0.07,-0.08 0.11,-0.1c0.05,-0.02 0.1,-0.04 0.17,-0.04c0.08,0 0.14,0.02 0.19,0.07c0.05,0.05 0.08,0.11 0.1,0.18l0.01,0c0.02,-0.09 0.06,-0.16 0.11,-0.22c0.05,-0.06 0.12,-0.09 0.22,-0.09c0.05,0 0.1,0.01 0.15,0.03c0.05,0.02 0.09,0.05 0.12,0.09c0.03,0.04 0.06,0.1 0.08,0.17c0.02,0.07 0.03,0.15 0.03,0.24l0,1.01l-0.03,0c0,-0.03 -0.01,-0.05 -0.02,-0.06c-0.01,-0.01 -0.02,-0.01 -0.03,-0.01l-1.21,0l0,0.01zm0.44,-0.75c0,-0.06 0,-0.1 0,-0.14c0,-0.04 -0.01,-0.07 -0.02,-0.09c-0.01,-0.02 -0.02,-0.04 -0.04,-0.04c-0.02,-0.01 -0.04,-0.01 -0.06,-0.01c-0.03,0 -0.05,0 -0.06,0.01c-0.02,0.01 -0.03,0.02 -0.04,0.04c-0.01,0.02 -0.01,0.05 -0.02,0.09c0,0.04 0,0.08 0,0.14l0,0.36l0.24,0l0,-0.36zm0.58,-0.09c0,-0.09 -0.01,-0.16 -0.04,-0.2c-0.02,-0.04 -0.06,-0.06 -0.12,-0.06c-0.06,0 -0.1,0.02 -0.12,0.06c-0.02,0.04 -0.04,0.1 -0.04,0.2l0,0.45l0.31,0l0,-0.45l0.01,0z" class="st0"/>
     <path id="svg_28" fill="#666766" d="m89.83,13.91c0.01,0 0.02,0 0.03,-0.01c0.01,-0.01 0.01,-0.03 0.02,-0.06l0.03,0l0,0.54l-0.03,0c0,-0.03 -0.01,-0.05 -0.02,-0.06c-0.01,-0.01 -0.02,-0.01 -0.03,-0.01l-1.22,0c-0.01,0 -0.02,0 -0.03,0.01c-0.01,0.01 -0.01,0.03 -0.02,0.06l-0.03,0l0,-0.96c0,-0.19 0.04,-0.33 0.11,-0.42c0.07,-0.09 0.18,-0.13 0.33,-0.13c0.12,0 0.21,0.04 0.28,0.11c0.07,0.07 0.12,0.16 0.15,0.27l0.43,-0.31c0.03,-0.02 0.05,-0.05 0.05,-0.08l0.03,0l0,0.54l-0.03,0c0,-0.04 -0.02,-0.06 -0.05,-0.06c0,0 -0.02,0.01 -0.04,0.02c-0.02,0.01 -0.05,0.03 -0.08,0.05c-0.03,0.02 -0.06,0.04 -0.1,0.07c-0.03,0.03 -0.07,0.05 -0.1,0.07c-0.03,0.02 -0.06,0.04 -0.08,0.06c-0.02,0.02 -0.04,0.03 -0.05,0.03l0,0.26l0.45,0l0,0.01zm-0.72,-0.44c0,-0.08 -0.01,-0.13 -0.04,-0.16c-0.03,-0.03 -0.06,-0.04 -0.1,-0.04c-0.04,0 -0.07,0.01 -0.1,0.04c-0.03,0.03 -0.04,0.08 -0.04,0.16l0,0.44l0.29,0l0,-0.44l-0.01,0z" class="st0"/>
     <path id="svg_29" fill="#666766" d="m89.85,10.93c0.01,0 0.02,0 0.02,-0.01c0,-0.01 0.01,-0.02 0.01,-0.04l0.03,0l0,0.46l-0.03,0c0,-0.02 -0.01,-0.03 -0.02,-0.04c-0.01,-0.01 -0.02,-0.02 -0.04,-0.03c-0.01,0 -0.03,-0.01 -0.07,-0.03c-0.04,-0.01 -0.09,-0.03 -0.15,-0.06c-0.06,-0.02 -0.12,-0.05 -0.2,-0.08c-0.07,-0.03 -0.14,-0.06 -0.22,-0.08c-0.07,-0.03 -0.15,-0.06 -0.22,-0.08c-0.07,-0.03 -0.13,-0.05 -0.19,-0.07c-0.06,-0.02 -0.1,-0.04 -0.14,-0.05c-0.03,-0.01 -0.05,-0.02 -0.06,-0.02c-0.01,0 -0.01,0.01 -0.02,0.02c0,0.01 -0.01,0.02 -0.01,0.04l-0.03,0l0,-0.68l0.03,0c0,0.01 0,0.03 0.01,0.03c0,0.01 0.01,0.01 0.03,0.01c0,0 0.03,-0.01 0.07,-0.02c0.04,-0.02 0.1,-0.04 0.16,-0.06c0.07,-0.03 0.14,-0.06 0.23,-0.09c0.08,-0.03 0.17,-0.07 0.26,-0.11c0.09,-0.04 0.17,-0.07 0.26,-0.11c0.08,-0.03 0.16,-0.07 0.23,-0.09c0.03,-0.01 0.05,-0.03 0.06,-0.04c0.01,-0.01 0.02,-0.02 0.02,-0.04l0.03,0l0,0.52l-0.03,0c0,-0.03 -0.01,-0.05 -0.03,-0.05c0,0 -0.01,0 -0.04,0.01c-0.02,0.01 -0.05,0.02 -0.07,0.03c-0.03,0.01 -0.05,0.02 -0.08,0.03c-0.02,0.01 -0.04,0.02 -0.05,0.02l0,0.62c0.05,0.02 0.09,0.03 0.12,0.04c0.03,0.01 0.05,0.02 0.07,0.02c0.02,0.01 0.03,0.01 0.04,0.01c0.01,0.01 0.02,0.02 0.02,0.02zm-0.45,-0.64l-0.62,0.25l0.62,0.23l0,-0.48z" class="st0"/>
     <path id="svg_30" fill="#666766" d="m88.61,8.03c-0.01,0 -0.02,0 -0.03,0.01c-0.01,0.01 -0.01,0.03 -0.02,0.06l-0.03,0l0,-0.63l0.03,0c0,0.03 0.01,0.05 0.01,0.06c0.01,0.01 0.01,0.01 0.02,0.01c0,0 0.02,-0.01 0.05,-0.03c0.03,-0.02 0.06,-0.05 0.1,-0.09c0.04,-0.04 0.09,-0.08 0.14,-0.12c0.05,-0.05 0.1,-0.09 0.15,-0.14c0.05,-0.05 0.1,-0.09 0.15,-0.14c0.05,-0.04 0.09,-0.08 0.12,-0.11l-0.7,0c-0.03,0 -0.05,0.02 -0.05,0.06l-0.03,0l0,-0.48l0.03,0c0,0.03 0.01,0.05 0.02,0.06c0.01,0.01 0.02,0.01 0.03,0.01l1.22,0c0.01,0 0.02,0 0.03,-0.01c0.01,-0.01 0.01,-0.03 0.02,-0.06l0.03,0l0,0.5l-0.03,0c0,-0.02 0,-0.04 -0.01,-0.05c-0.01,-0.01 -0.01,-0.01 -0.02,-0.01c-0.01,0 -0.01,0 -0.02,0.01c-0.01,0.01 -0.02,0.02 -0.04,0.03c-0.02,0.02 -0.05,0.04 -0.08,0.08c-0.04,0.03 -0.08,0.08 -0.14,0.13c-0.06,0.06 -0.14,0.12 -0.23,0.21c-0.09,0.08 -0.2,0.18 -0.33,0.3l0.82,0c0.01,0 0.02,0 0.03,-0.01c0.01,-0.01 0.01,-0.03 0.02,-0.06l0.03,0l0,0.5l-0.03,0c0,-0.03 -0.01,-0.05 -0.02,-0.06c-0.01,-0.01 -0.02,-0.01 -0.03,-0.01l-1.21,0l0,-0.02z" class="st0"/>
     <path id="svg_31" fill="#666766" d="m88.61,4.75c-0.01,0 -0.02,0 -0.03,0.01c-0.01,0.01 -0.01,0.03 -0.02,0.06l-0.03,0l0,-0.87c0,-0.12 0.02,-0.23 0.05,-0.31c0.03,-0.09 0.08,-0.16 0.15,-0.22c0.06,-0.06 0.14,-0.1 0.22,-0.13c0.08,-0.03 0.17,-0.04 0.27,-0.04c0.09,0 0.18,0.02 0.26,0.05c0.08,0.03 0.16,0.08 0.22,0.14c0.06,0.06 0.12,0.14 0.15,0.23c0.04,0.09 0.06,0.2 0.06,0.32l0,0.84l-0.03,0c0,-0.03 -0.01,-0.05 -0.02,-0.06c-0.01,-0.02 -0.02,-0.02 -0.03,-0.02l-1.22,0zm0.99,-0.73c0,-0.14 -0.04,-0.24 -0.11,-0.3c-0.07,-0.06 -0.16,-0.09 -0.27,-0.09c-0.11,0 -0.2,0.03 -0.27,0.09c-0.07,0.06 -0.11,0.16 -0.11,0.3l0,0.33l0.76,0l0,-0.33z" class="st0"/>
    </g>
   </g>
  </g>
 </g>
</svg>