<svg width="58" height="49" xmlns="http://www.w3.org/2000/svg" xml:space="preserve" version="1.1">

 <g>
  <title>Layer 1</title>
  <g id="svg_1">
   <g id="svg_2">
    <path id="svg_3" fill="#666766" d="m22.85,31.25c0.01,-0.04 0.01,-0.07 0.02,-0.11l0,0c0.04,-0.17 0.09,-0.34 0.15,-0.5c0.02,-0.04 0.03,-0.08 0.05,-0.12c0.01,-0.02 0.02,-0.03 0.02,-0.05c0.02,-0.04 0.04,-0.08 0.06,-0.12c0.01,-0.01 0.02,-0.03 0.02,-0.04c0.07,-0.12 0.15,-0.24 0.23,-0.36c0.02,-0.02 0.03,-0.04 0.05,-0.06c0.02,-0.03 0.05,-0.06 0.07,-0.08c0.02,-0.02 0.04,-0.04 0.06,-0.07c0.02,-0.03 0.05,-0.05 0.08,-0.08c0.02,-0.02 0.05,-0.05 0.07,-0.07c0.03,-0.02 0.05,-0.05 0.08,-0.07c0.03,-0.02 0.06,-0.05 0.09,-0.07c0.03,-0.02 0.05,-0.04 0.08,-0.06c0.05,-0.03 0.1,-0.07 0.15,-0.1c0.03,-0.02 0.05,-0.03 0.08,-0.05c0.04,-0.02 0.09,-0.05 0.14,-0.07c0.03,-0.01 0.06,-0.02 0.09,-0.04c0.04,-0.02 0.08,-0.04 0.13,-0.05c0.03,-0.01 0.06,-0.02 0.09,-0.03c0.04,-0.01 0.09,-0.03 0.14,-0.04c0.03,-0.01 0.06,-0.02 0.1,-0.03c0.05,-0.01 0.1,-0.02 0.16,-0.03c0.03,-0.01 0.06,-0.01 0.09,-0.02c0.08,-0.01 0.16,-0.02 0.24,-0.03c0.01,0 0.01,0 0.02,0c0.11,-0.01 0.23,-0.01 0.33,-0.01c0,0 0,0 0.01,0l0,0c0.02,-0.03 0.1,-0.21 0.12,-0.26c0,0 0,0 0,0l0,0c-0.09,0 -0.2,-0.01 -0.32,0c-0.22,0.01 -0.48,0.04 -0.77,0.12c-0.01,0 -0.03,0.01 -0.04,0.01c-0.04,0.01 -0.07,0.02 -0.11,0.03c-0.02,0.01 -0.05,0.02 -0.07,0.03c-0.03,0.01 -0.05,0.02 -0.08,0.03c-0.03,0.01 -0.05,0.02 -0.08,0.04c-0.02,0.01 -0.05,0.02 -0.07,0.04c-0.03,0.01 -0.05,0.03 -0.08,0.04c-0.02,0.01 -0.05,0.03 -0.07,0.04c-0.03,0.02 -0.05,0.03 -0.08,0.05c-0.02,0.01 -0.04,0.03 -0.06,0.04c-0.03,0.02 -0.06,0.04 -0.08,0.06c-0.02,0.01 -0.04,0.03 -0.06,0.05c-0.03,0.02 -0.06,0.05 -0.08,0.07c-0.02,0.01 -0.03,0.03 -0.05,0.05c-0.03,0.03 -0.06,0.05 -0.08,0.08c-0.01,0.01 -0.03,0.03 -0.04,0.04c-0.03,0.03 -0.06,0.06 -0.09,0.09c-0.01,0.01 -0.02,0.02 -0.03,0.03c-0.03,0.04 -0.06,0.07 -0.09,0.11c0,0 0,0 0,0c-0.14,0.19 -0.27,0.39 -0.37,0.61c0,0.01 0,0.01 -0.01,0.02c-0.02,0.05 -0.04,0.09 -0.06,0.14c0,0.01 -0.01,0.02 -0.01,0.04c-0.02,0.05 -0.03,0.09 -0.04,0.14c0,0.01 -0.01,0.02 -0.01,0.03c0,0 0,0 0,0c-0.03,0.09 -0.05,0.18 -0.06,0.27c-0.01,0.13 -0.02,0.23 -0.03,0.32z" class="st0"/>
    <path id="svg_4" fill="#666766" d="m30.86,24.58c0.8,0.05 1.42,0.18 1.83,0.29l0.07,0.02l0.03,0.07c0.14,0.33 0.46,0.55 0.83,0.55c0.01,0 0.03,0 0.04,0c0.48,-0.02 0.86,-0.42 0.86,-0.9c0,-0.31 -0.16,-0.59 -0.4,-0.75c-0.14,-0.1 -0.31,-0.15 -0.5,-0.15c-0.08,0 -0.16,0.01 -0.24,0.03l-0.05,0.02l-0.05,-0.02c-0.32,-0.14 -0.73,-0.3 -1.22,-0.43c-0.07,0.07 -0.47,0.48 -0.53,0.54c0.71,0.19 1,0.33 1.18,0.38c0,0 0,0.01 -0.01,0.01c-0.19,-0.03 -0.61,-0.18 -1.28,-0.26c-0.02,0.03 -0.12,0.11 -0.15,0.14c0.75,0.08 1.3,0.2 1.5,0.25c-0.02,0.08 -0.03,0.16 -0.03,0.24c0,0.06 0.01,0.11 0.02,0.16c-0.69,-0.17 -1.29,-0.26 -1.8,-0.29c-0.04,0.04 -0.07,0.07 -0.1,0.1zm2.35,-0.2c0.09,-0.14 0.2,-0.18 0.22,-0.19l0.01,0l0.08,0.19c0,0.01 -0.07,0.03 -0.11,0.12c-0.05,0.08 -0.04,0.25 0.08,0.33c0.12,0.08 0.3,0.02 0.35,-0.08c0.07,-0.1 0.03,-0.2 0.04,-0.19l0.15,-0.04c0,0 0,0 0,0c0,0 0,0 0,0l0.05,-0.01l0,0.01c0.01,0.04 0.05,0.18 -0.04,0.34c-0.09,0.21 -0.44,0.35 -0.68,0.18c-0.26,-0.18 -0.26,-0.51 -0.15,-0.66zm0.47,0.22c0.03,0 0.05,-0.01 0.07,-0.03c0,0.01 0.01,0.03 0.01,0.04c0,0.08 -0.06,0.14 -0.14,0.14c-0.08,0 -0.14,-0.06 -0.14,-0.14c0,-0.06 0.04,-0.11 0.09,-0.13c0,0 0,0 0,0c0,0.07 0.05,0.12 0.11,0.12zm0.47,0.62c-0.21,0.21 -0.56,0.18 -0.55,0.18c0,-0.01 0.29,-0.03 0.53,-0.25c0.23,-0.21 0.28,-0.46 0.28,-0.46c0,-0.01 -0.02,0.34 -0.26,0.53zm-0.94,-1.26c0.27,-0.18 0.59,-0.14 0.77,-0.03c0.19,0.1 0.31,0.29 0.31,0.29c0,0.01 -0.08,-0.11 -0.27,-0.2c-0.18,-0.09 -0.49,-0.12 -0.74,0.05c-0.26,0.16 -0.38,0.49 -0.34,0.72c0.03,0.24 0.15,0.37 0.14,0.37c0.01,0 -0.18,-0.19 -0.22,-0.44c-0.04,-0.24 0.07,-0.59 0.35,-0.76z" class="st0"/>
    <path id="svg_5" fill="#666766" d="m30.11,22.16c-1.46,1.85 -2.82,4.02 -3.95,6.32c-0.01,0.01 -0.02,0.03 -0.02,0.04c-0.02,0.04 -0.04,0.08 -0.06,0.12c0,0 0,0.01 -0.01,0.01c-0.04,0.09 -0.08,0.17 -0.12,0.26c0,0.01 -0.01,0.02 -0.01,0.03c-0.05,0.1 -0.09,0.2 -0.14,0.3c-0.02,0.04 -0.04,0.09 -0.06,0.13c0,0.01 -0.01,0.02 -0.01,0.03c-0.04,0.08 -0.07,0.16 -0.11,0.24c-0.02,0.04 -0.03,0.07 -0.05,0.11c-0.01,0.03 -0.03,0.06 -0.04,0.1c0,0 0,0 0,0c0,0.01 -0.01,0.02 -0.01,0.03c-0.06,0.13 -0.11,0.25 -0.16,0.38c-0.02,0.05 -0.04,0.1 -0.06,0.15c-0.02,0.04 -0.03,0.08 -0.05,0.12c0,0.01 -0.01,0.02 -0.01,0.03c-0.01,0.02 -0.02,0.04 -0.02,0.06c-0.1,0.25 -0.21,0.51 -0.3,0.76c-0.01,0.04 -0.03,0.07 -0.04,0.11c-0.34,0.88 -0.62,1.76 -0.86,2.61c-0.06,0.21 -0.12,0.43 -0.17,0.64c-0.05,0.2 -0.1,0.4 -0.14,0.6c-0.01,0.03 -0.02,0.07 -0.02,0.1c0,0.01 0,0.02 -0.01,0.03c-0.01,0.04 -0.02,0.08 -0.02,0.11c0,0.01 0,0.02 0,0.02c-0.01,0.04 -0.02,0.08 -0.03,0.12c0,0 0,0.01 0,0.01c-0.01,0.04 -0.02,0.09 -0.03,0.13c0,0 0,0 0,0.01c-0.01,0.03 -0.01,0.06 -0.02,0.08c0,0.02 -0.01,0.04 -0.01,0.05c0,0 0,0 0,0c-0.01,0.07 -0.02,0.14 -0.04,0.2c0,0 0,0 0,0c0,0.01 -0.01,0.03 -0.01,0.04c-0.01,0.04 -0.01,0.08 -0.02,0.12c-0.01,0.08 -0.03,0.15 -0.04,0.23c0,0 0,0 0,0.01c-0.01,0.05 -0.01,0.09 -0.02,0.14l0,0c-0.01,0.05 -0.01,0.1 -0.02,0.16c-0.02,0.11 -0.03,0.23 -0.05,0.34c-0.01,0.07 -0.02,0.14 -0.02,0.21c-0.01,0.12 -0.02,0.23 -0.03,0.34c0,0.05 -0.01,0.1 -0.01,0.15c-0.01,0.17 -0.02,0.34 -0.03,0.5c0,0 0,0.01 0,0.01c-0.01,0.17 -0.01,0.33 -0.01,0.49c0,0.01 0,0.02 0,0.03c0,0 0,0 0,0c-0.01,1.13 0.14,2.11 0.43,2.92c0.01,0.02 0.02,0.04 0.02,0.06c0.04,0.12 0.09,0.23 0.14,0.34c0.35,0.75 0.93,1.35 1.59,1.63l0,0c0.1,0.04 0.2,0.08 0.31,0.12c0.22,0.07 0.45,0.12 0.7,0.15c0,0 0,0 0,0l0,0c-0.11,-0.02 -0.21,-0.05 -0.31,-0.08c-0.3,-0.09 -0.57,-0.21 -0.82,-0.37c-0.68,-0.41 -1.23,-1.14 -1.5,-2c-0.03,-0.1 -0.06,-0.21 -0.09,-0.31c0,-0.01 0,-0.02 -0.01,-0.02c-0.08,-0.33 -0.13,-0.68 -0.16,-1.05c0,0.01 0,0.02 0,0.03c-0.04,-0.47 -0.03,-0.96 0.01,-1.49c0,0 0,0 0,0c0.01,-0.12 0.02,-0.25 0.04,-0.38c0,-0.03 0.01,-0.06 0.01,-0.09c0.01,-0.09 0.02,-0.19 0.04,-0.28c0.01,-0.04 0.01,-0.09 0.02,-0.13c0.02,-0.11 0.03,-0.21 0.05,-0.32c0.01,-0.07 0.03,-0.14 0.04,-0.2c0.02,-0.1 0.04,-0.2 0.06,-0.31l0,0c0,-0.01 0,-0.01 0,-0.02c0,0 0,-0.01 0,-0.01c0.02,-0.09 0.04,-0.17 0.06,-0.26c0,-0.02 0.01,-0.04 0.01,-0.06c0.08,-0.32 0.17,-0.65 0.27,-0.99c0.05,-0.18 0.11,-0.36 0.17,-0.54c0.01,-0.03 0.02,-0.06 0.03,-0.09c0.05,-0.16 0.11,-0.32 0.17,-0.48c0.39,-1.09 0.89,-2.22 1.48,-3.36c0.02,-0.05 0.05,-0.09 0.07,-0.14c0.13,-0.25 0.27,-0.5 0.4,-0.75c0.02,-0.03 0.03,-0.06 0.05,-0.09c0.01,-0.02 0.02,-0.04 0.03,-0.06c0.06,-0.1 0.12,-0.2 0.17,-0.3c0.07,-0.13 0.15,-0.26 0.22,-0.38c0.02,-0.03 0.03,-0.06 0.05,-0.08c0.08,-0.13 0.16,-0.26 0.24,-0.39c0.02,-0.04 0.05,-0.08 0.07,-0.12c0.2,-0.32 0.4,-0.64 0.61,-0.96c0.16,-0.25 0.33,-0.49 0.5,-0.73c0.03,-0.04 0.06,-0.09 0.09,-0.13c0,0 0,0 0,0c0.62,-0.88 1.27,-1.72 1.94,-2.52c2.38,-2.81 4.72,-4.31 5.15,-4.58c0.02,-0.01 0.05,-0.03 0.07,-0.04c0,0 0,0 0,0l0,0c0.03,-0.02 0.07,-0.04 0.1,-0.06l-0.68,2.43l0.6,-0.21c0,0 0.04,-0.01 0.09,-0.04c0.03,-0.02 0.06,-0.04 0.1,-0.07c0.05,-0.04 0.09,-0.1 0.13,-0.17c0.04,-0.09 0.27,-0.54 0.59,-1.09l0.61,-0.29l0,0c0.02,-0.01 0.04,-0.02 0.06,-0.04c0.07,-0.08 0.06,-0.19 -0.01,-0.26c-0.02,-0.02 -0.05,-0.04 -0.08,-0.04c0,0 0.28,-0.14 0.29,-0.15c0.07,-0.08 0.06,-0.19 -0.01,-0.26c-0.05,-0.04 -0.1,-0.06 -0.16,-0.05c-0.01,0 -0.02,0.01 -0.03,0.01l0,0l-0.02,0.01c0,0 0,0 0,0l-0.01,0c0.21,-0.34 0.42,-0.66 0.62,-0.94c0.02,-0.02 0.15,-0.26 0.22,-0.39c0.87,-0.66 1.56,-1.33 1.77,-1.88c0,0 0.15,-0.67 -1.11,-0.11l-0.58,0.09c0,0 -0.6,0.35 -1.5,1.03c-0.28,0 -0.58,-0.02 -0.9,-0.04l0.04,-0.03l0.02,-0.02l0,0l0,0c0.01,-0.01 0.02,-0.02 0.03,-0.03c0.04,-0.05 0.06,-0.13 0.05,-0.2c-0.03,-0.12 -0.15,-0.19 -0.26,-0.17c-0.03,0.01 -0.06,0.02 -0.08,0.04l0,0l-0.45,0.34c-0.06,-0.01 -0.11,-0.01 -0.17,-0.02l0.18,-0.13l0.02,-0.01l0,0l0,0c0.01,-0.01 0.02,-0.02 0.03,-0.03c0.04,-0.05 0.06,-0.13 0.05,-0.2c-0.03,-0.12 -0.15,-0.19 -0.26,-0.17c-0.03,0.01 -0.06,0.02 -0.08,0.04l0,0l-0.55,0.42c-0.96,-0.13 -1.76,-0.27 -1.9,-0.3c-0.27,-0.06 -0.49,0.1 -0.49,0.1l-0.64,0.43l3.61,1.46c-0.19,0.18 -0.39,0.36 -0.58,0.56c-0.12,0.12 -0.26,0.27 -0.41,0.42c-0.32,0.33 -0.65,0.68 -0.78,0.85c0.08,-0.11 0.19,-0.49 0.48,-0.85l-1.49,0.03c0,0 -0.35,0.03 -0.54,0.29c-0.34,0.36 -0.68,0.75 -1.02,1.15c-0.14,0.19 -0.48,0.6 -0.48,0.6zm8.11,-5.45l0.41,-0.06c-0.39,0.18 -0.84,0.49 -0.84,0.49c0,-0.13 0.32,-0.37 0.43,-0.43zm-14.82,23.52c0,0 0,-0.01 0,-0.02c-0.01,-0.07 -0.15,-1.19 0.08,-2.86c0.02,-0.12 0.03,-0.24 0.05,-0.36c0,-0.02 0.01,-0.04 0.01,-0.07c0.01,-0.09 0.03,-0.17 0.05,-0.26c0.04,-0.24 0.09,-0.49 0.15,-0.75c0,0 0,0 0,0c0.01,-0.04 0.02,-0.09 0.03,-0.13c0,0 0,-0.01 0,-0.01c0.01,-0.04 0.02,-0.08 0.03,-0.13c0,0 0,-0.01 0,-0.01c0.01,-0.04 0.02,-0.08 0.03,-0.12c0.05,-0.19 0.09,-0.38 0.15,-0.58c0.05,-0.2 0.11,-0.41 0.18,-0.62c0.24,-0.82 0.54,-1.67 0.88,-2.52c0.01,-0.03 0.03,-0.06 0.04,-0.1c0.12,-0.31 0.25,-0.62 0.39,-0.92c0.03,-0.06 0.06,-0.13 0.08,-0.19c0.09,-0.2 0.18,-0.4 0.28,-0.6c0,-0.01 0.01,-0.02 0.01,-0.03c0.01,-0.03 0.03,-0.06 0.04,-0.09c0.07,-0.15 0.14,-0.29 0.22,-0.44c0,-0.01 0.01,-0.01 0.01,-0.02c0.07,-0.14 0.14,-0.28 0.21,-0.42c0.04,-0.08 0.08,-0.16 0.12,-0.24c0,-0.01 0.01,-0.01 0.01,-0.02c0.04,-0.09 0.09,-0.17 0.13,-0.25c0.01,-0.02 0.02,-0.05 0.03,-0.07c0.05,-0.09 0.09,-0.18 0.14,-0.27c0,0 0,-0.01 0.01,-0.01c0.02,-0.03 0.03,-0.06 0.05,-0.09c0,-0.01 0.01,-0.02 0.01,-0.02c0.01,-0.03 0.03,-0.05 0.04,-0.08c0.01,-0.01 0.01,-0.02 0.02,-0.03c0.01,-0.02 0.03,-0.05 0.04,-0.07c0.01,-0.01 0.01,-0.03 0.02,-0.04c0.01,-0.02 0.02,-0.05 0.04,-0.07c0.01,-0.02 0.02,-0.03 0.03,-0.05c0.01,-0.02 0.02,-0.04 0.03,-0.06c0.01,-0.02 0.02,-0.04 0.03,-0.05c0.01,-0.02 0.02,-0.04 0.03,-0.06c0.01,-0.02 0.02,-0.04 0.03,-0.06c0.01,-0.02 0.03,-0.05 0.04,-0.07c0.05,-0.08 0.09,-0.16 0.14,-0.24c0.01,-0.01 0.02,-0.03 0.02,-0.04c0.01,-0.01 0.01,-0.03 0.02,-0.04c0,0 0,0 0,0c0,0 0,0 0,0c0.78,-1.35 1.57,-2.55 2.37,-3.51l0.42,-0.25c-0.82,1 -1.72,2.38 -2.59,3.88c0,0 0,0 0,0c-0.03,0.04 -0.05,0.09 -0.08,0.13c-0.03,0.06 -0.07,0.11 -0.1,0.17c-0.01,0.02 -0.03,0.04 -0.04,0.07c-0.01,0.02 -0.03,0.05 -0.04,0.07c-0.01,0.02 -0.02,0.03 -0.03,0.05c-0.01,0.02 -0.03,0.04 -0.04,0.06c-0.01,0.02 -0.02,0.03 -0.03,0.05c-0.01,0.02 -0.02,0.04 -0.03,0.06c-0.01,0.02 -0.02,0.04 -0.03,0.05c-0.01,0.02 -0.02,0.03 -0.03,0.05c-0.01,0.02 -0.02,0.04 -0.03,0.06c-0.01,0.01 -0.02,0.03 -0.03,0.04c-0.01,0.02 -0.02,0.04 -0.04,0.06c-0.01,0.01 -0.01,0.02 -0.02,0.04c-0.01,0.02 -0.03,0.05 -0.04,0.07c-0.01,0.01 -0.01,0.02 -0.02,0.03c-0.02,0.03 -0.03,0.05 -0.05,0.08c0,0.01 -0.01,0.01 -0.01,0.02c-0.03,0.05 -0.06,0.1 -0.09,0.16c-0.01,0.02 -0.02,0.04 -0.04,0.06c-0.09,0.16 -0.18,0.33 -0.27,0.49c-0.08,0.14 -0.15,0.29 -0.22,0.43c0,0.01 -0.01,0.01 -0.01,0.02c-0.08,0.15 -0.15,0.3 -0.22,0.45c-0.01,0.03 -0.03,0.05 -0.04,0.08c-0.01,0.01 -0.01,0.03 -0.02,0.04c-0.1,0.21 -0.19,0.41 -0.29,0.62c-0.03,0.06 -0.06,0.12 -0.08,0.18c-0.16,0.35 -0.31,0.7 -0.45,1.06c-0.01,0.03 -0.02,0.06 -0.03,0.08c-0.33,0.82 -0.62,1.64 -0.86,2.43c-0.06,0.21 -0.12,0.41 -0.18,0.61c-0.05,0.19 -0.1,0.38 -0.15,0.57c-0.01,0.04 -0.02,0.08 -0.03,0.12c0,0 0,0.01 0,0.01c-0.01,0.04 -0.02,0.09 -0.03,0.13c0,0 0,0 0,0c-0.07,0.28 -0.12,0.55 -0.17,0.82c-0.03,0.17 -0.06,0.34 -0.09,0.5c-0.03,0.18 -0.06,0.35 -0.08,0.52c0.03,-0.18 0.06,-0.36 0.09,-0.55c0.01,-0.05 0.02,-0.11 0.03,-0.16c0.07,-0.38 0.17,-0.78 0.29,-1.22c0,0 0,0 0,0c0.01,-0.04 0.02,-0.08 0.04,-0.12c0.05,-0.18 0.11,-0.36 0.17,-0.55c0.06,-0.19 0.13,-0.39 0.2,-0.59c0.39,-1.12 0.89,-2.32 1.46,-3.48c0.03,-0.06 0.05,-0.11 0.08,-0.17c0.11,-0.22 0.22,-0.44 0.33,-0.66c0.01,-0.02 0.02,-0.04 0.03,-0.06c0.01,-0.02 0.03,-0.05 0.04,-0.07c0.05,-0.09 0.09,-0.18 0.14,-0.27c0.05,-0.09 0.09,-0.17 0.13,-0.25c0.08,-0.14 0.15,-0.28 0.22,-0.41c0.04,-0.07 0.07,-0.14 0.11,-0.2c1.27,-2.08 2.88,-4.33 4.06,-5.65l0.54,-0.3c-0.97,1.12 -2.42,3.06 -3.64,4.94c0,0.01 -0.01,0.01 -0.01,0.02c-0.01,0.01 -0.02,0.03 -0.03,0.04c-0.02,0.02 -0.03,0.05 -0.05,0.07c-0.01,0.01 -0.02,0.02 -0.02,0.03c-0.02,0.02 -0.03,0.05 -0.05,0.07c-0.01,0.01 -0.01,0.02 -0.02,0.03c-0.02,0.02 -0.03,0.05 -0.05,0.07c-0.01,0.01 -0.01,0.02 -0.02,0.03c-0.01,0.02 -0.03,0.04 -0.04,0.07c-0.01,0.01 -0.01,0.02 -0.02,0.03c-0.01,0.02 -0.03,0.04 -0.04,0.06c-0.01,0.01 -0.01,0.02 -0.02,0.03c-0.01,0.02 -0.03,0.04 -0.04,0.06c-0.01,0.02 -0.02,0.03 -0.03,0.05c-0.01,0.01 -0.02,0.03 -0.03,0.04c-0.03,0.04 -0.06,0.09 -0.08,0.13c-0.01,0.01 -0.02,0.03 -0.03,0.04c-0.09,0.14 -0.18,0.28 -0.26,0.41c-0.09,0.14 -0.18,0.28 -0.26,0.42c-0.12,0.2 -0.23,0.38 -0.32,0.54c-0.01,0.02 -0.02,0.05 -0.04,0.07c0,0.01 -0.01,0.02 -0.01,0.02c-0.01,0.02 -0.02,0.03 -0.02,0.05c-0.12,0.23 -0.24,0.46 -0.36,0.69c-0.03,0.05 -0.05,0.11 -0.08,0.16c-0.59,1.18 -1.1,2.34 -1.49,3.43c-0.07,0.2 -0.14,0.39 -0.2,0.58c-0.06,0.18 -0.12,0.37 -0.17,0.55c-0.13,0.44 -0.24,0.87 -0.32,1.28c-0.01,0.02 -0.01,0.05 -0.02,0.07c-0.01,0.04 -0.02,0.08 -0.03,0.12c-0.01,0.04 -0.02,0.09 -0.03,0.13c-0.03,0.14 -0.05,0.27 -0.07,0.4c0,0 0,0 0,0c-0.26,1.52 -0.16,2.51 -0.17,2.5z" class="st0"/>
    <polygon id="svg_6" fill="#666766" points="27.649999618530273,23.290000453591347 27.649999618530273,23.290000453591347 27.649999618530273,23.290000453591347 " class="st0"/>
    <path id="svg_7" fill="#666766" d="m23.34,36.14c-0.11,-0.12 -0.21,-0.23 -0.31,-0.34c-0.95,-1.13 -1.74,-2.33 -2.11,-3.51c-0.16,-0.47 -0.23,-0.96 -0.23,-1.45c0,-0.07 0,-0.14 0.01,-0.21c0,0 0,0 0,0c0.01,-0.3 0.06,-0.6 0.13,-0.89c0,0 0,0 0,-0.01c0.02,-0.07 0.03,-0.13 0.05,-0.2c0,-0.01 0,-0.01 0,-0.02c0.02,-0.06 0.04,-0.13 0.06,-0.19c0,-0.01 0.01,-0.02 0.01,-0.02c0.02,-0.06 0.04,-0.12 0.07,-0.18c0,-0.01 0.01,-0.02 0.01,-0.03c0.02,-0.06 0.05,-0.11 0.07,-0.17c0.01,-0.01 0.01,-0.02 0.02,-0.03c0.03,-0.05 0.05,-0.11 0.08,-0.16c0.01,-0.01 0.01,-0.02 0.02,-0.04c0.03,-0.05 0.06,-0.1 0.08,-0.15c0.01,-0.01 0.02,-0.03 0.02,-0.04c0.03,-0.05 0.06,-0.1 0.09,-0.14c0.01,-0.01 0.02,-0.03 0.03,-0.04c0.03,-0.05 0.06,-0.09 0.09,-0.14c0.01,-0.01 0.02,-0.03 0.03,-0.04c0.03,-0.04 0.06,-0.09 0.1,-0.13c0.01,-0.01 0.02,-0.03 0.04,-0.04c0.03,-0.04 0.07,-0.08 0.1,-0.12c0.01,-0.02 0.03,-0.03 0.04,-0.05c0.03,-0.04 0.07,-0.08 0.1,-0.12c0.01,-0.02 0.03,-0.03 0.04,-0.05c0.04,-0.04 0.07,-0.07 0.11,-0.11c0.02,-0.02 0.03,-0.03 0.05,-0.05c0.04,-0.03 0.07,-0.07 0.11,-0.1c0.02,-0.02 0.03,-0.03 0.05,-0.05c0.04,-0.03 0.07,-0.06 0.11,-0.09c0.02,-0.02 0.04,-0.03 0.06,-0.04c0.04,-0.03 0.08,-0.06 0.12,-0.09c0.02,-0.01 0.04,-0.03 0.06,-0.04c0.04,-0.03 0.08,-0.05 0.12,-0.08c0.02,-0.01 0.04,-0.03 0.06,-0.04c0.04,-0.03 0.08,-0.05 0.12,-0.07c0.02,-0.01 0.05,-0.03 0.07,-0.04c0.04,-0.02 0.08,-0.05 0.12,-0.07c0.02,-0.01 0.05,-0.02 0.07,-0.04c0.04,-0.02 0.08,-0.04 0.12,-0.06c0.03,-0.01 0.05,-0.02 0.08,-0.03c0.04,-0.02 0.08,-0.04 0.13,-0.06c0.03,-0.01 0.05,-0.02 0.08,-0.03c0.04,-0.02 0.08,-0.03 0.13,-0.05c0.03,-0.01 0.05,-0.02 0.08,-0.03c0.04,-0.01 0.09,-0.03 0.13,-0.04c0.03,-0.01 0.06,-0.02 0.08,-0.02c0.04,-0.01 0.09,-0.03 0.13,-0.04c0.03,-0.01 0.06,-0.01 0.09,-0.02c0.04,-0.01 0.09,-0.02 0.13,-0.03c0.03,-0.01 0.06,-0.01 0.09,-0.02c0.04,-0.01 0.09,-0.02 0.13,-0.02c0.03,0 0.06,-0.01 0.09,-0.01c0.05,-0.01 0.09,-0.01 0.14,-0.02c0.03,0 0.06,0 0.09,-0.01c0.05,0 0.1,-0.01 0.14,-0.01c0.02,0 0.04,0 0.06,0c0.06,0 0.11,0 0.17,0c0.07,0 0.14,0 0.21,0c0.03,0 0.06,0 0.1,0.01c0.03,0 0.07,0 0.1,0.01c0.05,0 0.1,0.01 0.16,0.02c0.01,0 0.02,0 0.04,0c0.33,0.04 0.64,0.12 0.95,0.23c0,0 0,0 0,0c0.04,0.02 0.09,0.03 0.13,0.05c0.06,-0.1 0.12,-0.21 0.18,-0.31c-0.47,-0.19 -0.96,-0.3 -1.47,-0.34c-0.02,0 -0.05,0 -0.07,0c-0.1,-0.01 -0.21,-0.01 -0.32,-0.01c0,0 -0.01,0 -0.01,0c-0.53,0 -1.03,0.08 -1.51,0.23c-0.09,-0.2 -0.19,-0.41 -0.33,-0.63c-0.84,-1.45 -2.59,-2.95 -4.52,-4.28c-0.48,-0.56 -0.98,-1.18 -1.43,-1.81c-0.78,-1.09 -1.37,-2.23 -1.53,-3.13c-0.18,-0.91 0.08,-1.5 0.05,-1.5l0,0c0,0 0,0 0,0c0.01,-0.01 -0.34,0.55 -0.22,1.52c0.1,0.92 0.61,2.07 1.36,3.15c-1.04,-1.29 -1.79,-2.74 -1.88,-4.07c-0.15,-1.94 0.83,-3.07 0.8,-3.11c0,0 0,0 0,0c0,0 0,0 0,0c-0.01,0.05 -1.04,1.14 -0.97,3.12c0.05,1.42 0.81,2.97 1.9,4.33c-0.29,-0.3 -0.56,-0.58 -0.79,-0.86c-2.51,-3.04 -1.03,-5.93 -1.03,-5.93c0,0 0,0 0,0l0,0c-3.46,2.92 -1.92,6.76 0.86,10.12c-0.12,-0.06 -0.25,-0.11 -0.37,-0.17c-1.58,-0.83 -2.87,-2.36 -3.21,-3.77c-0.36,-1.4 -0.1,-2.42 -0.14,-2.42c0,0 0,0 0,0s0,0 0,0c0.02,-0.01 -0.32,0.99 -0.02,2.46c0.19,0.99 0.84,2.06 1.74,2.92c-2.76,-2.08 -2.19,-4.89 -2.19,-4.89c0,0 0,0 0,0l0,0c-2.41,3.56 0.09,6.66 3.54,8.99c-0.08,-0.02 -0.15,-0.03 -0.23,-0.05c-0.09,-0.02 -0.18,-0.05 -0.27,-0.08c-1.36,-0.41 -2.61,-1.28 -3.21,-2.25c-0.66,-1.02 -0.73,-1.91 -0.77,-1.89l0,0c0,0 0,0 0,0c0.01,-0.01 0,0.88 0.62,1.98c0.45,0.83 1.36,1.61 2.42,2.11c-3,-1.01 -3.23,-3.61 -3.23,-3.61c0,0 0,0 0,0c0,0 0,0 0,0c-1.18,3.72 1.97,5.71 5.62,6.77c0.12,0.04 0.24,0.07 0.37,0.1c0.01,0 0.02,0 0.03,0.01c0.39,0.11 0.79,0.2 1.19,0.29c-0.66,0.09 -1.3,0.21 -1.88,0.25c-0.39,0.01 -0.77,-0.05 -1.11,-0.15c-0.34,-0.1 -0.65,-0.25 -0.91,-0.41c-1.05,-0.67 -1.47,-1.41 -1.49,-1.38l0,0c0,0 0,0 0,0c0,-0.01 0.35,0.77 1.4,1.53c0.19,0.13 0.41,0.26 0.65,0.37c-0.06,-0.02 -0.12,-0.03 -0.17,-0.05c-0.4,-0.12 -0.76,-0.3 -1.05,-0.51c-1.01,-0.73 -1.34,-1.6 -1.38,-1.59l0,0c0,0 0,0 0,0c0.03,0.04 0.28,0.92 1.27,1.72c0.31,0.25 0.69,0.46 1.13,0.61c-0.12,-0.02 -0.23,-0.05 -0.34,-0.08c-1.61,-0.48 -2.17,-1.76 -2.17,-1.76c0,0 0,0 0,0c0,0 0,0 0,0c0.01,0.77 0.2,1.4 0.52,1.9l0.03,0.07c0,0 0.04,0.05 0.11,0.13c0.48,0.62 1.18,1.04 2.02,1.29c1.37,0.42 3.1,0.42 4.74,0.25c-1.06,0.49 -2.22,0.78 -3.15,0.89c-1.17,0.15 -1.99,0.02 -1.99,0.05l0,0l0,0c0,0 0.81,0.21 2.01,0.12c0.47,-0.03 1,-0.1 1.55,-0.23c-1.4,0.48 -2.95,0.58 -3.4,0.5c0,0 0.09,0.08 0.3,0.17c0,0 0,0 0.01,0c0.02,0.01 0.04,0.02 0.06,0.03c0,0 0,0 0,0c0.12,0.05 0.26,0.1 0.44,0.15c0,0 0,0 0.01,0c0.03,0.01 0.07,0.02 0.1,0.03c0,0 0.01,0 0.01,0c0.04,0.01 0.07,0.02 0.11,0.03c0,0 0,0 0,0c0.16,0.03 0.35,0.06 0.56,0.09c0,0 0,0 0,0c0.05,0 0.1,0.01 0.15,0.01c0.01,0 0.02,0 0.03,0c0.05,0 0.1,0.01 0.15,0.01c0.01,0 0.02,0 0.03,0c0.05,0 0.1,0 0.15,0.01c0.01,0 0.01,0 0.02,0c0.23,0.01 0.48,0 0.75,-0.02c0.02,0 0.04,0 0.05,0c0.06,0 0.11,-0.01 0.17,-0.01c0.03,0 0.05,0 0.08,-0.01c0.06,-0.01 0.11,-0.01 0.17,-0.02c0.03,0 0.06,-0.01 0.08,-0.01c0.06,-0.01 0.12,-0.01 0.18,-0.02c0.01,0 0.01,0 0.02,0l0,0c0.46,-0.06 0.98,-0.16 1.55,-0.31c-0.4,0.24 -0.8,0.45 -1.18,0.62c0,0 0,0 0,0c-0.12,0.05 -0.23,0.1 -0.35,0.15c-0.01,0 -0.02,0.01 -0.03,0.01c-0.1,0.04 -0.2,0.08 -0.3,0.12c-0.01,0 -0.02,0.01 -0.02,0.01c-1.11,0.42 -1.93,0.48 -1.93,0.51l0,0c0,0 0,0 0,0c0,0 0.83,0.01 1.98,-0.34c0.01,0 0.02,-0.01 0.03,-0.01c0.31,-0.1 0.64,-0.22 0.98,-0.37c-0.21,0.12 -0.43,0.23 -0.64,0.33c-0.03,0.01 -0.05,0.02 -0.08,0.04c-0.04,0.02 -0.08,0.04 -0.12,0.06c-0.03,0.01 -0.06,0.03 -0.09,0.04c-0.04,0.02 -0.07,0.03 -0.11,0.05c-0.03,0.01 -0.06,0.03 -0.09,0.04c-0.04,0.01 -0.07,0.03 -0.11,0.04c-0.03,0.01 -0.06,0.02 -0.09,0.03c-0.04,0.01 -0.07,0.03 -0.11,0.04c-0.03,0.01 -0.05,0.02 -0.08,0.03c-0.04,0.01 -0.08,0.03 -0.12,0.04c-0.02,0.01 -0.04,0.01 -0.06,0.02c-0.06,0.02 -0.11,0.04 -0.16,0.06c0,0 -0.01,0 -0.01,0c-0.06,0.02 -0.12,0.04 -0.17,0.05c-0.01,0 -0.02,0 -0.02,0.01c-0.05,0.01 -0.09,0.03 -0.13,0.04c-0.01,0 -0.02,0.01 -0.04,0.01c-0.04,0.01 -0.07,0.02 -0.11,0.03c-0.01,0 -0.02,0.01 -0.04,0.01c-0.03,0.01 -0.07,0.02 -0.1,0.02c-0.01,0 -0.02,0 -0.03,0.01c-0.03,0.01 -0.06,0.01 -0.09,0.02c-0.01,0 -0.02,0 -0.03,0c-0.03,0.01 -0.06,0.01 -0.09,0.01c0,0 -0.01,0 -0.01,0c-0.03,0 -0.06,0.01 -0.08,0.01c0,0 1.36,0.67 4.4,-0.75c-0.37,0.32 -0.74,0.61 -1.09,0.84c-0.98,0.66 -1.77,0.92 -1.76,0.94c0,0 0.81,-0.18 1.85,-0.8c0.22,-0.13 0.46,-0.29 0.7,-0.46c-0.91,0.82 -1.91,1.41 -2.28,1.53c0,0 1.28,0.27 3.55,-1.39c-0.21,0.24 -0.42,0.47 -0.63,0.67c-0.84,0.83 -1.58,1.22 -1.56,1.24c0,0 0.77,-0.32 1.67,-1.11c0.13,-0.12 0.27,-0.24 0.41,-0.38c-0.67,0.86 -1.46,1.54 -1.77,1.69c0,0 1.05,0.04 2.66,-1.53c-0.11,0.18 -0.22,0.35 -0.34,0.5c-0.68,0.97 -1.33,1.48 -1.31,1.5c0,0 0.7,-0.46 1.44,-1.4c0.1,-0.13 0.21,-0.27 0.31,-0.41c-0.53,0.93 -1.19,1.7 -1.47,1.89c0,0 0.87,-0.1 2.04,-1.47c0.01,0.01 0.01,0.02 0.02,0.03c-0.01,0.02 -0.02,0.04 -0.03,0.06c-0.51,1.06 -1.07,1.68 -1.05,1.69c0,0 0.61,-0.56 1.2,-1.61c0,0 0.01,0.01 0.01,0.01c-0.36,0.82 -0.79,1.48 -1,1.68c0,0 0.59,-0.16 1.35,-1.12c0.05,-0.2 0.09,-0.41 0.13,-0.62zm-9.31,-18.4c0,0.01 0.01,0.02 0.01,0.02c0,-0.01 -0.39,-0.81 -0.37,-1.71c0,0 0,0 0,0c0,0 0,0 0,0c0.08,-1.51 0.92,-2.29 0.95,-2.32c0,0 0,0 0,0c0.03,0 -0.78,0.84 -0.79,2.32c0,0.07 0,0.15 0,0.22c0.05,1.41 1.25,2.75 2.66,3.71c0.27,0.19 0.56,0.36 0.84,0.52c1.78,1.01 3.32,2.22 4.28,3.27c0.96,1.01 1.32,1.86 1.31,1.9c0,0 0,0.01 0,0.01c0,0 -0.42,-0.81 -1.44,-1.78c-1,-0.99 -2.55,-2.12 -4.31,-3.12c-0.14,-0.07 -0.27,-0.15 -0.41,-0.24c-1.12,-0.71 -2.19,-1.7 -2.73,-2.8zm5.89,12.46c0,0 -0.57,-0.17 -1.43,-0.15c-0.86,-0.01 -1.95,0.21 -3.01,0.41c-1.06,0.18 -2.18,0.07 -2.76,-0.49c-0.41,-0.41 -0.51,-0.81 -0.54,-0.99c0,0 0,0 0,0c0,0 0,0 0,-0.01c0.03,0.08 0.08,0.17 0.13,0.26c0.09,0.18 0.24,0.41 0.49,0.63c0.01,0.01 0.02,0.01 0.02,0.02c0.43,0.34 0.98,0.39 0.99,0.39c-0.01,0 1.05,0.05 1.63,-0.05c0.18,-0.03 0.36,-0.07 0.54,-0.1c0.58,-0.1 1.17,-0.18 1.71,-0.21c0.28,-0.02 0.55,-0.02 0.8,0c0.88,0.04 1.45,0.27 1.43,0.29c0,-0.01 0,-0.01 0,0c0,-0.01 0.01,0 0,0zm0.31,-2.24c0.01,0.01 0.02,0.01 0.01,0.01c0.01,0 0,-0.01 -0.01,-0.01c-0.19,-0.14 -2.43,-1.1 -5.18,-1.22c-1.41,-0.18 -3,-0.57 -3.79,-1.51c-0.51,-0.61 -0.59,-1.21 -0.59,-1.55c0,-0.11 0.01,-0.2 0.01,-0.25c0.01,0.04 0.01,0.09 0.02,0.13c0.02,0.3 0.09,0.95 0.67,1.56c0.05,0.05 0.1,0.1 0.16,0.15c0.06,0.07 0.79,0.46 1.16,0.66c0.73,0.28 1.58,0.43 2.39,0.53c1.42,0.12 2.78,0.39 3.71,0.75c0.85,0.33 1.36,0.67 1.44,0.75c0.01,0 0.02,0.01 0.01,0.01c0.01,-0.01 0,-0.01 -0.01,-0.01c-0.01,-0.01 -0.02,-0.02 -0.03,-0.02c0.02,0 0.03,0.01 0.03,0.02zm-0.55,-2.59c-1.06,-0.67 -2.64,-1.32 -4.38,-1.82c-1.74,-0.46 -3.63,-1.6 -3.99,-3.15c-0.08,-0.32 -0.11,-0.61 -0.11,-0.88c0,-0.94 0.39,-1.52 0.4,-1.55c0,0 0,0 0,0c0,0 -0.03,0.07 -0.07,0.19c-0.06,0.12 -0.19,0.45 -0.25,0.92c-0.02,0.11 -0.02,0.23 -0.02,0.36c-0.01,1.48 1.08,2.26 1.09,2.27c-0.01,-0.01 1.91,1.25 3.03,1.55c0.74,0.21 1.44,0.46 2.09,0.74c0.9,0.38 1.69,0.8 2.29,1.23c0.24,0.17 0.45,0.33 0.63,0.49c0.6,0.52 0.87,0.93 0.85,0.94c0,0 0,0 0,0c0.01,0.01 -0.49,-0.64 -1.56,-1.29z" class="st0"/>
    <polygon id="svg_8" fill="#666766" points="25.899999618530273,28.630000606179237 25.899999618530273,28.630000606179237 25.899999618530273,28.630000606179237 25.889999389648438,28.630000606179237 " class="st0"/>
    <path id="svg_9" fill="#666766" d="m26.64,27.18c0,0 0,0 0,0c0,0 0,0 0,0c-0.34,-0.1 -0.69,-0.15 -1.04,-0.15c-0.02,0 -0.04,0 -0.06,0c-1.91,0 -3.56,1.34 -3.95,3.19c-0.05,0.2 -0.08,0.4 -0.09,0.61c-0.01,0.14 -0.01,0.28 0,0.41c0,0.07 0.03,0.26 0.03,0.26c0.11,0.79 0.46,1.33 0.44,1.32c-0.02,-0.05 -0.03,-0.1 -0.05,-0.15c0,0 0,-0.01 0,-0.01l0,0c-0.35,-1.15 -0.05,-1.96 -0.05,-1.96c0.01,0.86 0.5,1.83 0.65,2.12l0,0l0,0c0.31,0.59 0.71,1.17 1.17,1.75c0.05,-0.21 0.11,-0.42 0.17,-0.64c-0.01,-0.02 -0.03,-0.03 -0.04,-0.05c-0.13,-0.2 -0.56,-0.66 -0.87,-1.28c0,0 0,0 0,0c0,0 -0.01,-0.01 -0.01,-0.03c-0.01,-0.02 -0.02,-0.04 -0.03,-0.06c0,-0.01 -0.01,-0.02 -0.01,-0.03c-0.18,-0.43 -0.69,-1.98 0.55,-3.27c0,0 0,0 0.01,0c0.34,-0.38 0.87,-0.76 1.54,-0.91c0.12,-0.03 0.24,-0.05 0.36,-0.06c0.24,-0.02 0.49,-0.01 0.73,0.03c-0.01,-0.02 0.53,-1.06 0.55,-1.09z" class="st0"/>
    <path id="svg_10" fill="#666766" d="m30.34,27.76c0,0 0.01,0 0,0l0.01,0c0,0 0,0.01 -0.01,0z" class="st0"/>
   </g>
   <path id="svg_11" fill="#666766" d="m22.11,33.14c0,0 0.96,1.48 1.44,2.01c0,0 -0.06,0.16 -0.11,0.49c0,0 -1.19,-1.6 -1.33,-2.5z" class="st0"/>
   <g id="svg_12">
    <path id="svg_13" fill="#666766" d="m49.52,3.79l0.1,0.03l0.27,-1.24l-0.09,-0.02c-0.57,-0.16 -1.16,-0.32 -1.76,-0.47l-0.1,-0.03l-0.25,1.24l0.09,0.02c0.09,0.02 0.18,0.05 0.27,0.07c-0.37,1.82 -0.74,3.63 -1.1,5.42c-0.1,0.52 -0.22,0.79 -0.37,0.89c-0.07,0.05 -0.16,0.05 -0.27,0.03c-0.28,-0.07 -0.41,-0.27 -0.25,-1.14c0.34,-1.8 0.68,-3.61 1.03,-5.44c0.09,0.02 0.18,0.04 0.28,0.07l0.1,0.02l0.24,-1.25l-0.09,-0.02c-0.64,-0.16 -1.3,-0.3 -1.95,-0.44l-0.1,-0.02l-0.21,1.26l0.09,0.02c0.15,0.03 0.3,0.06 0.45,0.09c-0.35,1.95 -0.69,3.89 -1.03,5.81c-0.2,1.16 0.25,2.04 1.14,2.25l0,0c0.1,0.02 0.21,0.04 0.31,0.04c0.24,0 0.47,-0.07 0.67,-0.2c0.46,-0.29 0.79,-0.89 0.98,-1.78c0.37,-1.76 0.75,-3.54 1.14,-5.34c0.13,0.05 0.27,0.09 0.41,0.13z" class="st0"/>
    <path id="svg_14" fill="#666766" d="m42.99,0.9c-0.31,-0.05 -0.61,0.03 -0.89,0.23c-0.73,0.54 -1.23,1.94 -1.5,4.16c-0.38,3.08 -0.03,4.6 1.08,4.79c0.06,0.01 0.12,0.02 0.18,0.02c0.22,0 0.43,-0.07 0.62,-0.21c0.68,-0.49 1.19,-1.8 1.55,-4.03c0.36,-2.22 0.27,-3.73 -0.27,-4.47c-0.2,-0.27 -0.46,-0.44 -0.77,-0.49zm-0.24,4.8c-0.26,1.72 -0.47,2.82 -0.75,3.03c-0.04,0.03 -0.08,0.04 -0.12,0.03c-0.32,-0.05 -0.32,-0.87 0,-3.22c0.26,-1.88 0.46,-3.02 0.77,-3.24c0.05,-0.03 0.09,-0.05 0.15,-0.04c0.38,0.06 0.29,1.15 -0.05,3.44z" class="st0"/>
    <path id="svg_15" fill="#666766" d="m53.65,6.45c0.4,-1.45 -0.12,-2.66 -1.32,-3.09c-0.56,-0.2 -1.15,-0.39 -1.75,-0.58l-0.1,-0.03l-0.28,1.24l0.09,0.03c0.17,0.05 0.33,0.1 0.5,0.15c-0.49,2.06 -0.98,4.15 -1.46,6.21c-0.15,-0.04 -0.3,-0.08 -0.45,-0.13l-0.1,-0.03l-0.27,1.2l0.09,0.02c0.64,0.17 1.29,0.36 1.91,0.55l0.1,0.03l0.3,-1.18l-0.09,-0.03c-0.13,-0.04 -0.26,-0.08 -0.39,-0.12c0.21,-0.85 0.42,-1.71 0.63,-2.57c0.07,0.02 0.14,0.04 0.2,0.05c-0.05,1.31 -0.1,2.63 -0.16,3.93l0,0.08l0.07,0.02c0.36,0.11 0.71,0.23 1.05,0.34l0.1,0.03l0.32,-1.16l-0.09,-0.03c-0.1,-0.04 -0.2,-0.07 -0.31,-0.1c0.04,-1.06 0.08,-2.11 0.11,-3.14c0.63,-0.26 1.06,-0.82 1.3,-1.69zm-1.18,-0.42c-0.12,0.47 -0.29,0.75 -0.51,0.87c-0.16,0.09 -0.36,0.09 -0.61,0.02c0.19,-0.79 0.39,-1.58 0.59,-2.37c0.61,0.25 0.75,0.65 0.53,1.48z" class="st0"/>
    <path id="svg_16" fill="#666766" d="m40.44,0.68c-1.25,-0.16 -2.55,-0.29 -3.86,-0.39l-0.1,-0.01l-0.26,3.39l0.1,0.01c0.25,0.02 0.51,0.04 0.76,0.07l0.1,0.01l0.19,-2.27c0.14,0.01 0.28,0.03 0.42,0.04c-0.2,2.19 -0.4,4.37 -0.59,6.54c-0.15,-0.02 -0.29,-0.03 -0.44,-0.04l-0.1,-0.01l-0.11,1.25l0.1,0.01c0.67,0.07 1.35,0.14 2.01,0.23l0.1,0.01l0.13,-1.25l-0.1,-0.01c-0.15,-0.02 -0.29,-0.04 -0.44,-0.05c0.22,-2.18 0.44,-4.36 0.66,-6.55c0.14,0.02 0.28,0.03 0.42,0.05l-0.24,2.26l0.1,0.01c0.25,0.03 0.5,0.06 0.75,0.1l0.1,0.01l0.39,-3.39l-0.09,-0.02z" class="st0"/>
    <path id="svg_17" fill="#666766" d="m5.83,11.27c-0.1,0.03 -0.2,0.07 -0.3,0.1c-0.48,-0.87 -0.97,-1.74 -1.46,-2.59c0.39,-0.64 0.46,-1.37 0.22,-2.24c-0.21,-0.76 -0.61,-1.31 -1.14,-1.54c-0.43,-0.2 -0.94,-0.17 -1.45,0.08c-0.56,0.27 -1.1,0.56 -1.63,0.85l-0.07,0.04l0.37,1.12l0.1,-0.06c0.14,-0.08 0.29,-0.15 0.43,-0.23c0.6,1.88 1.21,3.77 1.79,5.61c-0.14,0.06 -0.29,0.12 -0.43,0.18l-0.08,0.03l0.35,1.08l0.1,-0.04c0.6,-0.23 1.21,-0.46 1.83,-0.68l0.09,-0.03l-0.33,-1.13l-0.1,0.04c-0.12,0.05 -0.24,0.09 -0.37,0.14c-0.24,-0.79 -0.48,-1.59 -0.73,-2.39c0.06,-0.03 0.13,-0.06 0.19,-0.1c0.6,1.05 1.2,2.13 1.78,3.2l0.04,0.07l0.08,-0.01c0.34,-0.12 0.7,-0.24 1.05,-0.35l0.09,-0.03l-0.31,-1.16l-0.11,0.04zm-3.15,-2.79c-0.23,-0.73 -0.45,-1.47 -0.68,-2.21c0.27,-0.12 0.48,-0.14 0.64,-0.07c0.2,0.09 0.36,0.35 0.49,0.8c0.26,0.88 0.01,1.24 -0.45,1.48z" class="st0"/>
    <path id="svg_18" fill="#666766" d="m29.27,7.65c-0.24,-2.12 -0.5,-4.27 -0.78,-6.39c0.13,0 0.27,0 0.4,0l0.1,0l0,-1.25l-0.1,0c-0.92,0 -1.84,0.02 -2.76,0.04l-0.1,0l0.04,1.25l0.1,0c0.13,0 0.27,-0.01 0.4,-0.01c-0.21,2.13 -0.4,4.29 -0.58,6.42c-0.11,0 -0.23,0.01 -0.34,0.01l-0.1,0l0.05,1.25l0.1,0c0.61,-0.03 1.22,-0.04 1.82,-0.06l0.1,0l-0.02,-1.25l-0.1,0c-0.11,0 -0.22,0 -0.33,0.01c0.04,-0.59 0.08,-1.19 0.12,-1.78c0.22,0 0.44,-0.01 0.66,-0.01c0.06,0.59 0.12,1.18 0.17,1.77c-0.11,0 -0.22,0 -0.33,0l-0.1,0l0.02,1.25l0.1,0c0.6,-0.01 1.21,-0.01 1.82,-0.01l0.1,0l0.01,-1.25l-0.1,0c-0.14,0.01 -0.26,0.01 -0.37,0.01zm-1.44,-3.02c-0.17,0 -0.34,0.01 -0.5,0.01c0.06,-1.1 0.13,-2.21 0.2,-3.3c0.1,1.09 0.2,2.2 0.3,3.29z" class="st0"/>
    <path id="svg_19" fill="#666766" d="m32.27,0.05l-0.1,0l-0.04,1.25l0.1,0c0.11,0 0.23,0.01 0.34,0.01c-0.19,0.63 -0.38,1.26 -0.57,1.89c-0.16,-0.64 -0.33,-1.29 -0.5,-1.92c0.12,0 0.23,0.01 0.35,0.01l0.1,0l0.04,-1.25l-0.1,0c-0.67,-0.02 -1.35,-0.03 -2.02,-0.04l-0.1,0l-0.01,1.25l0.18,0c0.11,0 0.21,0 0.32,0c0.37,1.24 0.73,2.5 1.07,3.74l-0.07,2.68c-0.13,0 -0.26,-0.01 -0.39,-0.01l-0.1,0l-0.02,1.25l0.1,0c0.63,0.02 1.28,0.04 1.92,0.07l0.1,0l0.05,-1.25l-0.1,0c-0.13,-0.01 -0.26,-0.01 -0.39,-0.02l0.1,-2.78c0.39,-1.19 0.79,-2.39 1.19,-3.57c0.13,0.01 0.26,0.01 0.4,0.02l0.1,0.01l0.06,-1.25l-0.1,-0.01c-0.62,-0.03 -1.26,-0.06 -1.91,-0.08z" class="st0"/>
    <path id="svg_20" fill="#666766" d="m19.26,8.25c-0.11,0.01 -0.22,0.03 -0.34,0.04c-0.48,-2.07 -0.98,-4.19 -1.5,-6.3c0.13,-0.02 0.26,-0.03 0.4,-0.05l0.1,-0.01l-0.15,-1.25l-0.1,0.01c-0.92,0.12 -1.84,0.25 -2.72,0.4l-0.1,0.02l0.18,1.25l0.1,-0.02c0.13,-0.02 0.26,-0.04 0.39,-0.06c0.04,2.15 0.1,4.34 0.17,6.51c-0.11,0.02 -0.22,0.04 -0.34,0.06l-0.09,0.02l0.19,1.23l0.1,-0.02c0.59,-0.11 1.19,-0.2 1.78,-0.3l0.1,-0.01l-0.16,-1.24l-0.1,0.02c-0.11,0.02 -0.22,0.03 -0.32,0.05c-0.03,-0.6 -0.06,-1.19 -0.09,-1.79c0.21,-0.03 0.43,-0.07 0.65,-0.1c0.12,0.58 0.25,1.17 0.37,1.75c-0.11,0.02 -0.22,0.03 -0.33,0.05l-0.1,0.01l0.16,1.24l0.1,-0.01c0.59,-0.1 1.19,-0.18 1.79,-0.26l0.1,-0.01l-0.13,-1.24l-0.11,0.01zm-2.77,-6.04c0.23,1.09 0.46,2.19 0.68,3.25c-0.17,0.03 -0.34,0.06 -0.5,0.08c-0.06,-1.08 -0.12,-2.2 -0.18,-3.33z" class="st0"/>
    <path id="svg_21" fill="#666766" d="m8.24,3.9c0.14,-0.04 0.29,-0.08 0.43,-0.13l0.09,-0.03l-0.27,-1.22l-0.1,0.03c-0.6,0.17 -1.18,0.35 -1.74,0.53l-0.09,0.03l0.29,1.22l0.1,-0.03c0.09,-0.03 0.17,-0.06 0.26,-0.08c0.42,1.78 0.83,3.55 1.24,5.29c0.2,0.84 0.07,1.05 -0.2,1.13c-0.11,0.03 -0.2,0.03 -0.27,-0.01c-0.15,-0.09 -0.28,-0.35 -0.4,-0.84c-0.43,-1.74 -0.86,-3.49 -1.3,-5.26c0.09,-0.03 0.18,-0.06 0.28,-0.09l0.09,-0.03l-0.3,-1.22l-0.1,0.03c-0.65,0.22 -1.27,0.45 -1.88,0.69l-0.08,0.03l0.32,1.2l0.1,-0.04c0.14,-0.05 0.27,-0.11 0.41,-0.16c0.48,1.85 0.97,3.7 1.44,5.51c0.16,0.6 0.47,1.06 0.87,1.29c0.2,0.11 0.41,0.17 0.63,0.17c0.13,0 0.27,-0.02 0.42,-0.06l0,0c0.43,-0.12 1.39,-0.63 0.94,-2.65c-0.39,-1.75 -0.78,-3.52 -1.18,-5.3z" class="st0"/>
    <path id="svg_22" fill="#666766" d="m13.27,2.68c0.13,-0.03 0.26,-0.05 0.39,-0.08l0.09,-0.02l-0.2,-1.25l-0.1,0.02c-0.63,0.12 -1.26,0.25 -1.86,0.38l-0.09,0.02l0.23,1.25l0.1,-0.02c0.13,-0.03 0.26,-0.06 0.38,-0.08l0.34,1.92c0.1,0.47 0.21,0.95 0.31,1.42c-0.15,-0.39 -0.29,-0.79 -0.44,-1.18c-0.47,-1.03 -0.96,-2.07 -1.45,-3.09l-0.03,-0.07l-0.08,0.02c-0.54,0.13 -1.08,0.26 -1.59,0.4l-0.1,0.01l0.26,1.24l0.1,-0.03c0.13,-0.03 0.25,-0.07 0.38,-0.1c0.43,2.12 0.85,4.21 1.27,6.28c-0.12,0.03 -0.24,0.06 -0.35,0.09l-0.09,0.02l0.25,1.21l0.1,-0.02c0.56,-0.14 1.12,-0.27 1.67,-0.39l0.09,-0.02l-0.23,-1.22l-0.1,0.02c-0.12,0.03 -0.23,0.05 -0.35,0.08c-0.17,-0.91 -0.35,-1.83 -0.53,-2.76c-0.12,-0.55 -0.24,-1.09 -0.37,-1.64c0.23,0.56 0.46,1.12 0.68,1.68c0.56,1.2 1.11,2.41 1.64,3.61l0.03,0.07l0.08,-0.02c0.24,-0.05 0.49,-0.1 0.73,-0.15l0.09,-0.02l-0.02,-0.09c-0.4,-2.48 -0.81,-4.97 -1.23,-7.49z" class="st0"/>
    <path id="svg_23" fill="#666766" d="m57.93,5.85c-0.26,-0.14 -0.52,-0.28 -0.78,-0.42l-0.1,-0.05l-0.04,0.09c-0.12,-0.24 -0.27,-0.39 -0.49,-0.5c-0.23,-0.12 -0.49,-0.12 -0.73,-0.02c-0.42,0.19 -0.78,0.7 -0.99,1.4c-0.29,0.98 -0.2,1.65 0.13,2.87c0.08,0.29 0.15,0.57 0.22,0.85c0.14,0.57 0.14,1.2 -0.01,1.68c-0.08,0.26 -0.2,0.44 -0.34,0.51c-0.07,0.03 -0.13,0.03 -0.2,0.01c-0.24,-0.09 -0.32,-0.32 -0.06,-1.19l0.24,-0.81l-0.08,-0.03c-0.25,-0.1 -0.51,-0.2 -0.77,-0.3l-0.1,-0.04l-0.03,0.1c-0.26,0.91 -0.53,1.82 -0.79,2.72l-0.03,0.09l0.09,0.03c0.25,0.09 0.5,0.17 0.74,0.26l0.1,0.04l0.03,-0.09c0.12,0.21 0.29,0.35 0.49,0.42c0.1,0.04 0.2,0.05 0.31,0.05c0.15,0 0.29,-0.04 0.44,-0.11c0.44,-0.21 0.82,-0.72 1.04,-1.4c0.28,-0.86 0.26,-1.78 -0.06,-3c-0.07,-0.28 -0.15,-0.56 -0.22,-0.84c-0.16,-0.59 -0.17,-1.14 -0.04,-1.59c0.06,-0.19 0.14,-0.32 0.24,-0.36c0.05,-0.02 0.11,-0.02 0.18,0.01c0.18,0.09 0.32,0.27 0.09,1.02l-0.21,0.68l0.08,0.04c0.26,0.12 0.51,0.25 0.76,0.38l0.1,0.05l0.04,-0.11c0.25,-0.77 0.5,-1.54 0.76,-2.32l0.06,-0.08l-0.07,-0.04z" class="st0"/>
    <path id="svg_24" fill="#666766" d="m24.88,0.09c-0.59,0.03 -1.18,0.06 -1.76,0.09l-0.1,0.01l0.08,1.25l0.1,-0.01c0.11,-0.01 0.21,-0.01 0.32,-0.02c-0.11,1.25 -0.21,2.39 -0.23,3.88c-0.23,-1.53 -0.5,-2.77 -0.74,-3.81c0.1,-0.01 0.21,-0.01 0.31,-0.02l0.1,-0.01l-0.08,-1.25l-0.1,0.01c-0.58,0.04 -1.17,0.08 -1.76,0.13l-0.1,0.01l0.1,1.25l0.1,-0.01c0.11,-0.01 0.22,-0.02 0.32,-0.03c-0.08,1.29 -0.13,2.64 -0.14,4.02c-0.22,-1.35 -0.5,-2.71 -0.81,-3.94c0.1,-0.01 0.21,-0.02 0.31,-0.03l0.1,-0.01l-0.11,-1.25l-0.1,0.01c-0.64,0.06 -1.28,0.12 -1.89,0.19l-0.1,0.02l0.13,1.25l0.1,-0.01c0.11,-0.01 0.23,-0.03 0.34,-0.04c0.62,2.51 1.22,5.04 1.78,7.52l0.02,0.09l0.09,-0.01c0.26,-0.03 0.51,-0.05 0.77,-0.07l0.09,-0.01l0,-0.09c0.02,-0.35 0.03,-0.73 0.05,-1.13c0.05,-0.94 0.1,-1.98 0.12,-2.94c0.22,1.19 0.5,2.51 0.74,3.61l0.1,0.46l0.09,-0.01c0.25,-0.02 0.51,-0.04 0.76,-0.05l0.09,-0.01l0.01,-0.09c0.18,-2.56 0.4,-5.15 0.63,-7.69c0.11,-0.01 0.22,-0.01 0.32,-0.01l0.1,0l-0.05,-1.25l-0.1,0z" class="st0"/>
   </g>
   <g id="svg_25">
    <path id="svg_26" fill="#666766" d="m29.02,14.75c-0.57,0 -1.03,0.46 -1.03,1.03c0,0.57 0.46,1.03 1.03,1.03c0.57,0 1.03,-0.46 1.03,-1.03c-0.01,-0.56 -0.47,-1.03 -1.03,-1.03zm0.17,0.81c0.07,0.05 0.11,0.13 0.11,0.22c0,0.08 -0.04,0.15 -0.09,0.21c0.03,-0.04 0.03,-0.09 0.03,-0.13c-0.05,0.03 -0.1,0.05 -0.16,0.05c-0.12,0 -0.24,-0.02 -0.29,-0.15c0,0.02 -0.01,0.07 0,0.12c0.01,0.03 0.01,0.06 0.02,0.08c-0.04,-0.05 -0.06,-0.11 -0.06,-0.18c0,-0.16 0.13,-0.27 0.28,-0.28c0.08,0 0.14,0.04 0.16,0.06zm0.08,1.06c-0.24,0.07 -0.52,0.04 -0.73,-0.1c-0.22,-0.14 -0.35,-0.37 -0.39,-0.6c-0.04,-0.22 0.03,-0.44 0.12,-0.58c0.19,-0.3 0.43,-0.35 0.42,-0.35l0.15,0.37c0.01,0.01 -0.11,0.05 -0.19,0.2c-0.09,0.14 -0.06,0.42 0.15,0.56c0.2,0.14 0.51,0.04 0.6,-0.14c0.11,-0.17 0.05,-0.33 0.06,-0.33l0.38,-0.11c0,0.01 0.13,0.29 -0.06,0.65c-0.09,0.19 -0.27,0.36 -0.51,0.43z" class="st0"/>
    <path id="svg_27" fill="#666766" d="m30.01,16.84c0.29,-0.28 0.45,-0.65 0.45,-1.05c0,-0.42 -0.18,-0.79 -0.46,-1.06c-0.26,-0.24 -0.61,-0.39 -0.99,-0.39l-0.01,0l-0.01,0c-0.39,0 -0.75,0.16 -1.01,0.41c-0.27,0.26 -0.44,0.63 -0.44,1.04c0,0.4 0.16,0.78 0.45,1.05l0.05,0.05l-0.26,6.19l-0.15,0c-1.25,0.03 -2.27,0.37 -2.9,0.66l-0.05,0.02l-0.05,-0.02c-0.08,-0.02 -0.16,-0.03 -0.24,-0.03c-0.19,0 -0.36,0.06 -0.51,0.16c-0.24,0.16 -0.39,0.43 -0.39,0.74c0,0.5 0.4,0.9 0.9,0.9c0.09,0 0.17,-0.01 0.25,-0.04c0.26,-0.07 0.47,-0.26 0.58,-0.51l0.03,-0.07l0.07,-0.02c0.46,-0.13 1.22,-0.28 2.19,-0.31l0.16,0l-0.01,0.72l0.01,0.02c0,0.01 0.01,0.02 0.01,0.03c0.07,-0.11 0.13,-0.22 0.2,-0.32l0,-0.31l0.2,0.01c0.05,-0.07 0.18,-0.28 0.21,-0.32c-0.01,0 -0.02,0 -0.03,0l0,0c0,0 0,0 0,0c0,0 0,0 -0.01,0c-0.09,0 -0.68,-0.04 -0.97,-0.31c0.1,-0.01 0.21,-0.01 0.32,-0.02c0.33,-0.02 0.64,-0.04 0.95,-0.05c0.03,-0.04 0.11,-0.15 0.13,-0.18c-0.75,0.01 -1.56,0.14 -2.15,0.21c-0.59,0.07 -1.03,0.16 -1.19,0.2c0,0 0,-0.01 -0.01,-0.01c0.16,-0.05 0.59,-0.23 1.18,-0.34c0.62,-0.11 1.51,-0.27 2.3,-0.28c0.02,-0.03 0.06,-0.07 0.07,-0.09c-0.02,-0.01 -0.7,-0.29 -0.75,-0.31l0,0l0,0l0,-0.06l0.22,-5.97c0.17,0.17 0.38,0.3 0.62,0.38c0,0 0,0 0,0c0,0.35 0.02,5.23 0.04,5.79c0.01,-0.02 0.63,-0.87 0.63,-0.87l-0.16,-4.81l0.33,-0.16l0.18,4.53c0.06,-0.07 0.12,-0.15 0.18,-0.22l-0.21,-4.93l0.05,-0.05zm-6.38,7.88c-0.05,-0.24 0.07,-0.59 0.34,-0.76c0.27,-0.18 0.59,-0.14 0.77,-0.03c0.19,0.1 0.26,0.23 0.26,0.22c0,0.01 -0.05,-0.06 -0.23,-0.15c-0.18,-0.09 -0.49,-0.12 -0.74,0.05c-0.26,0.16 -0.38,0.49 -0.34,0.72c0.03,0.24 0.12,0.32 0.11,0.32c0,0.01 -0.13,-0.12 -0.17,-0.37zm0.91,-0.1c0,0.08 -0.06,0.14 -0.14,0.14c-0.08,0 -0.14,-0.06 -0.14,-0.14c0,0 0,0 0,0c0,0 0,0 0,0c0,-0.06 0.04,-0.11 0.09,-0.13c0,0 0,0 0,0l0,0c0,0 0,0 0,0c0,0 0,0 0,0c0,0.06 0.05,0.11 0.11,0.11c0.03,0 0.05,-0.01 0.07,-0.03c0,0.01 0.01,0.03 0.01,0.05c0,-0.01 -0.01,-0.01 0,0c-0.01,0 0,0 0,0zm-0.63,0c0,-0.1 0.02,-0.19 0.07,-0.25c0.03,-0.05 0.07,-0.09 0.1,-0.12l0.01,-0.01l0.01,0c0.07,-0.05 0.12,-0.07 0.12,-0.07c0,0 -0.01,0.01 -0.02,0.01c0,0 0.01,0 0.01,0l0.01,0l0.02,0.04c0,0 0,0 0,0c0,0 0,0 0,0l0.02,0.05c0,0 0,0 0,0c0,0 0,0 0,0l0,0l0,0l0,0l0.02,0.04c0,0 0,0 0,0c0,0 0,0 0,0l0,0l0,0l0,0l0.02,0.04c0,0 0,0 0,0c0,0 0,0 0,0l0,0c0,0 -0.01,0.01 -0.03,0.02l-0.02,0.02c-0.02,0.02 -0.05,0.04 -0.07,0.08c-0.02,0.03 -0.03,0.07 -0.03,0.12c0,0.08 0.03,0.16 0.11,0.21c0.12,0.08 0.3,0.02 0.35,-0.08c0.03,-0.05 0.04,-0.1 0.04,-0.13l0,-0.05c0,0 0,-0.01 0,-0.01c0,0 0,0 0,0l0,0l0,0c0,0 0,0 0,0l0.05,-0.01c0,0 0,0 0,-0.01c0,0 0,0 0,0l0.05,-0.01c0,0 0,-0.01 0,-0.01c0,0 0,0 0,0.01l0.05,-0.01c0,0 0,0 0,-0.01c0,0 0,0 0,0l0.05,-0.01c0,0 0,-0.01 0,-0.01c0,0 0,0 0,0l0,0c0,0 0,0 0,0c0,0.01 0.02,0.06 0.02,0.13c0,0.01 0,0.01 0,0.02c0,0.06 -0.01,0.13 -0.05,0.21c-0.09,0.21 -0.44,0.35 -0.68,0.18c-0.16,-0.07 -0.22,-0.23 -0.23,-0.38zm1.2,0.32c-0.03,0.09 -0.09,0.2 -0.2,0.28c-0.17,0.15 -0.53,0.19 -0.53,0.19c0,-0.01 0.29,-0.08 0.45,-0.22c0.12,-0.09 0.18,-0.18 0.22,-0.26c0.05,-0.1 0.08,-0.28 0.08,-0.28c0.01,0 0.02,0.2 -0.02,0.29zm3.91,-7.94c-0.67,0 -1.22,-0.55 -1.22,-1.22c0,-0.67 0.55,-1.22 1.22,-1.22c0.67,0 1.22,0.55 1.22,1.22c0,0.67 -0.55,1.22 -1.22,1.22z" class="st0"/>
   </g>
   <path id="svg_28" fill="#666766" d="m47.28,22.35l0,0c0,0 0,0 0,0c0,0 -0.23,2.6 -3.23,3.61c1.06,-0.5 1.97,-1.28 2.42,-2.11c0.63,-1.1 0.61,-2 0.62,-1.98c0,0 0,0 0,0l0,0c-0.04,-0.02 -0.1,0.87 -0.77,1.89c-0.64,1.04 -2.03,1.95 -3.48,2.32c-0.08,0.02 -0.15,0.03 -0.23,0.05c3.44,-2.33 5.95,-5.43 3.54,-8.99l0,0c0,0 0,0 0,0c0,0 0.57,2.81 -2.19,4.89c0.91,-0.86 1.56,-1.93 1.74,-2.92c0.3,-1.47 -0.04,-2.47 -0.02,-2.46c0,0 0,0 0,0c0,0 0,0 0,0c-0.04,-0.01 0.22,1.02 -0.14,2.42c-0.34,1.41 -1.62,2.93 -3.21,3.77c-0.12,0.06 -0.25,0.11 -0.37,0.17c2.77,-3.36 4.31,-7.2 0.86,-10.12l0,0c0,0 0,0 0,0c0,0 1.48,2.89 -1.03,5.93c-0.23,0.28 -0.5,0.57 -0.79,0.86c1.08,-1.35 1.85,-2.9 1.9,-4.32c0.08,-1.99 -0.96,-3.07 -0.97,-3.12c0,0 0,0 0,0c0,0 0,0 0,0c-0.04,0.04 0.95,1.18 0.8,3.11c-0.09,1.34 -0.84,2.79 -1.88,4.07c0.74,-1.07 1.26,-2.23 1.36,-3.15c0.12,-0.97 -0.23,-1.53 -0.22,-1.52c0,0 0,0 0,0s0,0 0,0c-0.03,0 0.23,0.59 0.05,1.5c-0.16,0.91 -0.75,2.04 -1.53,3.13c-0.44,0.63 -0.94,1.25 -1.43,1.81c-1.92,1.32 -3.68,2.83 -4.52,4.28c-0.13,0.21 -0.24,0.42 -0.32,0.61c-0.46,-0.14 -0.95,-0.22 -1.46,-0.22c-0.93,0 -1.82,0.26 -2.6,0.73l0.01,-0.34l0.01,-0.76c0,0 0.02,-0.16 0,-0.14c-0.05,0.06 -0.1,0.13 -0.16,0.19c-0.01,0.01 -0.01,0.01 -0.02,0.02l-0.02,1.94l-0.5,0.31l0.01,-1.55c-0.13,0.17 -0.52,0.7 -0.59,0.8c0,0.03 0,0.71 0,1.02c-0.1,-0.1 -0.26,-0.24 -0.46,-0.38c-0.05,0.07 -0.1,0.14 -0.14,0.21c0,0 0,0 0,0c0,0 0,0 0,0c0.4,0.37 0.6,0.69 0.6,0.69l0,0l0,0c0,0 1.72,-1.57 3.2,-1.71c0,0 0,0 0,0c0,0 0,0 0,0s0,0 0,0c-0.04,0 -1.27,-0.12 -1.89,0.14c0.04,-0.05 0.09,-0.07 0.08,-0.07c0.73,-0.46 1.58,-0.72 2.48,-0.72c0.11,0 0.21,0 0.32,0.01c0.02,0 0.04,0 0.07,0c0.1,0.01 0.2,0.02 0.31,0.03c0.01,0 0.02,0 0.04,0.01c0.09,0.01 0.18,0.03 0.27,0.05c0.02,0 0.04,0.01 0.06,0.01c0.1,0.02 0.19,0.05 0.29,0.08c0.02,0.01 0.04,0.01 0.06,0.02c0.08,0.03 0.17,0.06 0.25,0.09c0.02,0.01 0.03,0.01 0.05,0.02c0.09,0.04 0.18,0.07 0.27,0.12c0.02,0.01 0.04,0.02 0.06,0.03c0.08,0.04 0.16,0.08 0.24,0.13c0.01,0 0.02,0.01 0.02,0.01c0.08,0.05 0.16,0.1 0.24,0.15c0.02,0.01 0.04,0.03 0.06,0.04c0.08,0.05 0.15,0.11 0.23,0.17c0.01,0.01 0.03,0.02 0.04,0.03c0.06,0.05 0.13,0.1 0.19,0.16c0.02,0.02 0.04,0.04 0.06,0.06c0.07,0.06 0.13,0.12 0.2,0.19c0.02,0.02 0.04,0.04 0.05,0.06c0.05,0.05 0.1,0.11 0.15,0.16c0.02,0.02 0.04,0.04 0.06,0.06c0.06,0.07 0.11,0.14 0.16,0.21c0.02,0.03 0.04,0.05 0.06,0.08c0.04,0.06 0.08,0.12 0.12,0.17c0.02,0.02 0.03,0.05 0.05,0.07c0.04,0.07 0.09,0.15 0.13,0.22c0.02,0.03 0.03,0.07 0.05,0.1c0.03,0.06 0.06,0.13 0.09,0.19c0.01,0.02 0.02,0.04 0.02,0.05l0,0c0.56,1.48 -0.18,2.97 -0.35,3.26l-0.01,-0.05c0.29,-1.66 -0.63,-3.21 -0.63,-3.21l0,0c-0.4,-0.61 -0.97,-1.25 -1.87,-1.65c-1.01,-0.45 -1.89,-0.42 -2.56,-0.24c-0.02,0.01 -0.05,0.01 -0.07,0.02c0,0 0,0 -0.01,0c-0.47,0.12 -0.91,0.32 -1.32,0.6c-0.05,0.04 -0.11,0.08 -0.16,0.12c-0.38,0.28 -0.73,0.65 -1.05,1.09c-0.2,-0.27 -0.42,-0.52 -0.64,-0.74c-0.05,-0.06 -0.11,-0.11 -0.17,-0.16l-0.01,-0.01l0,0c0,0 0,0 0,0c-0.02,0.02 -0.81,1.25 -0.88,1.37c1.06,0.71 1.72,2.1 1.72,2.1s0.65,-1.57 1.7,-2.11c0.07,-0.05 0.18,-0.1 0.19,-0.11c0.16,-0.08 0.31,-0.14 0.44,-0.19c0.38,-0.15 0.81,-0.23 1.28,-0.19c1.59,0.13 2.33,1.23 2.54,2.22l0,0c0.01,0.04 0.01,0.07 0.02,0.11c-0.01,-0.1 -0.02,-0.2 -0.03,-0.3c-0.18,-1.07 -1.06,-1.99 -1.91,-2.18c-0.84,-0.24 -1.46,-0.07 -1.45,-0.09c0,0 0.05,-0.05 0.14,-0.12c0.11,-0.08 0.29,-0.18 0.51,-0.25c-0.55,0.01 -1.08,0.18 -1.46,0.41c-0.54,0.32 -0.79,0.69 -0.8,0.67c0.01,0.01 0.23,-0.38 0.77,-0.72c0.5,-0.34 1.31,-0.56 2.06,-0.41c0.21,0.02 0.45,0.08 0.71,0.22c2.62,1.33 1.41,4.02 1.41,4.02c-0.52,1.08 -1.48,2.22 -2.55,3.29l-0.01,0c0,0 -0.04,0.04 -0.12,0.12c0,0 -0.01,0 -0.01,0c-0.04,0.04 -0.09,0.09 -0.13,0.13c-0.03,0.03 -0.07,0.07 -0.1,0.1c-0.02,0.02 -0.05,0.05 -0.07,0.07c-0.05,0.05 -0.09,0.09 -0.14,0.14c-0.01,0.01 -0.02,0.02 -0.03,0.03c-0.05,0.05 -0.11,0.1 -0.16,0.15l0,0c-0.78,0.73 -1.62,1.43 -2.43,2.05c-0.02,0.02 -0.05,0.04 -0.07,0.05c-0.07,0.06 -0.15,0.11 -0.22,0.17c-0.02,0.02 -0.05,0.04 -0.07,0.06c-0.11,-0.08 -0.22,-0.17 -0.33,-0.25c-0.02,-0.02 -0.04,-0.03 -0.06,-0.05c-0.09,-0.07 -0.18,-0.14 -0.27,-0.21c-0.03,-0.02 -0.05,-0.04 -0.08,-0.06c-0.09,-0.07 -0.18,-0.14 -0.27,-0.22c-0.02,-0.02 -0.04,-0.03 -0.06,-0.05c-0.23,-0.18 -0.46,-0.37 -0.68,-0.57c-0.01,0 -0.01,-0.01 -0.02,-0.01c-0.1,-0.09 -0.21,-0.18 -0.31,-0.27c-0.02,-0.02 -0.04,-0.04 -0.06,-0.05c-0.09,-0.08 -0.18,-0.16 -0.27,-0.24c-0.02,-0.02 -0.04,-0.04 -0.06,-0.06c-0.1,-0.09 -0.2,-0.18 -0.3,-0.27c-0.01,-0.01 -0.02,-0.02 -0.03,-0.03c-0.03,-0.03 -0.06,-0.06 -0.09,-0.08c-0.06,-0.05 -0.11,-0.11 -0.17,-0.16c-0.02,-0.02 -0.04,-0.04 -0.06,-0.06c0,0 0,0 -0.01,0c-0.08,-0.07 -0.15,-0.15 -0.23,-0.22c-0.02,-0.02 -0.03,-0.03 -0.05,-0.05c-0.34,-0.34 -0.67,-0.69 -0.98,-1.04c-0.05,0.13 -0.09,0.26 -0.13,0.39c-0.02,0.06 -0.04,0.13 -0.06,0.19c0.18,0.2 0.37,0.39 0.55,0.58c0,0 0,0 0,0c0.02,0.02 0.04,0.04 0.06,0.06c0,0 0.01,0.01 0.01,0.01c0.01,0.01 0.03,0.03 0.04,0.04c0.15,0.15 0.29,0.29 0.44,0.43c0.01,0.01 0.03,0.03 0.04,0.04l0,0c0.02,0.02 0.03,0.03 0.05,0.05c0.09,0.09 0.19,0.18 0.28,0.27c0.03,0.03 0.06,0.06 0.09,0.09c0.07,0.07 0.15,0.13 0.22,0.2c0.04,0.03 0.07,0.07 0.11,0.1c0.08,0.07 0.16,0.14 0.24,0.21c0.02,0.02 0.04,0.04 0.06,0.06c0.1,0.09 0.2,0.17 0.29,0.25c0.03,0.02 0.05,0.04 0.08,0.07c0.08,0.07 0.16,0.13 0.24,0.2c0.02,0.02 0.04,0.03 0.05,0.05c0.1,0.08 0.19,0.16 0.29,0.23c0.01,0.01 0.01,0.01 0.02,0.02c0.09,0.07 0.18,0.14 0.26,0.21c0.01,0.01 0.02,0.02 0.03,0.02c0.09,0.07 0.17,0.14 0.26,0.2c0.29,0.22 0.53,0.41 0.71,0.54l0.16,0.11l0,0l0,0l0.16,-0.11c0.25,-0.18 0.6,-0.45 1.01,-0.78c0.05,-0.04 0.1,-0.08 0.15,-0.12c0,0 0.01,-0.01 0.01,-0.01c0.05,-0.04 0.11,-0.09 0.16,-0.13c0.01,-0.01 0.02,-0.02 0.03,-0.02c0.09,-0.08 0.19,-0.15 0.28,-0.23c0.02,-0.02 0.05,-0.04 0.07,-0.06c0.05,-0.04 0.1,-0.08 0.15,-0.12c0.03,-0.03 0.06,-0.05 0.09,-0.08c0.07,-0.06 0.15,-0.13 0.22,-0.19c0.04,-0.03 0.08,-0.07 0.11,-0.1c0.04,-0.04 0.09,-0.08 0.13,-0.12c0.05,-0.05 0.1,-0.09 0.16,-0.14c0.06,-0.05 0.11,-0.1 0.17,-0.15c0.05,-0.04 0.1,-0.09 0.15,-0.13c0.04,-0.04 0.08,-0.07 0.12,-0.11c0.07,-0.07 0.14,-0.13 0.22,-0.2c0.01,-0.01 0.03,-0.02 0.04,-0.04l0,0c0.01,-0.01 0.03,-0.03 0.04,-0.04c0.09,-0.09 0.18,-0.18 0.27,-0.27c0,0 0,0 0,0c0.85,-0.84 1.68,-1.77 2.31,-2.72l0,0c1.11,-1.46 1.09,-3.14 1.09,-3.14c0.63,1.85 -0.66,3.46 -0.66,3.46l0,0c-0.25,0.38 -0.56,0.8 -0.95,1.25c-0.12,0.13 -0.26,0.28 -0.41,0.45c-0.03,0.04 -0.07,0.07 -0.1,0.11c-0.97,1.01 -1.77,1.8 -2.5,2.46c-0.31,0.27 -0.6,0.52 -0.88,0.74l0,-0.01l0,0l0,0l-0.33,0.26l-1.31,1.02l-1.06,-0.84l0,0c-0.09,-0.07 -0.19,-0.15 -0.29,-0.23c-0.01,0 -0.01,-0.01 -0.02,-0.01c-0.05,-0.04 -0.09,-0.08 -0.14,-0.12c-0.01,-0.01 -0.02,-0.02 -0.03,-0.02c-0.05,-0.04 -0.1,-0.08 -0.15,-0.12c-0.01,-0.01 -0.02,-0.01 -0.02,-0.02c-0.22,-0.18 -0.46,-0.38 -0.71,-0.6c0,0 -0.01,-0.01 -0.01,-0.01c-0.06,-0.05 -0.11,-0.1 -0.17,-0.15c-0.01,-0.01 -0.02,-0.02 -0.03,-0.03c-0.06,-0.05 -0.11,-0.1 -0.17,-0.15c-0.01,-0.01 -0.02,-0.02 -0.03,-0.03c-0.06,-0.05 -0.12,-0.11 -0.18,-0.16c-0.2,-0.18 -0.4,-0.37 -0.6,-0.56c0,0 0,0 -0.01,-0.01c-0.06,-0.06 -0.12,-0.11 -0.17,-0.17c-0.01,-0.01 -0.03,-0.03 -0.04,-0.04c-0.06,-0.05 -0.11,-0.11 -0.17,-0.16c-0.03,-0.03 -0.06,-0.06 -0.09,-0.09c-0.03,-0.03 -0.06,-0.06 -0.09,-0.09c0,0 -0.01,-0.01 -0.01,-0.01c-0.01,-0.01 -0.01,-0.01 -0.02,-0.02c-0.05,-0.05 -0.1,-0.1 -0.15,-0.16c-0.03,-0.03 -0.06,-0.06 -0.09,-0.09c-0.05,-0.05 -0.1,-0.1 -0.14,-0.15c-0.02,-0.02 -0.03,-0.03 -0.05,-0.05c-0.01,-0.02 -0.03,-0.03 -0.04,-0.05c-0.01,-0.02 -0.03,-0.03 -0.04,-0.05l0,0c-0.01,-0.02 -0.03,-0.03 -0.04,-0.05c-0.01,0.05 -0.03,0.09 -0.04,0.14c0,0 0,0 0,0c-0.01,0.02 -0.01,0.04 -0.02,0.06l0,0c0,0 -0.19,0.69 -0.23,0.9c0,0 0,0 0,0c-0.01,0.06 -0.03,0.13 -0.04,0.19c0,0.01 -0.01,0.03 -0.01,0.04l0,0c0,0 0,0 0,0c0,0 0,0 0,0l0,0c0,0 0.01,0.01 0.01,0.01c0.01,0.02 0.79,0.82 1.62,1.52l0,0c0.25,0.22 0.49,0.42 0.72,0.62c0,0 0.01,0.01 0.01,0.01c0.11,0.09 0.22,0.18 0.33,0.27c0.02,0.02 0.04,0.03 0.06,0.05c0.09,0.07 0.18,0.14 0.26,0.21c0.03,0.03 0.07,0.05 0.1,0.08c0.07,0.06 0.14,0.11 0.21,0.16c0.04,0.03 0.09,0.07 0.13,0.1c0.05,0.04 0.1,0.08 0.15,0.12c0.05,0.04 0.1,0.08 0.15,0.12c0.04,0.03 0.07,0.06 0.11,0.08c0.06,0.04 0.11,0.08 0.17,0.12c0.02,0.01 0.04,0.03 0.06,0.04l0,0c0.02,0.01 0.04,0.03 0.06,0.04l0.02,1l0.07,2.36c0,0.13 0,0.26 0,0.39c0.02,1.65 0.15,2.87 0.38,3.63c0.19,0.61 0.31,0.72 0.39,0.74l0.02,0l0.01,0l0.01,0l0.01,0l0.02,0l0.02,0c0.08,-0.02 0.2,-0.13 0.39,-0.74c0.24,-0.75 0.36,-1.96 0.38,-3.6c0,-0.13 0,-0.27 0,-0.41l0.08,-2.64l0.01,-0.68c0.63,-0.46 1.6,-1.21 2.65,-2.14c0.02,-0.02 0.04,-0.03 0.06,-0.05c0.67,-0.57 1.3,-1.22 1.42,-1.34c0.4,-0.4 0.59,-0.61 0.68,-0.71c0.01,-0.01 0.02,-0.02 0.02,-0.03c0.77,1.01 1.39,1.17 1.39,1.17c-0.2,-0.2 -0.61,-0.83 -0.96,-1.61c0,0 0.01,-0.01 0.01,-0.01c0,-0.01 0,-0.01 0.01,-0.02c0.57,1.01 1.17,1.55 1.16,1.55c0.02,-0.02 -0.54,-0.63 -1.05,-1.69c0,0 0,-0.01 0,-0.01c0.01,-0.01 0.02,-0.02 0.03,-0.04c1.15,1.34 2.01,1.43 2.01,1.43c-0.27,-0.2 -0.94,-0.96 -1.46,-1.89c0.1,0.15 0.21,0.28 0.31,0.41c0.75,0.94 1.45,1.4 1.44,1.4c0.02,-0.02 -0.63,-0.54 -1.31,-1.5c-0.11,-0.16 -0.22,-0.33 -0.34,-0.51c1.6,1.58 2.66,1.53 2.66,1.53c-0.3,-0.16 -1.1,-0.83 -1.77,-1.69c0.14,0.14 0.28,0.26 0.41,0.38c0.91,0.79 1.68,1.11 1.67,1.11c0.02,-0.02 -0.72,-0.41 -1.56,-1.24c-0.2,-0.2 -0.42,-0.42 -0.63,-0.67c2.27,1.66 3.55,1.39 3.55,1.39c-0.37,-0.12 -1.36,-0.71 -2.28,-1.53c0.24,0.17 0.47,0.32 0.7,0.46c1.03,0.62 1.85,0.8 1.85,0.8c0.01,-0.03 -0.78,-0.28 -1.76,-0.94c-0.34,-0.23 -0.72,-0.51 -1.09,-0.84c3.05,1.42 4.4,0.75 4.4,0.75c-0.41,-0.02 -1.65,-0.4 -2.8,-1.05c0.35,0.15 0.69,0.28 1.01,0.38c0.07,0.02 0.14,0.04 0.21,0.06c1.04,0.29 1.77,0.28 1.77,0.28c0,0 0,0 -0.01,-0.01c-0.07,-0.02 -0.51,-0.07 -1.15,-0.25c-0.04,-0.01 -0.09,-0.02 -0.13,-0.04c-0.02,0 -0.03,-0.01 -0.05,-0.01c-0.18,-0.06 -0.38,-0.12 -0.59,-0.2c-0.12,-0.05 -0.25,-0.1 -0.38,-0.15l0,0c-0.48,-0.2 -1,-0.46 -1.51,-0.77c0.55,0.14 1.05,0.24 1.5,0.3c0,0 0,0 0,0c0.01,0 0.01,0 0.02,0c0.01,0 0.02,0 0.03,0c0,0 0,0 0,0c2.66,0.37 3.63,-0.43 3.63,-0.43c-0.45,0.08 -2,-0.02 -3.41,-0.5c0.55,0.12 1.08,0.2 1.55,0.23c1.2,0.09 2.01,-0.12 2.01,-0.12c0,-0.03 -0.82,0.1 -1.99,-0.05c-0.78,-0.1 -1.74,-0.32 -2.66,-0.68c-0.04,-0.01 -0.07,-0.03 -0.11,-0.04c-0.13,-0.05 -0.25,-0.11 -0.38,-0.17c2.6,0.27 5.39,0.11 6.69,-1.45c0.13,-0.13 0.21,-0.23 0.21,-0.23l0.05,-0.13c0.3,-0.49 0.48,-1.1 0.49,-1.84c0,0 0,0 0,0c0,0 0,0 0,0c0,0 -0.64,1.46 -2.51,1.84c0.43,-0.15 0.82,-0.36 1.13,-0.61c0.99,-0.8 1.25,-1.69 1.27,-1.72c0,0 0,0 0,0c0,0 0,0 0,0c-0.04,-0.01 -0.37,0.86 -1.37,1.59c-0.34,0.24 -0.76,0.44 -1.23,0.56c0.24,-0.11 0.46,-0.23 0.65,-0.37c1.05,-0.76 1.4,-1.54 1.4,-1.52c0,0 0,0 0,0l0,0c-0.02,-0.03 -0.44,0.71 -1.49,1.38c-0.52,0.33 -1.23,0.59 -2.02,0.56c-0.58,-0.04 -1.22,-0.16 -1.88,-0.25c4.23,-0.86 8.54,-2.85 7.19,-7.11zm-18.28,26.32c-0.28,-0.56 -0.5,-2.28 -0.5,-4.07c0,-0.03 -0.08,-4.09 -0.08,-4.09l0,0l0,0c0.02,0.01 0.03,0.03 0.05,0.04l0.49,0.39l0.03,0.03l0.01,7.15l0,0.55zm7.54,-24.78c-1.01,0.97 -1.44,1.79 -1.44,1.78c0,0 0,0 0,-0.01c-0.01,-0.04 0.36,-0.89 1.31,-1.9c0.96,-1.05 2.5,-2.25 4.28,-3.27c0.28,-0.16 0.57,-0.33 0.84,-0.52c1.41,-0.96 2.61,-2.3 2.66,-3.71c0,-0.08 0.01,-0.15 0,-0.22c-0.01,-1.49 -0.82,-2.32 -0.79,-2.32c0,0 0,0 0,0c0.03,0.03 0.87,0.81 0.95,2.32c0,0 0,0 0,0c0,0 0,0 0,0c0.02,0.9 -0.36,1.7 -0.37,1.71c0,-0.01 0.01,-0.02 0.01,-0.02c-0.54,1.1 -1.61,2.09 -2.75,2.79c-0.13,0.08 -0.27,0.16 -0.4,0.24c-1.75,1.01 -3.3,2.15 -4.3,3.13zm0.24,2.77c0,0 0,0 0,0c-0.01,-0.02 0.25,-0.43 0.85,-0.95c0.18,-0.16 0.39,-0.32 0.63,-0.49c0.6,-0.43 1.39,-0.85 2.29,-1.23c0.65,-0.27 1.36,-0.52 2.09,-0.74c1.12,-0.3 3.04,-1.56 3.03,-1.55c0.01,-0.01 1.11,-0.78 1.09,-2.27c0,-0.13 -0.01,-0.25 -0.02,-0.36c-0.06,-0.47 -0.19,-0.8 -0.25,-0.92c-0.04,-0.12 -0.08,-0.18 -0.07,-0.19c0,0 0,-0.01 0,0c0.01,0.02 0.4,0.6 0.4,1.55c0,0.26 -0.03,0.56 -0.11,0.88c-0.37,1.55 -2.25,2.68 -3.99,3.15c-1.74,0.5 -3.32,1.16 -4.38,1.82c-1.05,0.66 -1.56,1.31 -1.56,1.3zm1.93,5.05c0,0 -0.01,0 0,0c-0.01,0 0,0 0,0l0,0zm1.63,-1.79c0.54,0.03 1.13,0.11 1.71,0.21c0.18,0.03 0.36,0.07 0.54,0.1c0.58,0.1 1.64,0.04 1.63,0.05c0.24,-0.02 0.76,-0.2 0.99,-0.39c0.01,-0.01 0.02,-0.01 0.02,-0.02c0.25,-0.22 0.4,-0.44 0.49,-0.63c0.06,-0.1 0.1,-0.18 0.13,-0.26c0,0 0,0 0,0.01c0,0 0,0 0,0c-0.03,0.18 -0.13,0.58 -0.54,0.99c-0.58,0.56 -1.71,0.67 -2.76,0.49c-1.06,-0.2 -2.15,-0.42 -3.01,-0.41c-0.86,-0.02 -1.43,0.15 -1.43,0.15c0,0 0,0 0,-0.01c0,0 -0.01,0 -0.01,0c-0.01,-0.02 0.56,-0.24 1.43,-0.27c0.26,-0.03 0.53,-0.02 0.81,-0.01zm-2.53,-1.96c-0.01,0.01 -0.02,0.01 -0.01,0.01c-0.01,0 0,-0.01 0.01,-0.01c0.01,-0.01 0.02,-0.01 0.03,-0.02c-0.02,0 -0.03,0.01 -0.03,0.02c-0.01,0 -0.02,0.01 -0.01,0.01c-0.01,-0.01 0,-0.01 0.01,-0.01c0.09,-0.08 0.59,-0.41 1.44,-0.72c0.93,-0.37 2.29,-0.64 3.71,-0.75c0.81,-0.1 1.66,-0.26 2.39,-0.53c0.37,-0.2 1.1,-0.6 1.16,-0.66c0.06,-0.05 0.11,-0.1 0.16,-0.15c0.57,-0.61 0.65,-1.26 0.67,-1.56c0.01,-0.04 0.01,-0.09 0.02,-0.13c0,0.05 0.01,0.13 0.01,0.25c0,0.34 -0.08,0.94 -0.59,1.55c-0.79,0.93 -2.38,1.33 -3.79,1.51c-2.75,0.08 -4.99,1.05 -5.18,1.19z" class="st0"/>
  </g>
 </g>
</svg>