<svg width="66" height="29" xmlns="http://www.w3.org/2000/svg" xml:space="preserve" version="1.1">

 <g>
  <title>Layer 1</title>
  <g id="svg_1">
   <g id="svg_2">
    <path id="svg_3" fill="#666766" d="m8.03,7.53l0,17.05c0,3.54 -0.47,4.21 -4.08,4.21c-3.51,0 -3.95,-0.78 -3.95,-4.21l0,-4.71l3.28,0l0,5.2c0,0.62 0.16,0.91 0.6,0.91c0.44,0 0.55,-0.31 0.55,-0.91l0,-17.54l3.6,0z" class="st0"/>
    <path id="svg_4" fill="#666766" d="m14.32,7.53c3.12,0 3.9,0.86 3.9,3.74l0,2.78c0,1.72 -0.39,2.68 -1.59,3.17c1.33,0.6 1.59,1.56 1.59,3.28l0,3.87c0,3.35 -0.47,4.26 -4.24,4.26l-4.1,0l0,-21.1l4.44,0zm-0.83,8.21c0.1,0 0.21,0.03 0.31,0.03c0.62,0 0.83,-0.26 0.83,-0.94l0,-3.67c0,-0.65 -0.21,-0.88 -0.75,-0.88c-0.26,0 -0.39,0 -0.39,0l0,5.46zm0,10.12c0.13,0.03 0.23,0.03 0.34,0.03c0.6,0 0.81,-0.26 0.81,-0.94l0,-5.23c0,-0.68 -0.23,-0.91 -0.83,-0.91c-0.1,0 -0.21,0.03 -0.31,0.03l0,7.02l-0.01,0z" class="st0"/>
    <path id="svg_5" fill="#666766" d="m27.58,7.53l0,17.05c0,3.54 -0.47,4.21 -4.08,4.21c-3.51,0 -3.95,-0.78 -3.95,-4.21l0,-4.71l3.28,0l0,5.2c0,0.62 0.16,0.91 0.6,0.91c0.44,0 0.55,-0.31 0.55,-0.91l0,-17.54l3.6,0z" class="st0"/>
   </g>
   <g id="svg_6">
    <path id="svg_7" fill="#666766" d="m29.58,25.19l2,0l0,0.59l-1.28,0l0,0.84l1.2,0l0,0.59l-1.2,0l0,1.56l-0.72,0l0,-3.58z" class="st0"/>
    <path id="svg_8" fill="#666766" d="m34.36,25.12c1.08,0 1.22,0.77 1.22,1.86c0,1.09 -0.14,1.86 -1.22,1.86c-1.08,0 -1.22,-0.77 -1.22,-1.86c0,-1.09 0.14,-1.86 1.22,-1.86zm0,3.19c0.43,0 0.5,-0.37 0.5,-1.33c0,-0.96 -0.07,-1.33 -0.5,-1.33c-0.43,0 -0.5,0.37 -0.5,1.33c0,0.97 0.07,1.33 0.5,1.33z" class="st0"/>
    <path id="svg_9" fill="#666766" d="m37.99,25.19l0,2.5c0,0.36 0.09,0.62 0.42,0.62c0.34,0 0.42,-0.27 0.42,-0.62l0,-2.5l0.72,0l0,2.5c0,0.91 -0.56,1.15 -1.14,1.15c-0.59,0 -1.14,-0.2 -1.14,-1.15l0,-2.5l0.72,0z" class="st0"/>
    <path id="svg_10" fill="#666766" d="m42.16,25.19l0.87,2.45l0.01,0l0,-2.45l0.66,0l0,3.58l-0.82,0l-0.88,-2.51l-0.01,0l0,2.51l-0.66,0l0,-3.58l0.83,0z" class="st0"/>
    <path id="svg_11" fill="#666766" d="m45.55,25.19l1.18,0c1,0 1.18,0.69 1.18,1.74c0,1.27 -0.27,1.84 -1.23,1.84l-1.14,0l0,-3.58l0.01,0zm0.72,3.05l0.32,0c0.5,0 0.6,-0.32 0.6,-1.29c0,-0.81 -0.07,-1.23 -0.62,-1.23l-0.31,0l0,2.52l0.01,0z" class="st0"/>
    <path id="svg_12" fill="#666766" d="m50.23,25.19l0.89,0l0.95,3.58l-0.75,0l-0.17,-0.76l-0.95,0l-0.17,0.76l-0.75,0l0.95,-3.58zm0.1,2.23l0.7,0l-0.35,-1.61l-0.01,0l-0.34,1.61z" class="st0"/>
    <path id="svg_13" fill="#666766" d="m55.35,25.19l0,0.59l-0.78,0l0,2.99l-0.72,0l0,-2.99l-0.78,0l0,-0.59l2.28,0z" class="st0"/>
    <path id="svg_14" fill="#666766" d="m57.01,28.77l0,-3.58l0.72,0l0,3.58l-0.72,0z" class="st0"/>
    <path id="svg_15" fill="#666766" d="m60.72,25.12c1.08,0 1.22,0.77 1.22,1.86c0,1.09 -0.14,1.86 -1.22,1.86c-1.08,0 -1.22,-0.77 -1.22,-1.86c0,-1.09 0.14,-1.86 1.22,-1.86zm0,3.19c0.43,0 0.5,-0.37 0.5,-1.33c0,-0.96 -0.07,-1.33 -0.5,-1.33c-0.43,0 -0.5,0.37 -0.5,1.33c0.01,0.97 0.08,1.33 0.5,1.33z" class="st0"/>
    <path id="svg_16" fill="#666766" d="m64.41,25.19l0.87,2.45l0.01,0l0,-2.45l0.66,0l0,3.58l-0.82,0l-0.88,-2.51l-0.01,0l0,2.51l-0.66,0l0,-3.58l0.83,0z" class="st0"/>
   </g>
   <g id="svg_17">
    <path id="svg_18" fill="#666766" d="m37.91,12.32l-3.56,0l0,-1.1c0,-0.51 -0.05,-0.84 -0.14,-0.98c-0.09,-0.14 -0.24,-0.21 -0.46,-0.21c-0.23,0 -0.41,0.09 -0.52,0.28c-0.12,0.19 -0.18,0.47 -0.18,0.86c0,0.49 0.07,0.86 0.2,1.11c0.13,0.25 0.49,0.55 1.08,0.9c1.71,1.01 2.78,1.85 3.23,2.5c0.44,0.65 0.67,1.7 0.67,3.14c0,1.05 -0.12,1.83 -0.37,2.32c-0.25,0.5 -0.72,0.92 -1.43,1.25c-0.7,0.34 -1.52,0.51 -2.46,0.51c-1.03,0 -1.9,-0.19 -2.63,-0.58c-0.73,-0.39 -1.2,-0.88 -1.43,-1.49c-0.22,-0.6 -0.34,-1.45 -0.34,-2.56l0,-0.95l3.56,0l0,1.8c0,0.55 0.05,0.91 0.15,1.07c0.1,0.16 0.28,0.24 0.53,0.24c0.26,0 0.44,-0.1 0.57,-0.3c0.12,-0.2 0.19,-0.5 0.19,-0.89c0,-0.87 -0.12,-1.44 -0.36,-1.7c-0.24,-0.27 -0.84,-0.71 -1.8,-1.34c-0.95,-0.63 -1.59,-1.09 -1.9,-1.38c-0.31,-0.29 -0.57,-0.68 -0.77,-1.18c-0.2,-0.5 -0.31,-1.15 -0.31,-1.93c0,-1.13 0.14,-1.96 0.43,-2.48c0.29,-0.52 0.75,-0.93 1.4,-1.23c0.64,-0.29 1.42,-0.44 2.33,-0.44c1,0 1.85,0.16 2.55,0.48c0.7,0.32 1.17,0.73 1.39,1.22c0.23,0.49 0.34,1.32 0.34,2.49l0,0.57l0.04,0z" class="st0"/>
    <path id="svg_19" fill="#666766" d="m58.35,7.85l0,9.86c0,1.12 -0.04,1.9 -0.11,2.36c-0.07,0.45 -0.29,0.92 -0.65,1.39c-0.36,0.48 -0.83,0.84 -1.42,1.08c-0.59,0.25 -1.28,0.37 -2.07,0.37c-0.88,0 -1.66,-0.15 -2.33,-0.44c-0.67,-0.29 -1.18,-0.67 -1.51,-1.14c-0.33,-0.47 -0.53,-0.96 -0.59,-1.48c-0.06,-0.52 -0.09,-1.61 -0.09,-3.28l0,-8.73l3.84,0l0,11.06c0,0.64 0.03,1.06 0.1,1.23c0.07,0.18 0.21,0.27 0.42,0.27c0.24,0 0.4,-0.1 0.47,-0.3c0.07,-0.2 0.1,-0.66 0.1,-1.4l0,-10.85l3.84,0z" class="st0"/>
    <path id="svg_20" fill="#666766" d="m63.67,7.85l0,11.8l2.33,0l0,2.95l-6.17,0l0,-14.75l3.84,0z" class="st0"/>
   </g>
   <polygon id="svg_21" fill="#666766" points="27.579999923706055,6.420000076293945 27.579999923706055,2.7300004959106445 23.950000762939453,2.7300004959106445 23.950000762939453,4.409999847412109 15.930000305175781,0 3.3499999046325684,6.930000305175781 28.510000228881836,6.930000305175781 " class="st0"/>
   <g id="svg_22">
    <path id="svg_23" fill="#666766" d="m45.87,11.49l-4.24,0l0,7.44l4.24,0l0,-7.44zm-2.36,7.06l-1.41,0l0,-3.08l1.41,0l0,3.08zm0,-3.56l-1.41,0l0,-3.08l1.41,0l0,3.08zm1.9,3.56l-1.41,0l0,-3.08l1.41,0l0,3.08zm0,-3.56l-1.41,0l0,-3.08l1.41,0l0,3.08z" class="st0"/>
    <path id="svg_24" fill="#666766" d="m48.08,10.78c-0.07,-0.61 -0.3,-1.17 -0.68,-1.69c-0.38,-0.52 -0.89,-0.9 -1.52,-1.16c-0.63,-0.26 -1.34,-0.39 -2.13,-0.39c-0.83,0 -1.56,0.14 -2.19,0.41c-0.63,0.27 -1.12,0.67 -1.49,1.18c-0.37,0.51 -0.59,1.07 -0.66,1.69c-0.07,0.62 -0.1,1.67 -0.1,3.15l0,2.52c0,1.52 0.04,2.58 0.11,3.19c0.07,0.61 0.3,1.17 0.68,1.69c0.38,0.52 0.89,0.9 1.52,1.16c0.63,0.26 1.34,0.39 2.13,0.39c0.83,0 1.56,-0.14 2.19,-0.41c0.63,-0.27 1.12,-0.67 1.49,-1.18c0.37,-0.51 0.59,-1.07 0.66,-1.69c0.07,-0.62 0.1,-1.67 0.1,-3.15l0,-2.52c0,-1.52 -0.03,-2.59 -0.11,-3.19zm-1.76,8.6l-5.13,0l0,-8.34l5.13,0l0,8.34z" class="st0"/>
   </g>
  </g>
 </g>
</svg>